<?xml version="1.0" encoding="UTF-8"?>
<!DOCTYPE svg PUBLIC "-//W3C//DTD SVG 1.1//EN" "http://www.w3.org/Graphics/SVG/1.1/DTD/svg11.dtd">
<svg version="1.2" width="80mm" height="103mm" viewBox="0 0 8000 10300" preserveAspectRatio="xMidYMid" fill-rule="evenodd" stroke-width="28.222" stroke-linejoin="round" xmlns="http://www.w3.org/2000/svg" xmlns:ooo="http://xml.openoffice.org/svg/export" xmlns:xlink="http://www.w3.org/1999/xlink" xmlns:presentation="http://sun.com/xmlns/staroffice/presentation" xmlns:smil="http://www.w3.org/2001/SMIL20/" xmlns:anim="urn:oasis:names:tc:opendocument:xmlns:animation:1.0" xml:space="preserve">
 <defs class="ClipPathGroup">
  <clipPath id="presentation_clip_path" clipPathUnits="userSpaceOnUse">
   <rect x="0" y="0" width="8000" height="10300"/>
  </clipPath>
  <clipPath id="presentation_clip_path_shrink" clipPathUnits="userSpaceOnUse">
   <rect x="8" y="10" width="7984" height="10280"/>
  </clipPath>
 </defs>
 <defs class="TextShapeIndex">
  <g ooo:slide="id1" ooo:id-list="id3 id4 id5 id6 id7 id8 id9 id10 id11 id12 id13 id14 id15 id16 id17 id18 id19 id20 id21 id22 id23 id24 id25 id26 id27 id28 id29 id30 id31 id32 id33 id34 id35 id36 id37 id38 id39 id40 id41 id42 id43 id44 id45 id46 id47 id48 id49 id50 id51 id52 id53 id54 id55 id56 id57 id58 id59 id60 id61 id62 id63 id64 id65 id66 id67 id68 id69 id70 id71 id72 id73 id74 id75 id76 id77 id78 id79 id80 id81 id82 id83 id84 id85 id86 id87 id88 id89 id90 id91 id92 id93 id94 id95 id96 id97 id98 id99 id100 id101 id102 id103 id104 id105 id106 id107 id108 id109 id110 id111 id112 id113 id114 id115 id116 id117"/>
 </defs>
 <defs class="EmbeddedBulletChars">
  <g id="bullet-char-template-57356" transform="scale(0.00048828125,-0.00048828125)">
   <path d="M 580,1141 L 1163,571 580,0 -4,571 580,1141 Z"/>
  </g>
  <g id="bullet-char-template-57354" transform="scale(0.00048828125,-0.00048828125)">
   <path d="M 8,1128 L 1137,1128 1137,0 8,0 8,1128 Z"/>
  </g>
  <g id="bullet-char-template-10146" transform="scale(0.00048828125,-0.00048828125)">
   <path d="M 174,0 L 602,739 174,1481 1456,739 174,0 Z M 1358,739 L 309,1346 659,739 1358,739 Z"/>
  </g>
  <g id="bullet-char-template-10132" transform="scale(0.00048828125,-0.00048828125)">
   <path d="M 2015,739 L 1276,0 717,0 1260,543 174,543 174,936 1260,936 717,1481 1274,1481 2015,739 Z"/>
  </g>
  <g id="bullet-char-template-10007" transform="scale(0.00048828125,-0.00048828125)">
   <path d="M 0,-2 C -7,14 -16,27 -25,37 L 356,567 C 262,823 215,952 215,954 215,979 228,992 255,992 264,992 276,990 289,987 310,991 331,999 354,1012 L 381,999 492,748 772,1049 836,1024 860,1049 C 881,1039 901,1025 922,1006 886,937 835,863 770,784 769,783 710,716 594,584 L 774,223 C 774,196 753,168 711,139 L 727,119 C 717,90 699,76 672,76 641,76 570,178 457,381 L 164,-76 C 142,-110 111,-127 72,-127 30,-127 9,-110 8,-76 1,-67 -2,-52 -2,-32 -2,-23 -1,-13 0,-2 Z"/>
  </g>
  <g id="bullet-char-template-10004" transform="scale(0.00048828125,-0.00048828125)">
   <path d="M 285,-33 C 182,-33 111,30 74,156 52,228 41,333 41,471 41,549 55,616 82,672 116,743 169,778 240,778 293,778 328,747 346,684 L 369,508 C 377,444 397,411 428,410 L 1163,1116 C 1174,1127 1196,1133 1229,1133 1271,1133 1292,1118 1292,1087 L 1292,965 C 1292,929 1282,901 1262,881 L 442,47 C 390,-6 338,-33 285,-33 Z"/>
  </g>
  <g id="bullet-char-template-9679" transform="scale(0.00048828125,-0.00048828125)">
   <path d="M 813,0 C 632,0 489,54 383,161 276,268 223,411 223,592 223,773 276,916 383,1023 489,1130 632,1184 813,1184 992,1184 1136,1130 1245,1023 1353,916 1407,772 1407,592 1407,412 1353,268 1245,161 1136,54 992,0 813,0 Z"/>
  </g>
  <g id="bullet-char-template-8226" transform="scale(0.00048828125,-0.00048828125)">
   <path d="M 346,457 C 273,457 209,483 155,535 101,586 74,649 74,723 74,796 101,859 155,911 209,963 273,989 346,989 419,989 480,963 531,910 582,859 608,796 608,723 608,648 583,586 532,535 482,483 420,457 346,457 Z"/>
  </g>
  <g id="bullet-char-template-8211" transform="scale(0.00048828125,-0.00048828125)">
   <path d="M -4,459 L 1135,459 1135,606 -4,606 -4,459 Z"/>
  </g>
  <g id="bullet-char-template-61548" transform="scale(0.00048828125,-0.00048828125)">
   <path d="M 173,740 C 173,903 231,1043 346,1159 462,1274 601,1332 765,1332 928,1332 1067,1274 1183,1159 1299,1043 1357,903 1357,740 1357,577 1299,437 1183,322 1067,206 928,148 765,148 601,148 462,206 346,322 231,437 173,577 173,740 Z"/>
  </g>
 </defs>
 <g>
  <g id="id2" class="Master_Slide">
   <g id="bg-id2" class="Background"/>
   <g id="bo-id2" class="BackgroundObjects"/>
  </g>
 </g>
 <g class="SlideGroup">
  <g>
   <g id="container-id1">
    <g id="id1" class="Slide" clip-path="url(#presentation_clip_path)">
     <g class="Page">
      <g class="com.sun.star.drawing.ClosedBezierShape">
       <g id="id3">
        <rect class="BoundingBox" stroke="none" fill="none" x="0" y="1651" width="8001" height="8637"/>
        <path fill="rgb(201,33,30)" stroke="none" d="M 0,10287 C 0,7408 0,4530 0,1651 2667,1651 5333,1651 8000,1651 8000,4530 8000,7408 8000,10287 5333,10287 2667,10287 0,10287 Z"/>
       </g>
      </g>
      <g class="com.sun.star.drawing.ClosedBezierShape">
       <g id="id4">
        <rect class="BoundingBox" stroke="none" fill="none" x="1523" y="3168" width="4948" height="4512"/>
        <path fill="rgb(255,255,255)" stroke="none" d="M 2844,3169 C 3612,3169 4380,3169 5148,3169 5588,3609 6029,4049 6469,4489 6469,5112 6469,5734 6469,6357 6029,6797 5588,7238 5148,7678 4380,7678 3612,7678 2844,7678 2404,7238 1964,6797 1524,6357 1524,5734 1524,5112 1524,4489 1964,4049 2404,3609 2844,3169 Z"/>
        <path fill="none" stroke="rgb(52,101,164)" d="M 2844,3169 L 5148,3169 C 5588,3609 6029,4049 6469,4489 L 6469,6357 5148,7678 2844,7678 C 2404,7238 1964,6797 1524,6357 L 1524,4489 2844,3169 Z"/>
       </g>
      </g>
      <g class="com.sun.star.drawing.OpenBezierShape">
       <g id="id5">
        <rect class="BoundingBox" stroke="none" fill="none" x="248" y="525" width="151" height="643"/>
        <path fill="none" stroke="rgb(201,33,30)" stroke-width="150" stroke-linejoin="round" d="M 323,601 L 323,1092"/>
       </g>
      </g>
      <g class="com.sun.star.drawing.OpenBezierShape">
       <g id="id6">
        <rect class="BoundingBox" stroke="none" fill="none" x="228" y="223" width="493" height="498"/>
        <path fill="none" stroke="rgb(201,33,30)" stroke-width="150" stroke-linejoin="round" d="M 304,645 L 644,298"/>
       </g>
      </g>
      <g class="com.sun.star.drawing.OpenBezierShape">
       <g id="id7">
        <rect class="BoundingBox" stroke="none" fill="none" x="228" y="972" width="492" height="498"/>
        <path fill="none" stroke="rgb(201,33,30)" stroke-width="150" stroke-linejoin="round" d="M 303,1047 L 644,1394"/>
       </g>
      </g>
      <g class="com.sun.star.drawing.OpenBezierShape">
       <g id="id8">
        <rect class="BoundingBox" stroke="none" fill="none" x="522" y="1298" width="633" height="151"/>
        <path fill="none" stroke="rgb(201,33,30)" stroke-width="150" stroke-linejoin="round" d="M 1079,1373 L 597,1373"/>
       </g>
      </g>
      <g class="com.sun.star.drawing.OpenBezierShape">
       <g id="id9">
        <rect class="BoundingBox" stroke="none" fill="none" x="519" y="245" width="633" height="151"/>
        <path fill="none" stroke="rgb(201,33,30)" stroke-width="150" stroke-linejoin="round" d="M 1076,320 L 594,320"/>
       </g>
      </g>
      <g class="com.sun.star.drawing.OpenBezierShape">
       <g id="id10">
        <rect class="BoundingBox" stroke="none" fill="none" x="954" y="225" width="492" height="498"/>
        <path fill="none" stroke="rgb(201,33,30)" stroke-width="150" stroke-linejoin="round" d="M 1029,300 C 1143,416 1256,531 1370,647"/>
       </g>
      </g>
      <g class="com.sun.star.drawing.OpenBezierShape">
       <g id="id11">
        <rect class="BoundingBox" stroke="none" fill="none" x="1276" y="527" width="151" height="643"/>
        <path fill="none" stroke="rgb(201,33,30)" stroke-width="150" stroke-linejoin="round" d="M 1351,603 L 1351,1094"/>
       </g>
      </g>
      <g class="com.sun.star.drawing.OpenBezierShape">
       <g id="id12">
        <rect class="BoundingBox" stroke="none" fill="none" x="954" y="972" width="492" height="498"/>
        <path fill="none" stroke="rgb(201,33,30)" stroke-width="150" stroke-linejoin="round" d="M 1029,1394 C 1143,1278 1256,1163 1370,1047"/>
       </g>
      </g>
      <g class="com.sun.star.drawing.CustomShape">
       <g id="id13">
        <rect class="BoundingBox" stroke="none" fill="none" x="724" y="741" width="241" height="242"/>
        <path fill="rgb(201,33,30)" stroke="none" d="M 964,862 C 964,883 958,903 948,922 938,940 922,955 904,966 886,976 865,982 844,982 824,982 803,976 785,966 767,955 751,940 741,922 731,903 725,883 725,862 725,840 731,820 741,801 751,783 767,768 785,757 803,747 824,741 844,741 865,741 886,747 904,757 922,768 938,783 948,801 958,820 964,840 964,861 L 964,862 Z"/>
       </g>
      </g>
      <g class="com.sun.star.drawing.ClosedBezierShape">
       <g id="id14">
        <rect class="BoundingBox" stroke="none" fill="none" x="3410" y="605" width="438" height="576"/>
        <path fill="rgb(201,33,30)" stroke="none" d="M 3721,1180 L 3498,737 C 3503,780 3505,815 3505,841 L 3505,1180 3410,1180 3410,605 3532,605 3758,1051 C 3754,1010 3752,973 3752,939 L 3752,605 3847,605 3847,1180 3721,1180 Z"/>
       </g>
      </g>
      <g class="com.sun.star.drawing.ClosedBezierShape">
       <g id="id15">
        <rect class="BoundingBox" stroke="none" fill="none" x="3927" y="596" width="517" height="592"/>
        <path fill="rgb(201,33,30)" stroke="none" d="M 4443,889 C 4443,949 4432,1002 4411,1047 4390,1092 4360,1127 4321,1151 4282,1175 4236,1187 4184,1187 4104,1187 4041,1161 3995,1108 3950,1054 3927,982 3927,889 3927,797 3950,725 3995,673 4041,622 4104,596 4185,596 4266,596 4329,622 4375,674 4420,726 4443,798 4443,889 Z M 4334,889 C 4334,827 4321,779 4295,743 4269,708 4232,691 4185,691 4137,691 4100,708 4074,743 4048,778 4035,827 4035,889 4035,952 4048,1002 4075,1038 4101,1075 4138,1093 4184,1093 4232,1093 4269,1075 4295,1040 4321,1004 4334,954 4334,889 Z"/>
       </g>
      </g>
      <g class="com.sun.star.drawing.ClosedBezierShape">
       <g id="id16">
        <rect class="BoundingBox" stroke="none" fill="none" x="4504" y="596" width="503" height="592"/>
        <path fill="rgb(201,33,30)" stroke="none" d="M 4767,1093 C 4795,1093 4822,1089 4848,1079 4874,1070 4894,1059 4908,1045 L 4908,965 4783,965 4783,876 5006,876 5006,1087 C 4979,1119 4944,1143 4900,1161 4857,1178 4812,1187 4764,1187 4681,1187 4617,1161 4572,1110 4527,1058 4505,984 4505,889 4505,795 4527,722 4572,672 4617,621 4682,596 4766,596 4886,596 4963,646 4995,746 L 4897,779 C 4886,750 4869,728 4847,713 4824,698 4797,691 4766,691 4716,691 4678,708 4652,742 4626,776 4613,825 4613,889 4613,954 4626,1004 4653,1040 4680,1075 4718,1093 4767,1093 Z"/>
       </g>
      </g>
      <g class="com.sun.star.drawing.ClosedBezierShape">
       <g id="id17">
        <rect class="BoundingBox" stroke="none" fill="none" x="5083" y="596" width="517" height="592"/>
        <path fill="rgb(201,33,30)" stroke="none" d="M 5599,889 C 5599,949 5588,1002 5567,1047 5546,1092 5516,1127 5477,1151 5438,1175 5392,1187 5340,1187 5260,1187 5197,1161 5151,1108 5106,1054 5083,982 5083,889 5083,797 5106,725 5151,673 5197,622 5260,596 5341,596 5422,596 5485,622 5531,674 5576,726 5599,798 5599,889 Z M 5490,889 C 5490,827 5477,779 5451,743 5425,708 5388,691 5341,691 5293,691 5256,708 5230,743 5204,778 5191,827 5191,889 5191,952 5204,1002 5231,1038 5257,1075 5294,1093 5340,1093 5388,1093 5425,1075 5451,1040 5477,1004 5490,954 5490,889 Z"/>
       </g>
      </g>
      <g class="com.sun.star.drawing.ClosedBezierShape">
       <g id="id18">
        <rect class="BoundingBox" stroke="none" fill="none" x="5948" y="605" width="382" height="576"/>
        <path fill="rgb(201,33,30)" stroke="none" d="M 5948,1180 C 5948,988 5948,797 5948,605 5984,605 6019,605 6055,605 6055,766 6055,926 6055,1087 6146,1087 6238,1087 6329,1087 6329,1118 6329,1149 6329,1180 6202,1180 6075,1180 5948,1180 Z"/>
       </g>
      </g>
      <g class="com.sun.star.drawing.ClosedBezierShape">
       <g id="id19">
        <rect class="BoundingBox" stroke="none" fill="none" x="6418" y="605" width="109" height="576"/>
        <path fill="rgb(201,33,30)" stroke="none" d="M 6419,1180 C 6419,988 6419,797 6419,605 6455,605 6490,605 6526,605 6526,797 6526,988 6526,1180 6490,1180 6455,1180 6419,1180 Z"/>
       </g>
      </g>
      <g class="com.sun.star.drawing.ClosedBezierShape">
       <g id="id20">
        <rect class="BoundingBox" stroke="none" fill="none" x="6654" y="605" width="438" height="576"/>
        <path fill="rgb(201,33,30)" stroke="none" d="M 6965,1180 L 6742,737 C 6747,780 6749,815 6749,841 L 6749,1180 6654,1180 6654,605 6776,605 7002,1051 C 6998,1010 6996,973 6996,939 L 6996,605 7091,605 7091,1180 6965,1180 Z"/>
       </g>
      </g>
      <g class="com.sun.star.drawing.ClosedBezierShape">
       <g id="id21">
        <rect class="BoundingBox" stroke="none" fill="none" x="7213" y="605" width="481" height="576"/>
        <path fill="rgb(201,33,30)" stroke="none" d="M 7567,1180 C 7505,1092 7444,1004 7383,916 7362,934 7341,952 7320,970 7320,1040 7320,1110 7320,1180 7284,1180 7249,1180 7213,1180 7213,988 7213,797 7213,605 7249,605 7284,605 7320,605 7320,692 7320,779 7320,866 7397,779 7473,692 7550,605 7592,605 7633,605 7675,605 7602,686 7529,767 7457,848 7535,959 7614,1069 7693,1180 7651,1180 7609,1180 7567,1180 Z"/>
       </g>
      </g>
      <g class="com.sun.star.drawing.CustomShape">
       <g id="id22">
        <rect class="BoundingBox" stroke="none" fill="none" x="5644" y="951" width="205" height="230"/>
        <path fill="rgb(201,33,30)" stroke="none" d="M 5848,1066 C 5848,1086 5843,1105 5834,1123 5825,1140 5813,1155 5797,1165 5781,1175 5764,1180 5746,1180 5728,1180 5711,1175 5695,1165 5679,1155 5667,1140 5658,1123 5649,1105 5644,1086 5644,1066 5644,1045 5649,1026 5658,1008 5667,991 5679,976 5695,966 5711,956 5728,951 5746,951 5764,951 5781,956 5797,966 5813,976 5825,991 5834,1008 5843,1026 5848,1045 5848,1065 L 5848,1066 Z"/>
       </g>
      </g>
      <g class="Group">
       <g class="com.sun.star.drawing.ClosedBezierShape">
        <g id="id23">
         <rect class="BoundingBox" stroke="none" fill="none" x="260" y="9727" width="306" height="349"/>
         <path fill="rgb(255,255,255)" stroke="none" d="M 565,9971 C 565,10003 552,10029 525,10047 499,10066 462,10075 415,10075 369,10075 334,10068 309,10053 285,10039 268,10016 260,9985 L 337,9974 C 341,9990 349,10001 359,10007 370,10014 389,10017 415,10017 439,10017 457,10014 468,10008 479,10002 485,9992 485,9979 485,9968 480,9960 471,9953 463,9947 447,9942 426,9937 377,9928 343,9919 326,9910 309,9902 296,9891 287,9878 278,9864 274,9848 274,9829 274,9797 286,9772 311,9754 335,9736 370,9727 416,9727 455,9727 488,9735 512,9750 536,9766 551,9788 557,9818 L 480,9826 C 478,9812 471,9802 462,9795 452,9788 437,9785 416,9785 395,9785 379,9788 369,9793 359,9798 354,9807 354,9819 354,9829 358,9837 366,9842 374,9848 387,9853 406,9857 432,9862 455,9867 476,9873 496,9879 512,9886 525,9893 537,9901 547,9911 554,9924 561,9936 565,9952 565,9971 Z"/>
        </g>
       </g>
       <g class="com.sun.star.drawing.ClosedBezierShape">
        <g id="id24">
         <rect class="BoundingBox" stroke="none" fill="none" x="660" y="9655" width="198" height="422"/>
         <path fill="rgb(255,255,255)" stroke="none" d="M 783,10075 C 757,10075 738,10068 724,10054 710,10040 703,10019 703,9991 L 703,9793 661,9793 661,9734 707,9734 735,9655 789,9655 789,9734 853,9734 853,9793 789,9793 789,9967 C 789,9984 792,9996 799,10003 805,10011 814,10015 827,10015 834,10015 844,10014 857,10011 L 857,10064 C 835,10071 811,10075 783,10075 Z"/>
        </g>
       </g>
       <g class="com.sun.star.drawing.ClosedBezierShape">
        <g id="id25">
         <rect class="BoundingBox" stroke="none" fill="none" x="953" y="9727" width="341" height="349"/>
         <path fill="rgb(255,255,255)" stroke="none" d="M 1292,9901 C 1292,9955 1277,9998 1247,10029 1217,10060 1175,10075 1122,10075 1069,10075 1028,10059 998,10028 969,9997 954,9955 954,9901 954,9847 969,9804 998,9773 1028,9742 1070,9727 1123,9727 1178,9727 1220,9742 1249,9772 1278,9802 1292,9845 1292,9901 Z M 1201,9901 C 1201,9861 1195,9832 1181,9814 1168,9796 1150,9787 1125,9787 1072,9787 1045,9825 1045,9901 1045,9938 1052,9966 1065,9986 1078,10005 1096,10015 1121,10015 1174,10015 1201,9977 1201,9901 Z"/>
        </g>
       </g>
       <g class="com.sun.star.drawing.ClosedBezierShape">
        <g id="id26">
         <rect class="BoundingBox" stroke="none" fill="none" x="1424" y="9726" width="322" height="476"/>
         <path fill="rgb(255,255,255)" stroke="none" d="M 1745,9899 C 1745,9955 1734,9999 1711,10029 1689,10060 1657,10075 1616,10075 1593,10075 1572,10070 1555,10060 1537,10049 1524,10035 1514,10015 L 1513,10015 C 1514,10022 1514,10041 1514,10072 L 1514,10201 1427,10201 1427,9811 C 1427,9780 1427,9754 1425,9734 L 1510,9734 C 1511,9738 1511,9745 1512,9756 1513,9766 1513,9777 1513,9788 L 1514,9788 C 1534,9747 1570,9726 1622,9726 1661,9726 1691,9741 1713,9771 1734,9801 1745,9844 1745,9899 Z M 1654,9899 C 1654,9824 1631,9786 1585,9786 1562,9786 1544,9796 1532,9816 1519,9837 1513,9865 1513,9901 1513,9938 1519,9966 1532,9985 1544,10005 1562,10015 1584,10015 1631,10015 1654,9976 1654,9899 Z"/>
        </g>
       </g>
       <g class="com.sun.star.drawing.ClosedBezierShape">
        <g id="id27">
         <rect class="BoundingBox" stroke="none" fill="none" x="2102" y="9867" width="163" height="77"/>
         <path fill="rgb(255,255,255)" stroke="none" d="M 2103,9943 C 2103,9918 2103,9892 2103,9867 2156,9867 2210,9867 2264,9867 2264,9892 2264,9918 2264,9943 2210,9943 2156,9943 2103,9943 Z"/>
        </g>
       </g>
       <g class="com.sun.star.drawing.ClosedBezierShape">
        <g id="id28">
         <rect class="BoundingBox" stroke="none" fill="none" x="2602" y="9655" width="198" height="422"/>
         <path fill="rgb(255,255,255)" stroke="none" d="M 2725,10075 C 2699,10075 2680,10068 2666,10054 2652,10040 2645,10019 2645,9991 L 2645,9793 2603,9793 2603,9734 2649,9734 2677,9655 2731,9655 2731,9734 2795,9734 2795,9793 2731,9793 2731,9967 C 2731,9984 2734,9996 2741,10003 2747,10011 2756,10015 2769,10015 2776,10015 2786,10014 2799,10011 L 2799,10064 C 2777,10071 2753,10075 2725,10075 Z"/>
        </g>
       </g>
       <g class="com.sun.star.drawing.ClosedBezierShape">
        <g id="id29">
         <rect class="BoundingBox" stroke="none" fill="none" x="2915" y="9609" width="306" height="461"/>
         <path fill="rgb(255,255,255)" stroke="none" d="M 3001,9800 C 3013,9775 3028,9756 3046,9744 3063,9733 3085,9727 3109,9727 3145,9727 3172,9738 3191,9760 3210,9782 3220,9814 3220,9856 L 3220,10069 3133,10069 3133,9881 C 3133,9822 3113,9792 3073,9792 3052,9792 3035,9801 3022,9819 3009,9837 3002,9861 3002,9889 L 3002,10069 2915,10069 2915,9609 3002,9609 3002,9734 C 3002,9757 3002,9779 3000,9800 L 3001,9800 Z"/>
        </g>
       </g>
       <g class="com.sun.star.drawing.ClosedBezierShape">
        <g id="id30">
         <rect class="BoundingBox" stroke="none" fill="none" x="3368" y="9609" width="89" height="461"/>
         <path fill="rgb(255,255,255)" stroke="none" d="M 3368,9673 C 3368,9652 3368,9630 3368,9609 3397,9609 3426,9609 3455,9609 3455,9630 3455,9652 3455,9673 3426,9673 3397,9673 3368,9673 Z M 3368,10069 C 3368,9957 3368,9846 3368,9734 3397,9734 3426,9734 3455,9734 3455,9846 3455,9957 3455,10069 3426,10069 3397,10069 3368,10069 Z"/>
        </g>
       </g>
       <g class="com.sun.star.drawing.ClosedBezierShape">
        <g id="id31">
         <rect class="BoundingBox" stroke="none" fill="none" x="3607" y="9727" width="309" height="343"/>
         <path fill="rgb(255,255,255)" stroke="none" d="M 3828,10069 L 3828,9881 C 3828,9822 3808,9792 3768,9792 3747,9792 3730,9801 3717,9819 3704,9837 3697,9861 3697,9889 L 3697,10069 3610,10069 3610,9809 C 3610,9791 3610,9776 3610,9765 3609,9753 3608,9743 3608,9734 L 3691,9734 C 3692,9738 3692,9748 3693,9765 3694,9782 3695,9794 3695,9800 L 3696,9800 C 3708,9775 3723,9756 3741,9744 3758,9733 3780,9727 3804,9727 3840,9727 3867,9738 3886,9760 3905,9782 3915,9814 3915,9856 L 3915,10069 3828,10069 Z"/>
        </g>
       </g>
       <g class="com.sun.star.drawing.ClosedBezierShape">
        <g id="id32">
         <rect class="BoundingBox" stroke="none" fill="none" x="4064" y="9609" width="311" height="461"/>
         <path fill="rgb(255,255,255)" stroke="none" d="M 4278,10069 C 4249,10018 4219,9968 4189,9917 4176,9926 4164,9935 4151,9943 4151,9985 4151,10027 4151,10069 4122,10069 4093,10069 4064,10069 4064,9916 4064,9762 4064,9609 4093,9609 4122,9609 4151,9609 4151,9697 4151,9785 4151,9873 4191,9826 4231,9780 4271,9734 4302,9734 4333,9734 4365,9734 4325,9778 4286,9821 4247,9865 4289,9933 4331,10001 4374,10069 4342,10069 4310,10069 4278,10069 Z"/>
        </g>
       </g>
       <g class="com.sun.star.drawing.ClosedBezierShape">
        <g id="id33">
         <rect class="BoundingBox" stroke="none" fill="none" x="4701" y="9867" width="163" height="77"/>
         <path fill="rgb(255,255,255)" stroke="none" d="M 4702,9943 C 4702,9918 4702,9892 4702,9867 4755,9867 4809,9867 4863,9867 4863,9892 4863,9918 4863,9943 4809,9943 4755,9943 4702,9943 Z"/>
        </g>
       </g>
       <g class="com.sun.star.drawing.ClosedBezierShape">
        <g id="id34">
         <rect class="BoundingBox" stroke="none" fill="none" x="5218" y="9727" width="312" height="349"/>
         <path fill="rgb(255,255,255)" stroke="none" d="M 5378,10075 C 5327,10075 5288,10060 5260,10030 5233,9999 5219,9957 5219,9903 5219,9847 5233,9804 5261,9773 5289,9742 5328,9727 5379,9727 5419,9727 5451,9737 5477,9757 5503,9776 5519,9804 5526,9839 L 5438,9843 C 5436,9826 5429,9812 5420,9802 5410,9792 5396,9787 5377,9787 5333,9787 5310,9824 5310,9899 5310,9976 5333,10015 5379,10015 5395,10015 5409,10010 5420,9999 5431,9989 5438,9974 5441,9953 L 5528,9957 C 5525,9980 5517,10001 5504,10019 5490,10037 5473,10050 5451,10060 5430,10070 5405,10075 5378,10075 Z"/>
        </g>
       </g>
       <g class="com.sun.star.drawing.ClosedBezierShape">
        <g id="id35">
         <rect class="BoundingBox" stroke="none" fill="none" x="5654" y="9609" width="306" height="461"/>
         <path fill="rgb(255,255,255)" stroke="none" d="M 5740,9800 C 5752,9775 5767,9756 5785,9744 5802,9733 5824,9727 5848,9727 5884,9727 5911,9738 5930,9760 5949,9782 5959,9814 5959,9856 L 5959,10069 5872,10069 5872,9881 C 5872,9822 5852,9792 5812,9792 5791,9792 5774,9801 5761,9819 5748,9837 5741,9861 5741,9889 L 5741,10069 5654,10069 5654,9609 5741,9609 5741,9734 C 5741,9757 5741,9779 5739,9800 L 5740,9800 Z"/>
        </g>
       </g>
       <g class="com.sun.star.drawing.ClosedBezierShape">
        <g id="id36">
         <rect class="BoundingBox" stroke="none" fill="none" x="6081" y="9727" width="341" height="349"/>
         <path fill="rgb(255,255,255)" stroke="none" d="M 6185,10075 C 6152,10075 6127,10066 6109,10049 6091,10031 6082,10006 6082,9974 6082,9939 6093,9913 6116,9895 6138,9877 6171,9867 6214,9867 L 6286,9866 6286,9849 C 6286,9826 6282,9810 6275,9799 6267,9788 6255,9783 6237,9783 6221,9783 6209,9787 6202,9794 6194,9802 6189,9814 6188,9831 L 6097,9827 C 6102,9794 6117,9769 6142,9752 6166,9735 6199,9727 6241,9727 6283,9727 6316,9737 6339,9758 6362,9779 6373,9809 6373,9847 L 6373,9969 C 6373,9988 6375,10001 6380,10008 6384,10015 6391,10019 6401,10019 6407,10019 6414,10018 6420,10017 L 6420,10064 C 6415,10066 6410,10067 6406,10068 6402,10069 6398,10070 6394,10070 6390,10071 6385,10071 6381,10072 6376,10072 6370,10073 6364,10073 6342,10073 6326,10067 6316,10056 6305,10046 6299,10030 6297,10009 L 6295,10009 C 6271,10053 6234,10075 6185,10075 Z M 6286,9913 L 6242,9914 C 6221,9915 6207,9917 6198,9921 6190,9924 6184,9930 6179,9937 6175,9945 6172,9955 6172,9967 6172,9983 6176,9995 6183,10002 6191,10010 6201,10014 6213,10014 6226,10014 6239,10010 6250,10003 6261,9995 6270,9985 6277,9972 6283,9959 6286,9945 6286,9930 L 6286,9913 Z"/>
        </g>
       </g>
       <g class="com.sun.star.drawing.ClosedBezierShape">
        <g id="id37">
         <rect class="BoundingBox" stroke="none" fill="none" x="6519" y="9727" width="309" height="343"/>
         <path fill="rgb(255,255,255)" stroke="none" d="M 6740,10069 L 6740,9881 C 6740,9822 6720,9792 6680,9792 6659,9792 6642,9801 6629,9819 6616,9837 6609,9861 6609,9889 L 6609,10069 6522,10069 6522,9809 C 6522,9791 6522,9776 6522,9765 6521,9753 6520,9743 6520,9734 L 6603,9734 C 6604,9738 6604,9748 6605,9765 6606,9782 6607,9794 6607,9800 L 6608,9800 C 6620,9775 6635,9756 6653,9744 6670,9733 6692,9727 6716,9727 6752,9727 6779,9738 6798,9760 6817,9782 6827,9814 6827,9856 L 6827,10069 6740,10069 Z"/>
        </g>
       </g>
       <g class="com.sun.star.drawing.ClosedBezierShape">
        <g id="id38">
         <rect class="BoundingBox" stroke="none" fill="none" x="6958" y="9727" width="321" height="478"/>
         <path fill="rgb(255,255,255)" stroke="none" d="M 7117,10204 C 7076,10204 7043,10196 7018,10181 6993,10165 6978,10143 6972,10114 L 7059,10104 C 7062,10117 7069,10128 7079,10135 7089,10143 7103,10147 7119,10147 7144,10147 7161,10139 7172,10124 7184,10109 7189,10087 7189,10058 L 7189,10040 7190,10006 7189,10006 C 7170,10047 7134,10068 7081,10068 7042,10068 7012,10053 6990,10024 6969,9995 6958,9953 6958,9898 6958,9844 6969,9801 6991,9772 7013,9742 7046,9727 7088,9727 7137,9727 7170,9747 7189,9787 L 7191,9787 C 7191,9780 7191,9771 7192,9758 7193,9746 7194,9738 7195,9734 L 7278,9734 C 7276,9756 7276,9782 7276,9812 L 7276,10059 C 7276,10107 7262,10143 7235,10167 7208,10192 7169,10204 7117,10204 Z M 7190,9897 C 7190,9862 7184,9835 7171,9816 7159,9797 7141,9787 7119,9787 7072,9787 7049,9824 7049,9899 7049,9972 7072,10008 7118,10008 7141,10008 7159,9998 7171,9979 7184,9960 7190,9932 7190,9897 Z"/>
        </g>
       </g>
       <g class="com.sun.star.drawing.ClosedBezierShape">
        <g id="id39">
         <rect class="BoundingBox" stroke="none" fill="none" x="7409" y="9727" width="309" height="349"/>
         <path fill="rgb(255,255,255)" stroke="none" d="M 7567,10075 C 7516,10075 7477,10060 7450,10030 7423,10000 7410,9957 7410,9899 7410,9844 7424,9801 7451,9772 7478,9742 7517,9727 7568,9727 7616,9727 7653,9743 7678,9775 7704,9807 7716,9854 7716,9916 L 7716,9918 7501,9918 C 7501,9951 7507,9975 7519,9992 7531,10009 7549,10017 7571,10017 7602,10017 7621,10004 7629,9977 L 7711,9984 C 7688,10045 7639,10075 7567,10075 Z M 7567,9782 C 7546,9782 7530,9789 7519,9803 7508,9818 7502,9837 7502,9863 L 7632,9863 C 7630,9836 7624,9816 7612,9802 7601,9789 7586,9782 7567,9782 Z"/>
        </g>
       </g>
      </g>
      <g class="Group">
       <g class="com.sun.star.drawing.ClosedBezierShape">
        <g id="id40">
         <rect class="BoundingBox" stroke="none" fill="none" x="3288" y="2533" width="306" height="349"/>
         <path fill="rgb(255,255,255)" stroke="none" d="M 3593,2777 C 3593,2809 3580,2835 3553,2853 3527,2872 3490,2881 3443,2881 3397,2881 3362,2874 3337,2859 3313,2845 3296,2822 3288,2791 L 3365,2780 C 3369,2796 3377,2807 3387,2813 3398,2820 3417,2823 3443,2823 3467,2823 3485,2820 3496,2814 3507,2808 3513,2798 3513,2785 3513,2774 3508,2766 3499,2759 3491,2753 3475,2748 3454,2743 3405,2734 3371,2725 3354,2716 3337,2708 3324,2697 3315,2684 3306,2670 3302,2654 3302,2635 3302,2603 3314,2578 3339,2560 3363,2542 3398,2533 3444,2533 3483,2533 3516,2541 3540,2556 3564,2572 3579,2594 3585,2624 L 3508,2632 C 3506,2618 3499,2608 3490,2601 3480,2594 3465,2591 3444,2591 3423,2591 3407,2594 3397,2599 3387,2604 3382,2613 3382,2625 3382,2635 3386,2643 3394,2648 3402,2654 3415,2659 3434,2663 3460,2668 3483,2673 3504,2679 3524,2685 3540,2692 3553,2699 3565,2707 3575,2717 3582,2730 3589,2742 3593,2758 3593,2777 Z"/>
        </g>
       </g>
       <g class="com.sun.star.drawing.ClosedBezierShape">
        <g id="id41">
         <rect class="BoundingBox" stroke="none" fill="none" x="3624" y="2461" width="198" height="422"/>
         <path fill="rgb(255,255,255)" stroke="none" d="M 3747,2881 C 3721,2881 3702,2874 3688,2860 3674,2846 3667,2825 3667,2797 L 3667,2599 3625,2599 3625,2540 3671,2540 3699,2461 3753,2461 3753,2540 3817,2540 3817,2599 3753,2599 3753,2773 C 3753,2790 3756,2802 3763,2809 3769,2817 3778,2821 3791,2821 3798,2821 3808,2820 3821,2817 L 3821,2870 C 3799,2877 3775,2881 3747,2881 Z"/>
        </g>
       </g>
       <g class="com.sun.star.drawing.ClosedBezierShape">
        <g id="id42">
         <rect class="BoundingBox" stroke="none" fill="none" x="3853" y="2533" width="341" height="349"/>
         <path fill="rgb(255,255,255)" stroke="none" d="M 4192,2707 C 4192,2761 4177,2804 4147,2835 4117,2866 4075,2881 4022,2881 3969,2881 3928,2865 3898,2834 3869,2803 3854,2761 3854,2707 3854,2653 3869,2610 3898,2579 3928,2548 3970,2533 4023,2533 4078,2533 4120,2548 4149,2578 4178,2608 4192,2651 4192,2707 Z M 4101,2707 C 4101,2667 4095,2638 4081,2620 4068,2602 4050,2593 4025,2593 3972,2593 3945,2631 3945,2707 3945,2744 3952,2772 3965,2792 3978,2811 3996,2821 4021,2821 4074,2821 4101,2783 4101,2707 Z"/>
        </g>
       </g>
       <g class="com.sun.star.drawing.ClosedBezierShape">
        <g id="id43">
         <rect class="BoundingBox" stroke="none" fill="none" x="4260" y="2532" width="322" height="476"/>
         <path fill="rgb(255,255,255)" stroke="none" d="M 4581,2705 C 4581,2761 4570,2805 4547,2835 4525,2866 4493,2881 4452,2881 4429,2881 4408,2876 4391,2866 4373,2855 4360,2841 4350,2821 L 4349,2821 C 4350,2828 4350,2847 4350,2878 L 4350,3007 4263,3007 4263,2617 C 4263,2586 4263,2560 4261,2540 L 4346,2540 C 4347,2544 4347,2551 4348,2562 4349,2572 4349,2583 4349,2594 L 4350,2594 C 4370,2553 4406,2532 4458,2532 4497,2532 4527,2547 4549,2577 4570,2607 4581,2650 4581,2705 Z M 4490,2705 C 4490,2630 4467,2592 4421,2592 4398,2592 4380,2602 4368,2622 4355,2643 4349,2671 4349,2707 4349,2744 4355,2772 4368,2791 4380,2811 4398,2821 4420,2821 4467,2821 4490,2782 4490,2705 Z"/>
        </g>
       </g>
      </g>
      <g class="Group">
       <g class="com.sun.star.drawing.ClosedBezierShape">
        <g id="id44">
         <rect class="BoundingBox" stroke="none" fill="none" x="2892" y="8175" width="499" height="336"/>
         <path fill="rgb(255,255,255)" stroke="none" d="M 3301,8510 L 3209,8510 3156,8306 C 3153,8296 3148,8274 3141,8237 L 3125,8306 3071,8510 2979,8510 2892,8175 2974,8175 3029,8431 3034,8408 3041,8372 3094,8175 3187,8175 3239,8372 C 3242,8383 3246,8402 3252,8431 L 3260,8390 3309,8175 3389,8175 3301,8510 Z"/>
        </g>
       </g>
       <g class="com.sun.star.drawing.ClosedBezierShape">
        <g id="id45">
         <rect class="BoundingBox" stroke="none" fill="none" x="3407" y="8167" width="341" height="350"/>
         <path fill="rgb(255,255,255)" stroke="none" d="M 3511,8516 C 3478,8516 3453,8507 3435,8490 3417,8472 3408,8447 3408,8415 3408,8380 3419,8354 3442,8336 3464,8318 3497,8308 3540,8308 L 3612,8307 3612,8290 C 3612,8267 3608,8251 3601,8240 3593,8229 3581,8224 3563,8224 3547,8224 3535,8228 3528,8235 3520,8243 3515,8255 3514,8272 L 3423,8268 C 3428,8235 3443,8210 3468,8193 3492,8176 3525,8168 3567,8168 3609,8168 3642,8178 3665,8199 3688,8220 3699,8250 3699,8288 L 3699,8410 C 3699,8429 3701,8442 3706,8449 3710,8456 3717,8460 3727,8460 3733,8460 3740,8459 3746,8458 L 3746,8505 C 3741,8507 3736,8508 3732,8509 3728,8510 3724,8511 3720,8511 3716,8512 3711,8512 3707,8513 3702,8513 3696,8514 3690,8514 3668,8514 3652,8508 3642,8497 3631,8487 3625,8471 3623,8450 L 3621,8450 C 3597,8494 3560,8516 3511,8516 Z M 3612,8354 L 3568,8355 C 3547,8356 3533,8358 3524,8362 3516,8365 3510,8371 3505,8378 3501,8386 3498,8396 3498,8408 3498,8424 3502,8436 3509,8443 3517,8451 3527,8455 3539,8455 3552,8455 3565,8451 3576,8444 3587,8436 3596,8426 3603,8413 3609,8400 3612,8386 3612,8371 L 3612,8354 Z"/>
        </g>
       </g>
       <g class="com.sun.star.drawing.ClosedBezierShape">
        <g id="id46">
         <rect class="BoundingBox" stroke="none" fill="none" x="3785" y="8050" width="89" height="461"/>
         <path fill="rgb(255,255,255)" stroke="none" d="M 3785,8114 C 3785,8093 3785,8071 3785,8050 3814,8050 3843,8050 3872,8050 3872,8071 3872,8093 3872,8114 3843,8114 3814,8114 3785,8114 Z M 3785,8510 C 3785,8398 3785,8287 3785,8175 3814,8175 3843,8175 3872,8175 3872,8287 3872,8398 3872,8510 3843,8510 3814,8510 3785,8510 Z"/>
        </g>
       </g>
       <g class="com.sun.star.drawing.ClosedBezierShape">
        <g id="id47">
         <rect class="BoundingBox" stroke="none" fill="none" x="3925" y="8096" width="198" height="422"/>
         <path fill="rgb(255,255,255)" stroke="none" d="M 4048,8516 C 4022,8516 4003,8509 3989,8495 3975,8481 3968,8460 3968,8432 L 3968,8234 3926,8234 3926,8175 3972,8175 4000,8096 4054,8096 4054,8175 4118,8175 4118,8234 4054,8234 4054,8408 C 4054,8425 4057,8437 4064,8444 4070,8452 4079,8456 4092,8456 4099,8456 4109,8455 4122,8452 L 4122,8505 C 4100,8512 4076,8516 4048,8516 Z"/>
        </g>
       </g>
       <g class="com.sun.star.drawing.ClosedBezierShape">
        <g id="id48">
         <rect class="BoundingBox" stroke="none" fill="none" x="4174" y="8050" width="89" height="461"/>
         <path fill="rgb(255,255,255)" stroke="none" d="M 4174,8114 C 4174,8093 4174,8071 4174,8050 4203,8050 4232,8050 4261,8050 4261,8071 4261,8093 4261,8114 4232,8114 4203,8114 4174,8114 Z M 4174,8510 C 4174,8398 4174,8287 4174,8175 4203,8175 4232,8175 4261,8175 4261,8287 4261,8398 4261,8510 4232,8510 4203,8510 4174,8510 Z"/>
        </g>
       </g>
       <g class="com.sun.star.drawing.ClosedBezierShape">
        <g id="id49">
         <rect class="BoundingBox" stroke="none" fill="none" x="4349" y="8168" width="309" height="343"/>
         <path fill="rgb(255,255,255)" stroke="none" d="M 4570,8510 L 4570,8322 C 4570,8263 4550,8233 4510,8233 4489,8233 4472,8242 4459,8260 4446,8278 4439,8302 4439,8330 L 4439,8510 4352,8510 4352,8250 C 4352,8232 4352,8217 4352,8206 4351,8194 4350,8184 4350,8175 L 4433,8175 C 4434,8179 4434,8189 4435,8206 4436,8223 4437,8235 4437,8241 L 4438,8241 C 4450,8216 4465,8197 4483,8185 4500,8174 4522,8168 4546,8168 4582,8168 4609,8179 4628,8201 4647,8223 4657,8255 4657,8297 L 4657,8510 4570,8510 Z"/>
        </g>
       </g>
       <g class="com.sun.star.drawing.ClosedBezierShape">
        <g id="id50">
         <rect class="BoundingBox" stroke="none" fill="none" x="4723" y="8168" width="321" height="479"/>
         <path fill="rgb(255,255,255)" stroke="none" d="M 4882,8645 C 4841,8645 4808,8637 4783,8622 4758,8606 4743,8584 4737,8555 L 4824,8545 C 4827,8558 4834,8569 4844,8576 4854,8584 4868,8588 4884,8588 4909,8588 4926,8580 4937,8565 4949,8550 4954,8528 4954,8499 L 4954,8481 4955,8447 4954,8447 C 4935,8488 4899,8509 4846,8509 4807,8509 4777,8494 4755,8465 4734,8436 4723,8394 4723,8339 4723,8285 4734,8242 4756,8213 4778,8183 4811,8168 4853,8168 4902,8168 4935,8188 4954,8228 L 4956,8228 C 4956,8221 4956,8212 4957,8199 4958,8187 4959,8179 4960,8175 L 5043,8175 C 5041,8197 5041,8223 5041,8253 L 5041,8500 C 5041,8548 5027,8584 5000,8608 4973,8633 4934,8645 4882,8645 Z M 4955,8338 C 4955,8303 4949,8276 4936,8257 4924,8238 4906,8228 4884,8228 4837,8228 4814,8265 4814,8340 4814,8413 4837,8449 4883,8449 4906,8449 4924,8439 4936,8420 4949,8401 4955,8373 4955,8338 Z"/>
        </g>
       </g>
      </g>
      <g class="Group">
       <g class="com.sun.star.drawing.ClosedBezierShape">
        <g id="id51">
         <rect class="BoundingBox" stroke="none" fill="none" x="5752" y="7677" width="364" height="366"/>
         <path fill="rgb(255,255,255)" stroke="none" d="M 6087,7799 C 6110,7822 6118,7849 6113,7881 6107,7913 6088,7945 6054,7978 6022,8011 5992,8031 5964,8038 5937,8045 5909,8040 5882,8024 L 5928,7962 C 5942,7970 5955,7973 5967,7970 5979,7967 5995,7956 6013,7937 6031,7920 6041,7905 6045,7893 6048,7881 6045,7870 6036,7861 6028,7853 6019,7851 6008,7852 5998,7854 5983,7861 5965,7873 5923,7901 5893,7918 5875,7925 5857,7931 5840,7932 5825,7929 5809,7926 5794,7918 5780,7904 5758,7882 5749,7855 5754,7825 5758,7795 5777,7764 5809,7732 5837,7704 5865,7687 5893,7680 5922,7674 5948,7679 5973,7696 L 5924,7756 C 5913,7748 5901,7745 5890,7747 5878,7750 5865,7758 5850,7773 5835,7788 5826,7800 5823,7811 5819,7822 5822,7832 5830,7841 5837,7848 5845,7851 5855,7849 5865,7847 5877,7841 5893,7831 5916,7816 5936,7803 5955,7793 5973,7782 5989,7776 6003,7773 6018,7769 6032,7770 6046,7773 6060,7777 6073,7785 6087,7799 Z"/>
        </g>
       </g>
       <g class="com.sun.star.drawing.ClosedBezierShape">
        <g id="id52">
         <rect class="BoundingBox" stroke="none" fill="none" x="5938" y="7461" width="378" height="331"/>
         <path fill="rgb(255,255,255)" stroke="none" d="M 6269,7763 C 6251,7781 6232,7791 6213,7790 6193,7790 6173,7780 6153,7760 L 6014,7621 5983,7651 5942,7609 5975,7576 5938,7501 5977,7462 6033,7518 6078,7473 6119,7515 6074,7560 6198,7683 C 6209,7694 6220,7701 6230,7702 6240,7703 6249,7699 6258,7690 6263,7685 6269,7677 6276,7666 L 6314,7704 C 6304,7724 6289,7744 6269,7763 Z"/>
        </g>
       </g>
       <g class="com.sun.star.drawing.ClosedBezierShape">
        <g id="id53">
         <rect class="BoundingBox" stroke="none" fill="none" x="6163" y="7264" width="358" height="361"/>
         <path fill="rgb(255,255,255)" stroke="none" d="M 6461,7325 C 6499,7364 6519,7405 6519,7448 6520,7491 6501,7532 6464,7569 6427,7606 6387,7624 6344,7623 6301,7623 6260,7603 6222,7565 6184,7526 6164,7486 6163,7443 6162,7400 6181,7360 6219,7322 6258,7283 6298,7264 6339,7265 6381,7266 6421,7286 6461,7325 Z M 6396,7390 C 6368,7362 6343,7346 6321,7342 6299,7339 6280,7346 6262,7363 6225,7401 6233,7446 6286,7500 6313,7526 6337,7542 6360,7546 6383,7551 6403,7545 6420,7528 6458,7490 6450,7444 6396,7390 Z"/>
        </g>
       </g>
       <g class="com.sun.star.drawing.ClosedBezierShape">
        <g id="id54">
         <rect class="BoundingBox" stroke="none" fill="none" x="6391" y="6980" width="415" height="509"/>
         <path fill="rgb(255,255,255)" stroke="none" d="M 6735,7050 C 6775,7089 6797,7128 6803,7165 6809,7203 6797,7236 6768,7265 6751,7281 6733,7292 6714,7297 6694,7303 6674,7302 6654,7295 L 6653,7296 C 6658,7299 6672,7312 6694,7335 L 6785,7426 6724,7487 6448,7212 C 6426,7189 6407,7172 6392,7159 L 6451,7099 C 6455,7101 6461,7105 6469,7113 6477,7120 6485,7127 6492,7134 L 6493,7134 C 6478,7091 6489,7051 6525,7014 6553,6986 6585,6976 6621,6982 6658,6988 6696,7010 6735,7050 Z M 6670,7114 C 6617,7060 6574,7050 6542,7083 6525,7099 6520,7119 6525,7142 6531,7165 6547,7189 6573,7215 6598,7240 6622,7256 6645,7261 6668,7266 6687,7261 6703,7245 6736,7212 6725,7168 6670,7114 Z"/>
        </g>
       </g>
       <g class="com.sun.star.drawing.ClosedBezierShape">
        <g id="id55">
         <rect class="BoundingBox" stroke="none" fill="none" x="5955" y="8479" width="365" height="365"/>
         <path fill="rgb(255,255,255)" stroke="none" d="M 6291,8601 C 6313,8624 6322,8651 6316,8683 6311,8715 6291,8747 6258,8780 6225,8813 6195,8833 6168,8840 6140,8847 6113,8842 6085,8826 L 6131,8764 C 6146,8772 6159,8775 6171,8772 6183,8769 6198,8758 6217,8739 6234,8722 6245,8707 6248,8695 6252,8683 6249,8672 6240,8663 6232,8655 6223,8652 6212,8654 6201,8656 6187,8663 6168,8675 6127,8703 6097,8720 6079,8727 6061,8733 6044,8734 6028,8731 6012,8728 5998,8720 5984,8706 5961,8683 5952,8657 5957,8627 5962,8597 5980,8566 6012,8534 6041,8506 6069,8488 6097,8482 6125,8476 6152,8481 6177,8498 L 6128,8558 C 6117,8550 6105,8547 6093,8549 6082,8551 6068,8560 6053,8575 6039,8589 6030,8602 6026,8613 6023,8624 6025,8634 6034,8643 6041,8650 6049,8652 6059,8651 6068,8649 6081,8643 6097,8632 6119,8618 6140,8605 6158,8595 6177,8584 6193,8578 6207,8574 6221,8571 6235,8571 6249,8575 6263,8578 6277,8587 6291,8601 Z"/>
        </g>
       </g>
       <g class="com.sun.star.drawing.ClosedBezierShape">
        <g id="id56">
         <rect class="BoundingBox" stroke="none" fill="none" x="6167" y="8173" width="456" height="415"/>
         <path fill="rgb(255,255,255)" stroke="none" d="M 6229,8327 L 6362,8459 C 6404,8501 6439,8508 6467,8480 6482,8465 6487,8446 6484,8424 6480,8403 6468,8382 6448,8362 L 6321,8235 6383,8173 6567,8357 C 6587,8377 6605,8394 6622,8408 L 6563,8467 C 6540,8448 6523,8433 6513,8422 L 6512,8423 C 6522,8450 6524,8473 6520,8494 6515,8515 6504,8534 6487,8551 6462,8576 6435,8588 6406,8586 6377,8584 6348,8568 6318,8539 L 6168,8388 6229,8327 Z"/>
        </g>
       </g>
       <g class="com.sun.star.drawing.ClosedBezierShape">
        <g id="id57">
         <rect class="BoundingBox" stroke="none" fill="none" x="6358" y="7959" width="389" height="388"/>
         <path fill="rgb(255,255,255)" stroke="none" d="M 6404,8066 C 6389,8051 6374,8036 6359,8021 6379,8000 6400,7980 6420,7959 6435,7974 6450,7989 6466,8004 6445,8025 6424,8045 6404,8066 Z M 6684,8346 C 6605,8267 6526,8188 6447,8109 6468,8089 6488,8068 6509,8047 6588,8126 6667,8205 6746,8284 6725,8305 6704,8325 6684,8346 Z"/>
        </g>
       </g>
       <g class="com.sun.star.drawing.ClosedBezierShape">
        <g id="id58">
         <rect class="BoundingBox" stroke="none" fill="none" x="6616" y="7829" width="349" height="349"/>
         <path fill="rgb(255,255,255)" stroke="none" d="M 6913,8125 C 6877,8161 6839,8178 6798,8177 6757,8175 6717,8155 6679,8116 6639,8077 6619,8037 6617,7995 6614,7954 6632,7915 6668,7878 6696,7851 6726,7834 6758,7830 6790,7826 6821,7834 6850,7854 L 6791,7919 C 6778,7909 6764,7903 6749,7903 6735,7903 6722,7909 6709,7922 6677,7954 6688,7996 6741,8049 6795,8104 6839,8115 6871,8083 6883,8071 6889,8057 6889,8042 6890,8027 6884,8011 6871,7995 L 6936,7936 C 6950,7954 6959,7974 6962,7997 6965,8019 6963,8041 6954,8063 6946,8086 6932,8106 6913,8125 Z"/>
        </g>
       </g>
       <g class="com.sun.star.drawing.ClosedBezierShape">
        <g id="id59">
         <rect class="BoundingBox" stroke="none" fill="none" x="6732" y="7585" width="389" height="388"/>
         <path fill="rgb(255,255,255)" stroke="none" d="M 6778,7692 C 6763,7677 6748,7662 6733,7647 6753,7626 6774,7606 6794,7585 6809,7600 6824,7615 6840,7630 6819,7651 6799,7671 6778,7692 Z M 7058,7972 C 6979,7893 6900,7814 6821,7735 6842,7714 6862,7694 6883,7673 6962,7752 7041,7831 7120,7910 7099,7931 7079,7951 7058,7972 Z"/>
        </g>
       </g>
       <g class="com.sun.star.drawing.ClosedBezierShape">
        <g id="id60">
         <rect class="BoundingBox" stroke="none" fill="none" x="6983" y="7309" width="416" height="503"/>
         <path fill="rgb(255,255,255)" stroke="none" d="M 7338,7692 C 7335,7691 7329,7686 7319,7678 7309,7670 7302,7663 7296,7657 L 7295,7658 C 7310,7700 7299,7739 7262,7776 7234,7804 7202,7815 7165,7808 7129,7802 7091,7779 7052,7740 7013,7701 6991,7663 6985,7625 6980,7588 6991,7555 7020,7526 7037,7509 7055,7498 7074,7493 7094,7488 7114,7489 7134,7496 L 7134,7496 7095,7457 7009,7371 7070,7309 7344,7583 C 7358,7597 7376,7614 7397,7633 L 7338,7692 Z M 7214,7575 C 7189,7549 7165,7534 7143,7528 7120,7523 7101,7529 7084,7546 7068,7562 7062,7581 7067,7603 7073,7624 7089,7648 7116,7676 7170,7730 7213,7740 7246,7708 7262,7692 7267,7672 7262,7649 7257,7626 7241,7601 7214,7575 Z"/>
        </g>
       </g>
       <g class="com.sun.star.drawing.ClosedBezierShape">
        <g id="id61">
         <rect class="BoundingBox" stroke="none" fill="none" x="7263" y="7186" width="350" height="344"/>
         <path fill="rgb(255,255,255)" stroke="none" d="M 7560,7478 C 7525,7514 7487,7531 7446,7529 7406,7527 7366,7505 7325,7465 7286,7426 7266,7386 7264,7345 7262,7305 7279,7267 7315,7231 7349,7197 7386,7182 7427,7187 7468,7192 7510,7216 7553,7259 L 7555,7261 7403,7413 C 7426,7436 7448,7450 7468,7453 7489,7456 7507,7450 7522,7434 7544,7412 7548,7389 7535,7365 L 7598,7311 C 7624,7371 7612,7427 7560,7478 Z M 7353,7271 C 7339,7285 7333,7301 7335,7319 7337,7337 7347,7355 7365,7374 L 7457,7282 C 7436,7264 7417,7254 7400,7253 7382,7251 7367,7257 7353,7271 Z"/>
        </g>
       </g>
      </g>
      <g class="Group">
       <g class="com.sun.star.drawing.ClosedBezierShape">
        <g id="id62">
         <rect class="BoundingBox" stroke="none" fill="none" x="792" y="3100" width="364" height="366"/>
         <path fill="rgb(255,255,255)" stroke="none" d="M 1127,3222 C 1150,3245 1158,3272 1153,3304 1147,3336 1128,3368 1094,3401 1062,3434 1032,3454 1004,3461 977,3468 949,3463 922,3447 L 968,3385 C 982,3393 995,3396 1007,3393 1019,3390 1035,3379 1053,3360 1071,3343 1081,3328 1085,3316 1088,3304 1085,3293 1076,3284 1068,3276 1059,3274 1048,3275 1038,3277 1023,3284 1005,3296 963,3324 933,3341 915,3348 897,3354 880,3355 865,3352 849,3349 834,3341 820,3327 798,3305 789,3278 794,3248 798,3218 817,3187 849,3155 877,3127 905,3110 933,3103 962,3097 988,3102 1013,3119 L 964,3179 C 953,3171 941,3168 930,3170 918,3173 905,3181 890,3196 875,3211 866,3223 863,3234 859,3245 862,3255 870,3264 877,3271 885,3274 895,3272 905,3270 917,3264 933,3254 956,3239 976,3226 995,3216 1013,3205 1029,3199 1043,3196 1058,3192 1072,3193 1086,3196 1100,3200 1113,3208 1127,3222 Z"/>
        </g>
       </g>
       <g class="com.sun.star.drawing.ClosedBezierShape">
        <g id="id63">
         <rect class="BoundingBox" stroke="none" fill="none" x="978" y="2884" width="378" height="331"/>
         <path fill="rgb(255,255,255)" stroke="none" d="M 1309,3186 C 1291,3204 1272,3214 1253,3213 1233,3213 1213,3203 1193,3183 L 1054,3044 1023,3074 982,3032 1015,2999 978,2924 1017,2885 1073,2941 1118,2896 1159,2938 1114,2983 1238,3106 C 1249,3117 1260,3124 1270,3125 1280,3126 1289,3122 1298,3113 1303,3108 1309,3100 1316,3089 L 1354,3127 C 1344,3147 1329,3167 1309,3186 Z"/>
        </g>
       </g>
       <g class="com.sun.star.drawing.ClosedBezierShape">
        <g id="id64">
         <rect class="BoundingBox" stroke="none" fill="none" x="1203" y="2687" width="358" height="361"/>
         <path fill="rgb(255,255,255)" stroke="none" d="M 1501,2748 C 1539,2787 1559,2828 1559,2871 1560,2914 1541,2955 1504,2992 1467,3029 1427,3047 1384,3046 1341,3046 1300,3026 1262,2988 1224,2949 1204,2909 1203,2866 1202,2823 1221,2783 1259,2745 1298,2706 1338,2687 1379,2688 1421,2689 1461,2709 1501,2748 Z M 1436,2813 C 1408,2785 1383,2769 1361,2765 1339,2762 1320,2769 1302,2786 1265,2824 1273,2869 1326,2923 1353,2949 1377,2965 1400,2969 1423,2974 1443,2968 1460,2951 1498,2913 1490,2867 1436,2813 Z"/>
        </g>
       </g>
       <g class="com.sun.star.drawing.ClosedBezierShape">
        <g id="id65">
         <rect class="BoundingBox" stroke="none" fill="none" x="1431" y="2403" width="415" height="509"/>
         <path fill="rgb(255,255,255)" stroke="none" d="M 1775,2473 C 1815,2512 1837,2551 1843,2588 1849,2626 1837,2659 1808,2688 1791,2704 1773,2715 1754,2720 1734,2726 1714,2725 1694,2718 L 1693,2719 C 1698,2722 1712,2735 1734,2758 L 1825,2849 1764,2910 1488,2635 C 1466,2612 1447,2595 1432,2582 L 1491,2522 C 1495,2524 1501,2528 1509,2536 1517,2543 1525,2550 1532,2557 L 1533,2557 C 1518,2514 1529,2474 1565,2437 1593,2409 1625,2399 1661,2405 1698,2411 1736,2433 1775,2473 Z M 1710,2537 C 1657,2483 1614,2473 1582,2506 1565,2522 1560,2542 1565,2565 1571,2588 1587,2612 1613,2638 1638,2663 1662,2679 1685,2684 1708,2689 1727,2684 1743,2668 1776,2635 1765,2591 1710,2537 Z"/>
        </g>
       </g>
       <g class="com.sun.star.drawing.ClosedBezierShape">
        <g id="id66">
         <rect class="BoundingBox" stroke="none" fill="none" x="1257" y="3641" width="364" height="365"/>
         <path fill="rgb(255,255,255)" stroke="none" d="M 1592,3762 C 1615,3785 1624,3812 1618,3844 1612,3876 1593,3908 1560,3942 1527,3974 1497,3994 1469,4001 1442,4008 1414,4004 1387,3988 L 1433,3925 C 1447,3933 1460,3936 1472,3933 1485,3930 1500,3919 1519,3901 1536,3883 1546,3869 1550,3856 1553,3844 1551,3833 1541,3824 1534,3817 1524,3814 1514,3816 1503,3818 1488,3825 1470,3837 1428,3865 1399,3882 1381,3888 1363,3894 1346,3896 1330,3893 1314,3890 1299,3881 1286,3867 1263,3845 1254,3818 1259,3788 1264,3758 1282,3727 1314,3695 1342,3667 1370,3650 1399,3644 1427,3637 1453,3643 1478,3659 L 1430,3720 C 1418,3712 1407,3709 1395,3711 1383,3713 1370,3721 1355,3736 1340,3751 1331,3764 1328,3775 1324,3786 1327,3795 1336,3804 1342,3811 1351,3814 1360,3812 1370,3811 1383,3804 1399,3794 1421,3779 1441,3766 1460,3756 1478,3746 1495,3739 1509,3736 1523,3733 1537,3733 1551,3736 1565,3740 1579,3748 1592,3762 Z"/>
        </g>
       </g>
       <g class="com.sun.star.drawing.ClosedBezierShape">
        <g id="id67">
         <rect class="BoundingBox" stroke="none" fill="none" x="1384" y="3396" width="389" height="389"/>
         <path fill="rgb(255,255,255)" stroke="none" d="M 1430,3503 C 1415,3488 1400,3473 1385,3458 1405,3437 1426,3417 1446,3396 1461,3411 1476,3426 1491,3441 1471,3462 1450,3483 1430,3503 Z M 1710,3783 C 1631,3704 1552,3625 1473,3546 1493,3526 1514,3505 1535,3485 1613,3564 1692,3643 1771,3721 1751,3742 1730,3763 1710,3783 Z"/>
        </g>
       </g>
       <g class="com.sun.star.drawing.ClosedBezierShape">
        <g id="id68">
         <rect class="BoundingBox" stroke="none" fill="none" x="1510" y="3270" width="389" height="389"/>
         <path fill="rgb(255,255,255)" stroke="none" d="M 1836,3657 C 1727,3549 1619,3440 1510,3332 1531,3311 1551,3291 1572,3270 1680,3379 1789,3487 1897,3596 1877,3616 1856,3637 1836,3657 Z"/>
        </g>
       </g>
       <g class="com.sun.star.drawing.ClosedBezierShape">
        <g id="id69">
         <rect class="BoundingBox" stroke="none" fill="none" x="1770" y="3126" width="358" height="360"/>
         <path fill="rgb(255,255,255)" stroke="none" d="M 2068,3187 C 2106,3225 2126,3266 2126,3309 2127,3352 2108,3393 2071,3431 2034,3468 1994,3486 1951,3485 1908,3484 1867,3464 1829,3426 1791,3388 1771,3347 1770,3304 1770,3262 1788,3221 1826,3183 1865,3145 1905,3126 1946,3126 1988,3127 2028,3147 2068,3187 Z M 2003,3251 C 1975,3223 1950,3207 1928,3204 1907,3200 1887,3207 1869,3225 1832,3262 1840,3308 1893,3361 1920,3388 1944,3403 1967,3408 1990,3412 2010,3406 2028,3389 2065,3351 2057,3305 2003,3251 Z"/>
        </g>
       </g>
       <g class="com.sun.star.drawing.ClosedBezierShape">
        <g id="id70">
         <rect class="BoundingBox" stroke="none" fill="none" x="2032" y="2866" width="364" height="365"/>
         <path fill="rgb(255,255,255)" stroke="none" d="M 2367,2987 C 2390,3010 2399,3037 2393,3069 2387,3101 2368,3134 2335,3167 2302,3199 2272,3219 2244,3226 2217,3233 2189,3229 2162,3213 L 2208,3150 C 2222,3158 2235,3161 2247,3158 2260,3155 2275,3144 2294,3126 2311,3108 2321,3094 2325,3081 2328,3069 2326,3059 2316,3049 2309,3042 2299,3039 2289,3041 2278,3043 2263,3050 2245,3062 2203,3090 2174,3107 2156,3113 2137,3119 2121,3121 2105,3118 2089,3115 2074,3106 2061,3092 2038,3070 2029,3043 2034,3013 2039,2983 2057,2952 2089,2920 2117,2892 2145,2875 2174,2869 2202,2862 2228,2868 2253,2884 L 2205,2945 C 2193,2937 2182,2934 2170,2936 2158,2938 2145,2946 2130,2961 2115,2976 2106,2989 2103,3000 2099,3011 2102,3021 2111,3029 2117,3036 2126,3039 2135,3037 2145,3036 2158,3029 2174,3019 2196,3004 2216,2991 2235,2981 2253,2971 2270,2964 2284,2961 2298,2958 2312,2958 2326,2961 2340,2965 2354,2973 2367,2987 Z"/>
        </g>
       </g>
      </g>
      <g class="Group">
       <g class="com.sun.star.drawing.ClosedBezierShape">
        <g id="id71">
         <rect class="BoundingBox" stroke="none" fill="none" x="6235" y="2395" width="365" height="364"/>
         <path fill="rgb(255,255,255)" stroke="none" d="M 6478,2730 C 6455,2753 6427,2762 6395,2756 6364,2750 6331,2731 6298,2698 6265,2665 6246,2635 6238,2608 6231,2580 6236,2552 6252,2525 L 6314,2571 C 6306,2585 6304,2598 6306,2611 6309,2623 6320,2638 6339,2657 6356,2674 6371,2684 6383,2688 6395,2691 6406,2689 6415,2679 6423,2672 6426,2663 6424,2652 6422,2641 6415,2626 6403,2608 6375,2566 6358,2537 6352,2519 6345,2501 6344,2484 6347,2468 6350,2452 6358,2437 6372,2424 6395,2401 6421,2392 6451,2397 6481,2402 6512,2420 6544,2452 6573,2480 6590,2509 6596,2537 6602,2565 6597,2591 6580,2617 L 6520,2568 C 6528,2556 6531,2545 6529,2533 6527,2521 6518,2508 6503,2493 6489,2479 6476,2469 6465,2466 6454,2462 6444,2465 6435,2474 6428,2480 6426,2489 6427,2498 6429,2508 6435,2521 6446,2537 6461,2559 6473,2579 6484,2598 6494,2616 6501,2633 6504,2647 6507,2661 6507,2675 6503,2689 6500,2703 6491,2717 6478,2730 Z"/>
        </g>
       </g>
       <g class="com.sun.star.drawing.ClosedBezierShape">
        <g id="id72">
         <rect class="BoundingBox" stroke="none" fill="none" x="6485" y="2581" width="331" height="378"/>
         <path fill="rgb(255,255,255)" stroke="none" d="M 6513,2913 C 6495,2895 6486,2876 6486,2856 6486,2837 6496,2817 6516,2797 L 6656,2657 6626,2627 6667,2585 6701,2618 6776,2582 6814,2620 6758,2676 6803,2721 6762,2763 6717,2718 6594,2841 C 6582,2853 6576,2863 6575,2873 6573,2883 6578,2893 6587,2902 6592,2907 6599,2912 6610,2919 L 6572,2957 C 6552,2947 6532,2932 6513,2913 Z"/>
        </g>
       </g>
       <g class="com.sun.star.drawing.ClosedBezierShape">
        <g id="id73">
         <rect class="BoundingBox" stroke="none" fill="none" x="6652" y="2806" width="361" height="358"/>
         <path fill="rgb(255,255,255)" stroke="none" d="M 6951,3104 C 6912,3143 6872,3162 6828,3163 6785,3163 6745,3145 6707,3107 6670,3070 6652,3030 6653,2987 6654,2944 6673,2903 6712,2865 6750,2827 6790,2807 6833,2807 6876,2806 6917,2824 6954,2862 6993,2901 7012,2941 7011,2983 7011,3024 6991,3065 6951,3104 Z M 6887,3040 C 6915,3012 6931,2987 6934,2965 6937,2943 6930,2923 6913,2905 6875,2868 6830,2876 6776,2930 6750,2956 6735,2981 6730,3004 6725,3026 6732,3047 6749,3064 6787,3102 6833,3094 6887,3040 Z"/>
        </g>
       </g>
       <g class="com.sun.star.drawing.ClosedBezierShape">
        <g id="id74">
         <rect class="BoundingBox" stroke="none" fill="none" x="6788" y="3034" width="510" height="415"/>
         <path fill="rgb(255,255,255)" stroke="none" d="M 7227,3378 C 7187,3418 7149,3441 7111,3446 7074,3452 7041,3440 7012,3411 6995,3395 6984,3377 6979,3357 6974,3337 6975,3318 6982,3297 L 6980,3296 C 6977,3301 6964,3315 6942,3337 L 6851,3429 6789,3367 7065,3091 C 7087,3069 7105,3050 7117,3035 L 7177,3095 C 7175,3098 7171,3104 7164,3112 7157,3120 7149,3128 7142,3135 L 7143,3136 C 7186,3121 7226,3132 7262,3169 7290,3196 7301,3228 7295,3265 7289,3301 7266,3339 7227,3378 Z M 7163,3314 C 7216,3260 7226,3218 7194,3185 7177,3169 7158,3163 7135,3169 7112,3174 7087,3190 7061,3216 7036,3241 7020,3266 7015,3288 7010,3311 7015,3330 7031,3346 7064,3379 7108,3368 7163,3314 Z"/>
        </g>
       </g>
       <g class="com.sun.star.drawing.ClosedBezierShape">
        <g id="id75">
         <rect class="BoundingBox" stroke="none" fill="none" x="5547" y="2727" width="370" height="422"/>
         <path fill="rgb(255,255,255)" stroke="none" d="M 5583,2988 C 5560,2965 5548,2941 5548,2916 5548,2891 5559,2867 5581,2844 5606,2819 5632,2809 5661,2812 5690,2815 5720,2832 5751,2862 L 5803,2912 5815,2900 C 5830,2884 5839,2870 5842,2857 5844,2844 5839,2831 5826,2819 5815,2807 5804,2802 5793,2802 5783,2802 5771,2807 5758,2818 L 5696,2750 C 5723,2731 5751,2724 5781,2729 5810,2735 5839,2752 5869,2782 5899,2812 5914,2842 5916,2873 5917,2904 5904,2933 5877,2960 L 5791,3047 C 5778,3060 5770,3071 5768,3079 5766,3087 5768,3094 5775,3101 5780,3106 5785,3110 5790,3114 L 5757,3147 C 5752,3144 5748,3142 5744,3140 5741,3137 5737,3135 5734,3133 5731,3130 5727,3127 5723,3124 5720,3121 5716,3118 5712,3113 5696,3098 5688,3083 5689,3068 5689,3053 5696,3037 5709,3021 L 5708,3020 C 5659,3033 5618,3023 5583,2988 Z M 5769,2946 L 5737,2915 C 5722,2901 5710,2892 5702,2889 5693,2885 5685,2885 5676,2887 5668,2889 5659,2894 5651,2903 5639,2914 5634,2925 5633,2936 5633,2947 5637,2956 5646,2965 5655,2974 5667,2981 5680,2983 5693,2986 5707,2985 5721,2980 5734,2976 5746,2968 5757,2958 L 5769,2946 Z"/>
        </g>
       </g>
       <g class="com.sun.star.drawing.ClosedBezierShape">
        <g id="id76">
         <rect class="BoundingBox" stroke="none" fill="none" x="5778" y="2852" width="418" height="501"/>
         <path fill="rgb(255,255,255)" stroke="none" d="M 6125,3282 C 6086,3322 6047,3344 6010,3350 5972,3356 5939,3344 5910,3315 5893,3298 5882,3280 5877,3261 5872,3241 5873,3221 5880,3201 L 5880,3200 C 5875,3205 5868,3212 5858,3220 5848,3229 5842,3234 5839,3236 L 5779,3176 C 5794,3163 5812,3146 5835,3123 L 6106,2852 6167,2914 6077,3004 6038,3042 6038,3043 C 6083,3026 6123,3036 6160,3073 6188,3101 6199,3133 6193,3170 6186,3206 6164,3243 6125,3282 Z M 6061,3218 C 6088,3191 6104,3167 6109,3146 6114,3125 6108,3106 6092,3090 6075,3073 6055,3068 6033,3073 6010,3078 5986,3094 5959,3120 5934,3145 5919,3169 5913,3192 5908,3214 5913,3234 5930,3251 5963,3283 6006,3272 6061,3218 Z"/>
        </g>
       </g>
       <g class="com.sun.star.drawing.ClosedBezierShape">
        <g id="id77">
         <rect class="BoundingBox" stroke="none" fill="none" x="6091" y="3212" width="415" height="456"/>
         <path fill="rgb(255,255,255)" stroke="none" d="M 6351,3274 L 6219,3407 C 6177,3449 6170,3484 6198,3512 6213,3527 6232,3532 6254,3529 6275,3525 6296,3513 6316,3493 L 6443,3366 6505,3428 6321,3612 C 6301,3632 6284,3650 6270,3667 L 6211,3608 C 6230,3585 6245,3568 6256,3558 L 6255,3557 C 6228,3567 6205,3569 6184,3565 6163,3560 6144,3549 6127,3532 6102,3507 6090,3480 6092,3451 6094,3422 6110,3393 6139,3363 L 6290,3213 6351,3274 Z"/>
        </g>
       </g>
       <g class="com.sun.star.drawing.ClosedBezierShape">
        <g id="id78">
         <rect class="BoundingBox" stroke="none" fill="none" x="6358" y="3524" width="365" height="364"/>
         <path fill="rgb(255,255,255)" stroke="none" d="M 6601,3859 C 6578,3882 6550,3890 6518,3885 6487,3879 6454,3859 6421,3826 6388,3794 6369,3764 6362,3736 6354,3708 6359,3681 6375,3654 L 6437,3700 C 6429,3714 6427,3727 6430,3739 6432,3751 6443,3767 6462,3785 6479,3803 6494,3813 6506,3816 6518,3820 6529,3817 6538,3808 6546,3800 6549,3791 6547,3780 6545,3769 6538,3755 6526,3737 6498,3695 6481,3665 6475,3647 6469,3629 6467,3612 6470,3596 6473,3581 6481,3566 6495,3552 6518,3530 6544,3521 6574,3525 6604,3530 6635,3549 6667,3581 6696,3609 6713,3637 6719,3665 6725,3693 6720,3720 6703,3745 L 6643,3696 C 6651,3685 6654,3673 6652,3662 6650,3650 6641,3637 6626,3622 6612,3607 6599,3598 6588,3594 6577,3591 6567,3593 6558,3602 6551,3609 6549,3617 6550,3627 6552,3637 6558,3649 6569,3665 6584,3688 6596,3708 6607,3726 6617,3745 6624,3761 6627,3775 6630,3790 6630,3804 6626,3818 6623,3831 6614,3845 6601,3859 Z"/>
        </g>
       </g>
       <g class="com.sun.star.drawing.ClosedBezierShape">
        <g id="id79">
         <rect class="BoundingBox" stroke="none" fill="none" x="6622" y="3782" width="345" height="349"/>
         <path fill="rgb(255,255,255)" stroke="none" d="M 6673,4078 C 6637,4043 6621,4005 6623,3965 6625,3924 6646,3884 6686,3843 6726,3804 6765,3784 6806,3782 6846,3781 6884,3798 6920,3833 6954,3867 6969,3905 6964,3945 6960,3986 6935,4028 6892,4072 L 6890,4073 6738,3921 C 6715,3944 6702,3966 6698,3986 6695,4007 6701,4025 6717,4041 6739,4062 6762,4067 6787,4053 L 6840,4117 C 6780,4143 6725,4130 6673,4078 Z M 6880,3871 C 6866,3857 6850,3851 6832,3853 6814,3855 6796,3865 6777,3883 L 6869,3975 C 6887,3955 6897,3936 6898,3918 6900,3900 6894,3885 6880,3871 Z"/>
        </g>
       </g>
      </g>
      <g class="Group">
       <g class="com.sun.star.drawing.ClosedBezierShape">
        <g id="id80">
         <rect class="BoundingBox" stroke="none" fill="none" x="1157" y="7040" width="366" height="364"/>
         <path fill="rgb(255,255,255)" stroke="none" d="M 1400,7375 C 1377,7398 1350,7406 1318,7401 1286,7395 1254,7376 1221,7342 1188,7310 1168,7280 1161,7252 1154,7225 1159,7197 1175,7170 L 1237,7216 C 1229,7230 1226,7243 1229,7255 1232,7267 1243,7283 1262,7301 1279,7319 1294,7329 1306,7333 1318,7336 1329,7333 1338,7324 1346,7316 1348,7307 1347,7296 1345,7286 1338,7271 1326,7253 1298,7211 1281,7181 1274,7163 1268,7145 1267,7128 1270,7113 1273,7097 1281,7082 1295,7068 1317,7046 1344,7037 1374,7042 1404,7046 1435,7065 1467,7097 1495,7125 1512,7153 1519,7181 1525,7210 1520,7236 1503,7261 L 1443,7212 C 1451,7201 1454,7189 1452,7178 1449,7166 1441,7153 1426,7138 1411,7123 1399,7114 1388,7111 1377,7107 1367,7110 1358,7118 1351,7125 1348,7133 1350,7143 1352,7153 1358,7165 1368,7181 1383,7204 1396,7224 1406,7243 1417,7261 1423,7277 1426,7291 1430,7306 1429,7320 1426,7334 1422,7348 1414,7361 1400,7375 Z"/>
        </g>
       </g>
       <g class="com.sun.star.drawing.ClosedBezierShape">
        <g id="id81">
         <rect class="BoundingBox" stroke="none" fill="none" x="1408" y="7226" width="331" height="378"/>
         <path fill="rgb(255,255,255)" stroke="none" d="M 1436,7557 C 1418,7539 1408,7520 1409,7501 1409,7481 1419,7461 1439,7441 L 1578,7302 1548,7271 1590,7230 1623,7263 1698,7226 1737,7265 1681,7321 1726,7366 1684,7407 1639,7362 1516,7486 C 1505,7497 1498,7508 1497,7518 1496,7528 1500,7537 1509,7546 1514,7551 1522,7557 1533,7564 L 1495,7602 C 1475,7592 1455,7577 1436,7557 Z"/>
        </g>
       </g>
       <g class="com.sun.star.drawing.ClosedBezierShape">
        <g id="id82">
         <rect class="BoundingBox" stroke="none" fill="none" x="1575" y="7451" width="361" height="358"/>
         <path fill="rgb(255,255,255)" stroke="none" d="M 1874,7749 C 1835,7787 1794,7807 1751,7807 1708,7808 1667,7789 1630,7752 1593,7715 1575,7675 1576,7632 1576,7589 1596,7548 1634,7510 1673,7472 1713,7452 1756,7451 1799,7450 1839,7469 1877,7507 1916,7546 1935,7586 1934,7627 1933,7669 1913,7709 1874,7749 Z M 1809,7684 C 1837,7656 1853,7631 1857,7609 1860,7587 1853,7568 1836,7550 1798,7513 1753,7521 1699,7574 1673,7601 1657,7625 1653,7648 1648,7671 1654,7691 1671,7708 1709,7746 1755,7738 1809,7684 Z"/>
        </g>
       </g>
       <g class="com.sun.star.drawing.ClosedBezierShape">
        <g id="id83">
         <rect class="BoundingBox" stroke="none" fill="none" x="1711" y="7679" width="509" height="415"/>
         <path fill="rgb(255,255,255)" stroke="none" d="M 2149,8023 C 2110,8063 2071,8085 2034,8091 1996,8097 1963,8085 1934,8056 1918,8039 1907,8021 1902,8002 1896,7982 1897,7962 1904,7942 L 1903,7941 C 1900,7946 1887,7960 1864,7982 L 1773,8073 1712,8012 1987,7736 C 2010,7714 2027,7695 2040,7680 L 2100,7739 C 2098,7743 2094,7749 2086,7757 2079,7765 2072,7773 2065,7780 L 2065,7781 C 2108,7766 2148,7777 2185,7813 2213,7841 2223,7873 2217,7909 2211,7946 2189,7984 2149,8023 Z M 2085,7958 C 2139,7905 2149,7862 2116,7830 2100,7813 2080,7808 2057,7813 2034,7819 2010,7835 1984,7861 1959,7886 1943,7910 1938,7933 1933,7956 1938,7975 1954,7991 1987,8024 2031,8013 2085,7958 Z"/>
        </g>
       </g>
       <g class="com.sun.star.drawing.ClosedBezierShape">
        <g id="id84">
         <rect class="BoundingBox" stroke="none" fill="none" x="426" y="7220" width="416" height="542"/>
         <path fill="rgb(255,255,255)" stroke="none" d="M 678,7416 C 704,7406 728,7404 748,7408 769,7413 788,7423 806,7441 831,7466 842,7493 840,7522 838,7551 822,7580 792,7610 L 642,7761 581,7699 714,7566 C 756,7524 762,7489 734,7461 719,7446 701,7441 679,7444 657,7448 636,7460 616,7480 L 488,7607 427,7546 752,7220 814,7282 725,7371 C 709,7386 693,7401 677,7415 L 678,7416 Z"/>
        </g>
       </g>
       <g class="com.sun.star.drawing.ClosedBezierShape">
        <g id="id85">
         <rect class="BoundingBox" stroke="none" fill="none" x="701" y="7495" width="389" height="389"/>
         <path fill="rgb(255,255,255)" stroke="none" d="M 982,7541 C 997,7526 1012,7510 1027,7495 1048,7516 1068,7536 1089,7557 1074,7572 1058,7587 1043,7602 1023,7582 1002,7561 982,7541 Z M 702,7821 C 781,7742 860,7663 939,7584 959,7604 980,7625 1000,7645 921,7724 842,7803 763,7882 743,7862 722,7841 702,7821 Z"/>
        </g>
       </g>
       <g class="com.sun.star.drawing.ClosedBezierShape">
        <g id="id86">
         <rect class="BoundingBox" stroke="none" fill="none" x="863" y="7746" width="503" height="415"/>
         <path fill="rgb(255,255,255)" stroke="none" d="M 981,8100 C 983,8098 988,8091 996,8082 1004,8072 1011,8064 1017,8058 L 1016,8057 C 974,8073 934,8062 897,8024 870,7997 859,7965 865,7928 872,7891 895,7854 933,7815 973,7776 1011,7753 1048,7748 1086,7742 1119,7754 1148,7783 1165,7800 1176,7818 1181,7837 1186,7856 1185,7876 1178,7897 L 1178,7897 1217,7858 1303,7771 1365,7833 1091,8106 C 1076,8121 1060,8139 1041,8160 L 981,8100 Z M 1099,7977 C 1125,7952 1140,7928 1145,7905 1150,7883 1145,7863 1128,7847 1111,7830 1093,7825 1071,7830 1050,7835 1025,7852 998,7879 944,7933 933,7976 966,8008 982,8024 1002,8030 1025,8025 1048,8019 1073,8003 1099,7977 Z"/>
        </g>
       </g>
       <g class="com.sun.star.drawing.ClosedBezierShape">
        <g id="id87">
         <rect class="BoundingBox" stroke="none" fill="none" x="1103" y="7896" width="389" height="389"/>
         <path fill="rgb(255,255,255)" stroke="none" d="M 1383,7942 C 1398,7927 1414,7912 1429,7897 1449,7918 1470,7938 1490,7959 1475,7974 1460,7989 1445,8004 1424,7983 1404,7963 1383,7942 Z M 1103,8222 C 1182,8143 1261,8064 1340,7985 1361,8006 1381,8026 1402,8047 1323,8126 1244,8205 1165,8284 1144,8263 1124,8243 1103,8222 Z"/>
        </g>
       </g>
       <g class="com.sun.star.drawing.ClosedBezierShape">
        <g id="id88">
         <rect class="BoundingBox" stroke="none" fill="none" x="1229" y="8109" width="416" height="456"/>
         <path fill="rgb(255,255,255)" stroke="none" d="M 1383,8502 L 1516,8369 C 1558,8327 1565,8292 1537,8264 1522,8249 1503,8243 1481,8247 1459,8251 1438,8262 1418,8282 L 1291,8410 1229,8348 1413,8164 C 1426,8152 1436,8141 1444,8133 1452,8124 1458,8116 1464,8110 L 1523,8168 C 1521,8172 1514,8179 1503,8192 1492,8205 1484,8213 1479,8218 L 1480,8219 C 1507,8209 1530,8206 1551,8211 1572,8215 1591,8226 1608,8243 1633,8269 1645,8296 1643,8325 1641,8354 1625,8383 1595,8413 L 1444,8563 1383,8502 Z"/>
        </g>
       </g>
       <g class="com.sun.star.drawing.ClosedBezierShape">
        <g id="id89">
         <rect class="BoundingBox" stroke="none" fill="none" x="1452" y="8422" width="504" height="455"/>
         <path fill="rgb(255,255,255)" stroke="none" d="M 1508,8818 C 1479,8789 1462,8760 1455,8732 1448,8703 1453,8676 1470,8652 L 1539,8706 C 1531,8718 1528,8730 1530,8743 1532,8756 1539,8768 1550,8780 1567,8797 1585,8804 1604,8801 1622,8798 1642,8787 1663,8766 L 1676,8753 1700,8730 1699,8729 C 1656,8745 1617,8734 1579,8697 1552,8669 1541,8637 1546,8601 1552,8565 1574,8528 1612,8490 1651,8451 1689,8429 1725,8423 1762,8418 1795,8430 1825,8460 1859,8495 1869,8533 1854,8575 L 1855,8576 C 1860,8571 1867,8564 1877,8556 1886,8548 1892,8543 1896,8541 L 1954,8599 C 1938,8614 1919,8632 1898,8653 L 1723,8828 C 1689,8862 1654,8878 1618,8876 1581,8874 1545,8855 1508,8818 Z M 1777,8652 C 1802,8628 1816,8605 1821,8582 1826,8560 1821,8541 1804,8525 1772,8492 1729,8501 1676,8554 1625,8606 1615,8648 1648,8680 1664,8697 1683,8702 1706,8697 1728,8693 1752,8677 1777,8652 Z"/>
        </g>
       </g>
      </g>
      <g class="Group">
       <g class="com.sun.star.drawing.ClosedBezierShape">
        <g id="id90">
         <rect class="BoundingBox" stroke="none" fill="none" x="6860" y="6291" width="461" height="89"/>
         <path fill="rgb(255,255,255)" stroke="none" d="M 7320,6379 C 7167,6379 7013,6379 6860,6379 6860,6350 6860,6321 6860,6292 7013,6292 7167,6292 7320,6292 7320,6321 7320,6350 7320,6379 Z"/>
        </g>
       </g>
       <g class="com.sun.star.drawing.ClosedBezierShape">
        <g id="id91">
         <rect class="BoundingBox" stroke="none" fill="none" x="6985" y="5898" width="342" height="309"/>
         <path fill="rgb(255,255,255)" stroke="none" d="M 6985,6118 L 7173,6118 C 7232,6118 7261,6099 7261,6059 7261,6038 7252,6021 7234,6008 7216,5995 7193,5988 7164,5988 L 6985,5988 6985,5901 7245,5901 C 7274,5901 7299,5901 7320,5899 L 7320,5982 C 7290,5984 7268,5986 7253,5986 L 7253,5987 C 7279,5999 7297,6014 7309,6031 7320,6049 7326,6071 7326,6095 7326,6131 7315,6158 7293,6177 7272,6196 7240,6206 7198,6206 L 6985,6206 6985,6118 Z"/>
        </g>
       </g>
       <g class="com.sun.star.drawing.ClosedBezierShape">
        <g id="id92">
         <rect class="BoundingBox" stroke="none" fill="none" x="6985" y="5507" width="336" height="346"/>
         <path fill="rgb(255,255,255)" stroke="none" d="M 7320,5602 C 7280,5628 7239,5654 7199,5680 7239,5707 7280,5733 7320,5759 7320,5790 7320,5821 7320,5852 7262,5811 7205,5770 7147,5729 7093,5768 7039,5807 6985,5846 6985,5814 6985,5783 6985,5752 7022,5728 7058,5704 7095,5680 7058,5657 7022,5633 6985,5609 6985,5578 6985,5546 6985,5514 7039,5553 7092,5592 7146,5631 7204,5590 7262,5549 7320,5508 7320,5539 7320,5571 7320,5602 Z"/>
        </g>
       </g>
       <g class="com.sun.star.drawing.ClosedBezierShape">
        <g id="id93">
         <rect class="BoundingBox" stroke="none" fill="none" x="6985" y="5157" width="342" height="309"/>
         <path fill="rgb(255,255,255)" stroke="none" d="M 6985,5377 L 7173,5377 C 7232,5377 7261,5358 7261,5318 7261,5297 7252,5280 7234,5267 7216,5254 7193,5247 7164,5247 L 6985,5247 6985,5160 7245,5160 C 7274,5160 7299,5160 7320,5158 L 7320,5241 C 7290,5243 7268,5245 7253,5245 L 7253,5246 C 7279,5258 7297,5273 7309,5290 7320,5308 7326,5330 7326,5354 7326,5390 7315,5417 7293,5436 7272,5455 7240,5465 7198,5465 L 6985,5465 6985,5377 Z"/>
        </g>
       </g>
       <g class="com.sun.star.drawing.ClosedBezierShape">
        <g id="id94">
         <rect class="BoundingBox" stroke="none" fill="none" x="6977" y="4877" width="344" height="198"/>
         <path fill="rgb(255,255,255)" stroke="none" d="M 7320,5071 L 7064,5071 C 7045,5071 7030,5071 7018,5071 7005,5072 6994,5073 6985,5073 L 6985,4990 C 6989,4989 7000,4989 7019,4988 7038,4987 7050,4986 7056,4986 L 7056,4985 C 7033,4976 7016,4969 7006,4962 6997,4956 6990,4948 6985,4939 6980,4930 6978,4918 6978,4905 6978,4893 6980,4884 6983,4878 L 7056,4878 C 7053,4892 7051,4904 7051,4915 7051,4936 7060,4953 7077,4965 7095,4978 7121,4984 7155,4984 L 7320,4984 7320,5071 Z"/>
        </g>
       </g>
       <g class="com.sun.star.drawing.ClosedBezierShape">
        <g id="id95">
         <rect class="BoundingBox" stroke="none" fill="none" x="6985" y="4519" width="469" height="347"/>
         <path fill="rgb(255,255,255)" stroke="none" d="M 7452,4781 C 7452,4802 7451,4820 7448,4836 L 7386,4836 C 7387,4825 7388,4815 7388,4806 7388,4794 7386,4783 7382,4775 7378,4767 7372,4760 7363,4753 7354,4747 7339,4739 7317,4731 L 6985,4864 6985,4772 7142,4719 C 7165,4711 7199,4701 7246,4688 L 7216,4680 7143,4660 6985,4611 6985,4519 7338,4652 C 7381,4670 7411,4688 7427,4707 7444,4726 7452,4751 7452,4781 Z"/>
        </g>
       </g>
      </g>
      <g class="Group">
       <g class="com.sun.star.drawing.ClosedBezierShape">
        <g id="id96">
         <rect class="BoundingBox" stroke="none" fill="none" x="779" y="4569" width="337" height="499"/>
         <path fill="rgb(255,255,255)" stroke="none" d="M 779,4978 L 779,4886 983,4833 C 993,4830 1015,4825 1052,4818 L 983,4802 779,4748 779,4656 1114,4569 1114,4651 858,4706 881,4711 917,4718 1114,4771 1114,4864 917,4916 C 906,4919 887,4923 858,4929 L 899,4937 1114,4986 1114,5066 779,4978 Z"/>
        </g>
       </g>
       <g class="com.sun.star.drawing.ClosedBezierShape">
        <g id="id97">
         <rect class="BoundingBox" stroke="none" fill="none" x="773" y="5084" width="350" height="341"/>
         <path fill="rgb(255,255,255)" stroke="none" d="M 773,5188 C 773,5155 782,5130 799,5112 817,5094 842,5085 874,5085 909,5085 935,5096 953,5119 971,5141 981,5174 981,5217 L 982,5289 1000,5289 C 1022,5289 1038,5285 1049,5278 1060,5270 1065,5258 1065,5240 1065,5224 1061,5212 1054,5205 1046,5197 1034,5192 1017,5191 L 1021,5100 C 1054,5105 1079,5120 1096,5145 1113,5169 1121,5202 1121,5244 1121,5286 1111,5319 1090,5342 1069,5365 1039,5376 1001,5376 L 879,5376 C 860,5376 847,5378 840,5383 833,5387 829,5394 829,5404 829,5410 830,5417 831,5423 L 784,5423 C 782,5418 781,5413 780,5409 779,5405 778,5401 778,5397 777,5393 777,5388 776,5384 776,5379 775,5373 775,5367 775,5345 781,5329 792,5319 802,5308 818,5302 839,5300 L 839,5298 C 795,5274 773,5237 773,5188 Z M 935,5289 L 934,5245 C 933,5224 931,5210 927,5201 924,5193 918,5187 911,5182 903,5178 893,5175 881,5175 865,5175 853,5179 846,5186 838,5194 834,5204 834,5216 834,5229 838,5242 845,5253 853,5264 863,5273 876,5280 889,5286 903,5289 918,5289 L 935,5289 Z"/>
        </g>
       </g>
       <g class="com.sun.star.drawing.ClosedBezierShape">
        <g id="id98">
         <rect class="BoundingBox" stroke="none" fill="none" x="773" y="5440" width="350" height="306"/>
         <path fill="rgb(255,255,255)" stroke="none" d="M 877,5745 C 845,5745 819,5732 801,5705 782,5679 773,5642 773,5595 773,5549 780,5514 795,5489 809,5465 832,5448 863,5440 L 874,5517 C 858,5521 847,5529 841,5539 834,5550 831,5569 831,5595 831,5619 834,5637 840,5648 846,5659 856,5665 869,5665 880,5665 888,5660 895,5651 901,5643 906,5627 911,5606 920,5557 929,5523 938,5506 946,5489 957,5476 970,5467 984,5458 1000,5454 1019,5454 1051,5454 1076,5466 1094,5491 1112,5515 1121,5550 1121,5596 1121,5635 1113,5668 1098,5692 1082,5716 1060,5731 1030,5737 L 1022,5660 C 1036,5658 1046,5651 1053,5642 1060,5632 1063,5617 1063,5596 1063,5575 1060,5559 1055,5549 1050,5539 1041,5534 1029,5534 1019,5534 1011,5538 1006,5546 1000,5554 995,5567 991,5586 986,5612 981,5635 975,5656 969,5676 962,5692 955,5705 947,5717 937,5727 924,5734 912,5741 896,5745 877,5745 Z"/>
        </g>
       </g>
       <g class="com.sun.star.drawing.ClosedBezierShape">
        <g id="id99">
         <rect class="BoundingBox" stroke="none" fill="none" x="773" y="5776" width="422" height="198"/>
         <path fill="rgb(255,255,255)" stroke="none" d="M 773,5899 C 773,5873 780,5854 794,5840 808,5826 829,5819 857,5819 L 1055,5819 1055,5777 1114,5777 1114,5823 1193,5851 1193,5905 1114,5905 1114,5969 1055,5969 1055,5905 881,5905 C 864,5905 852,5908 845,5915 837,5921 833,5930 833,5943 833,5950 834,5960 837,5973 L 784,5973 C 777,5951 773,5927 773,5899 Z"/>
        </g>
       </g>
       <g class="com.sun.star.drawing.ClosedBezierShape">
        <g id="id100">
         <rect class="BoundingBox" stroke="none" fill="none" x="773" y="6005" width="350" height="309"/>
         <path fill="rgb(255,255,255)" stroke="none" d="M 773,6163 C 773,6112 788,6073 818,6046 848,6019 891,6006 949,6006 1004,6006 1047,6020 1076,6047 1106,6074 1121,6113 1121,6164 1121,6212 1105,6249 1073,6274 1041,6300 994,6312 932,6312 L 930,6312 930,6097 C 897,6097 873,6103 856,6115 839,6127 831,6145 831,6167 831,6198 844,6217 871,6225 L 864,6307 C 803,6284 773,6235 773,6163 Z M 1066,6163 C 1066,6142 1059,6126 1045,6115 1030,6104 1011,6098 985,6098 L 985,6228 C 1012,6226 1032,6220 1046,6208 1059,6197 1066,6182 1066,6163 Z"/>
        </g>
       </g>
      </g>
      <g class="Group">
       <g class="com.sun.star.drawing.ClosedBezierShape">
        <g id="id101">
         <rect class="BoundingBox" stroke="none" fill="none" x="3265" y="7023" width="306" height="350"/>
         <path fill="rgb(201,33,30)" stroke="none" d="M 3570,7268 C 3570,7300 3557,7326 3530,7344 3504,7363 3467,7372 3420,7372 3374,7372 3339,7365 3314,7350 3290,7336 3273,7313 3265,7282 L 3342,7271 C 3346,7287 3354,7298 3364,7304 3375,7311 3394,7314 3420,7314 3444,7314 3462,7311 3473,7305 3484,7299 3490,7289 3490,7276 3490,7265 3485,7257 3476,7250 3468,7244 3452,7239 3431,7234 3382,7225 3348,7216 3331,7207 3314,7199 3301,7188 3292,7175 3283,7161 3279,7145 3279,7126 3279,7094 3291,7069 3316,7051 3340,7033 3375,7024 3421,7024 3460,7024 3493,7032 3517,7047 3541,7063 3556,7085 3562,7115 L 3485,7123 C 3483,7109 3476,7099 3467,7092 3457,7085 3442,7082 3421,7082 3400,7082 3384,7085 3374,7090 3364,7095 3359,7104 3359,7116 3359,7126 3363,7134 3371,7139 3379,7145 3392,7150 3411,7154 3437,7159 3460,7164 3481,7170 3501,7176 3517,7183 3530,7190 3542,7198 3552,7208 3559,7221 3566,7233 3570,7249 3570,7268 Z"/>
        </g>
       </g>
       <g class="com.sun.star.drawing.ClosedBezierShape">
        <g id="id102">
         <rect class="BoundingBox" stroke="none" fill="none" x="3601" y="6952" width="198" height="421"/>
         <path fill="rgb(201,33,30)" stroke="none" d="M 3724,7372 C 3698,7372 3679,7365 3665,7351 3651,7337 3644,7316 3644,7288 L 3644,7090 3602,7090 3602,7031 3648,7031 3676,6952 3730,6952 3730,7031 3794,7031 3794,7090 3730,7090 3730,7264 C 3730,7281 3733,7293 3740,7300 3746,7308 3755,7312 3768,7312 3775,7312 3785,7311 3798,7308 L 3798,7361 C 3776,7368 3752,7372 3724,7372 Z"/>
        </g>
       </g>
       <g class="com.sun.star.drawing.ClosedBezierShape">
        <g id="id103">
         <rect class="BoundingBox" stroke="none" fill="none" x="3830" y="7023" width="341" height="350"/>
         <path fill="rgb(201,33,30)" stroke="none" d="M 4169,7198 C 4169,7252 4154,7295 4124,7326 4094,7357 4052,7372 3999,7372 3946,7372 3905,7356 3875,7325 3846,7294 3831,7252 3831,7198 3831,7144 3846,7101 3875,7070 3905,7039 3947,7024 4000,7024 4055,7024 4097,7039 4126,7069 4155,7099 4169,7142 4169,7198 Z M 4078,7198 C 4078,7158 4072,7129 4058,7111 4045,7093 4027,7084 4002,7084 3949,7084 3922,7122 3922,7198 3922,7235 3929,7263 3942,7283 3955,7302 3973,7312 3998,7312 4051,7312 4078,7274 4078,7198 Z"/>
        </g>
       </g>
       <g class="com.sun.star.drawing.ClosedBezierShape">
        <g id="id104">
         <rect class="BoundingBox" stroke="none" fill="none" x="4237" y="7023" width="322" height="476"/>
         <path fill="rgb(201,33,30)" stroke="none" d="M 4558,7196 C 4558,7252 4547,7296 4524,7326 4502,7357 4470,7372 4429,7372 4406,7372 4385,7367 4368,7357 4350,7346 4337,7332 4327,7312 L 4326,7312 C 4327,7319 4327,7338 4327,7369 L 4327,7498 4240,7498 4240,7108 C 4240,7077 4240,7051 4238,7031 L 4323,7031 C 4324,7035 4324,7042 4325,7053 4326,7063 4326,7074 4326,7085 L 4327,7085 C 4347,7044 4383,7023 4435,7023 4474,7023 4504,7038 4526,7068 4547,7098 4558,7141 4558,7196 Z M 4467,7196 C 4467,7121 4444,7083 4398,7083 4375,7083 4357,7093 4345,7113 4332,7134 4326,7162 4326,7198 4326,7235 4332,7263 4345,7282 4357,7302 4375,7312 4397,7312 4444,7312 4467,7273 4467,7196 Z"/>
        </g>
       </g>
      </g>
      <g class="Group">
       <g class="com.sun.star.drawing.ClosedBezierShape">
        <g id="id105">
         <rect class="BoundingBox" stroke="none" fill="none" x="1861" y="4836" width="349" height="306"/>
         <path fill="rgb(201,33,30)" stroke="none" d="M 1965,5141 C 1933,5141 1907,5128 1889,5101 1870,5075 1861,5038 1861,4991 1861,4945 1868,4910 1883,4885 1897,4861 1920,4844 1951,4836 L 1962,4913 C 1946,4917 1935,4925 1929,4935 1922,4946 1919,4965 1919,4991 1919,5015 1922,5033 1928,5044 1934,5055 1944,5061 1957,5061 1968,5061 1976,5056 1983,5047 1989,5039 1994,5023 1999,5002 2008,4953 2017,4919 2026,4902 2034,4885 2045,4872 2058,4863 2072,4854 2088,4850 2107,4850 2139,4850 2164,4862 2182,4887 2200,4911 2209,4946 2209,4992 2209,5031 2201,5064 2186,5088 2170,5112 2148,5127 2118,5133 L 2110,5056 C 2124,5054 2134,5047 2141,5038 2148,5028 2151,5013 2151,4992 2151,4971 2148,4955 2143,4945 2138,4935 2129,4930 2117,4930 2107,4930 2099,4934 2094,4942 2088,4950 2083,4963 2079,4982 2074,5008 2069,5031 2063,5052 2057,5072 2050,5088 2043,5101 2035,5113 2025,5123 2012,5130 2000,5137 1984,5141 1965,5141 Z"/>
        </g>
       </g>
       <g class="com.sun.star.drawing.ClosedBezierShape">
        <g id="id106">
         <rect class="BoundingBox" stroke="none" fill="none" x="1861" y="5172" width="421" height="198"/>
         <path fill="rgb(201,33,30)" stroke="none" d="M 1861,5295 C 1861,5269 1868,5250 1882,5236 1896,5222 1917,5215 1945,5215 L 2143,5215 2143,5173 2202,5173 2202,5219 2281,5247 2281,5301 2202,5301 2202,5365 2143,5365 2143,5301 1969,5301 C 1952,5301 1940,5304 1933,5311 1925,5317 1921,5326 1921,5339 1921,5346 1922,5356 1925,5369 L 1872,5369 C 1865,5347 1861,5323 1861,5295 Z"/>
        </g>
       </g>
       <g class="com.sun.star.drawing.ClosedBezierShape">
        <g id="id107">
         <rect class="BoundingBox" stroke="none" fill="none" x="1861" y="5401" width="349" height="341"/>
         <path fill="rgb(201,33,30)" stroke="none" d="M 2035,5740 C 1981,5740 1938,5725 1907,5695 1876,5665 1861,5623 1861,5570 1861,5517 1877,5476 1908,5446 1939,5417 1981,5402 2035,5402 2089,5402 2132,5417 2163,5446 2194,5476 2209,5518 2209,5571 2209,5626 2194,5668 2164,5697 2134,5726 2091,5740 2035,5740 Z M 2035,5649 C 2075,5649 2104,5643 2122,5629 2140,5616 2149,5598 2149,5573 2149,5520 2111,5493 2035,5493 1998,5493 1970,5500 1950,5513 1931,5526 1921,5544 1921,5569 1921,5622 1959,5649 2035,5649 Z"/>
        </g>
       </g>
       <g class="com.sun.star.drawing.ClosedBezierShape">
        <g id="id108">
         <rect class="BoundingBox" stroke="none" fill="none" x="1735" y="5808" width="477" height="322"/>
         <path fill="rgb(201,33,30)" stroke="none" d="M 2037,6129 C 1981,6129 1937,6118 1907,6095 1876,6073 1861,6041 1861,6000 1861,5977 1866,5956 1876,5939 1887,5921 1901,5908 1921,5898 L 1921,5897 C 1914,5898 1895,5898 1864,5898 L 1735,5898 1735,5811 2125,5811 C 2156,5811 2182,5811 2202,5809 L 2202,5894 C 2198,5895 2191,5895 2180,5896 2170,5897 2159,5897 2148,5897 L 2148,5898 C 2189,5918 2210,5954 2210,6006 2210,6045 2195,6075 2165,6097 2135,6118 2092,6129 2037,6129 Z M 2037,6038 C 2112,6038 2150,6015 2150,5969 2150,5946 2140,5928 2120,5916 2099,5903 2071,5897 2035,5897 1998,5897 1970,5903 1951,5916 1931,5928 1921,5946 1921,5968 1921,6015 1960,6038 2037,6038 Z"/>
        </g>
       </g>
      </g>
      <g class="Group">
       <g class="com.sun.star.drawing.ClosedBezierShape">
        <g id="id109">
         <rect class="BoundingBox" stroke="none" fill="none" x="3095" y="3547" width="321" height="479"/>
         <path fill="rgb(201,33,30)" stroke="none" d="M 3254,4024 C 3213,4024 3180,4016 3155,4001 3130,3985 3115,3963 3109,3934 L 3196,3924 C 3199,3937 3206,3948 3216,3955 3226,3963 3240,3967 3256,3967 3281,3967 3298,3959 3309,3944 3321,3929 3326,3907 3326,3878 L 3326,3860 3327,3826 3326,3826 C 3307,3867 3271,3888 3218,3888 3179,3888 3149,3873 3127,3844 3106,3815 3095,3773 3095,3718 3095,3664 3106,3621 3128,3592 3150,3562 3183,3547 3225,3547 3274,3547 3307,3567 3326,3607 L 3328,3607 C 3328,3600 3328,3591 3329,3578 3330,3566 3331,3558 3332,3554 L 3415,3554 C 3413,3576 3413,3602 3413,3632 L 3413,3879 C 3413,3927 3399,3963 3372,3987 3345,4012 3306,4024 3254,4024 Z M 3327,3717 C 3327,3682 3321,3655 3308,3636 3296,3617 3278,3607 3256,3607 3209,3607 3186,3644 3186,3719 3186,3792 3209,3828 3255,3828 3278,3828 3296,3818 3308,3799 3321,3780 3327,3752 3327,3717 Z"/>
        </g>
       </g>
       <g class="com.sun.star.drawing.ClosedBezierShape">
        <g id="id110">
         <rect class="BoundingBox" stroke="none" fill="none" x="3482" y="3547" width="341" height="349"/>
         <path fill="rgb(201,33,30)" stroke="none" d="M 3821,3721 C 3821,3775 3806,3818 3776,3849 3746,3880 3704,3895 3651,3895 3598,3895 3557,3879 3527,3848 3498,3817 3483,3775 3483,3721 3483,3667 3498,3624 3527,3593 3557,3562 3599,3547 3652,3547 3707,3547 3749,3562 3778,3592 3807,3622 3821,3665 3821,3721 Z M 3730,3721 C 3730,3681 3724,3652 3710,3634 3697,3616 3679,3607 3654,3607 3601,3607 3574,3645 3574,3721 3574,3758 3581,3786 3594,3806 3607,3825 3625,3835 3650,3835 3703,3835 3730,3797 3730,3721 Z"/>
        </g>
       </g>
       <g class="com.sun.star.drawing.ClosedBezierShape">
        <g id="id111">
         <rect class="BoundingBox" stroke="none" fill="none" x="3892" y="3429" width="89" height="462"/>
         <path fill="rgb(201,33,30)" stroke="none" d="M 3892,3493 C 3892,3472 3892,3450 3892,3429 3921,3429 3950,3429 3979,3429 3979,3450 3979,3472 3979,3493 3950,3493 3921,3493 3892,3493 Z M 3892,3889 C 3892,3777 3892,3666 3892,3554 3921,3554 3950,3554 3979,3554 3979,3666 3979,3777 3979,3889 3950,3889 3921,3889 3892,3889 Z"/>
        </g>
       </g>
       <g class="com.sun.star.drawing.ClosedBezierShape">
        <g id="id112">
         <rect class="BoundingBox" stroke="none" fill="none" x="4067" y="3547" width="309" height="343"/>
         <path fill="rgb(201,33,30)" stroke="none" d="M 4288,3889 L 4288,3701 C 4288,3642 4268,3612 4228,3612 4207,3612 4190,3621 4177,3639 4164,3657 4157,3681 4157,3709 L 4157,3889 4070,3889 4070,3629 C 4070,3611 4070,3596 4070,3585 4069,3573 4068,3563 4068,3554 L 4151,3554 C 4152,3558 4152,3568 4153,3585 4154,3602 4155,3614 4155,3620 L 4156,3620 C 4168,3595 4183,3576 4201,3564 4218,3553 4240,3547 4264,3547 4300,3547 4327,3558 4346,3580 4365,3602 4375,3634 4375,3676 L 4375,3889 4288,3889 Z"/>
        </g>
       </g>
       <g class="com.sun.star.drawing.ClosedBezierShape">
        <g id="id113">
         <rect class="BoundingBox" stroke="none" fill="none" x="4441" y="3547" width="321" height="479"/>
         <path fill="rgb(201,33,30)" stroke="none" d="M 4600,4024 C 4559,4024 4526,4016 4501,4001 4476,3985 4461,3963 4455,3934 L 4542,3924 C 4545,3937 4552,3948 4562,3955 4572,3963 4586,3967 4602,3967 4627,3967 4644,3959 4655,3944 4667,3929 4672,3907 4672,3878 L 4672,3860 4673,3826 4672,3826 C 4653,3867 4617,3888 4564,3888 4525,3888 4495,3873 4473,3844 4452,3815 4441,3773 4441,3718 4441,3664 4452,3621 4474,3592 4496,3562 4529,3547 4571,3547 4620,3547 4653,3567 4672,3607 L 4674,3607 C 4674,3600 4674,3591 4675,3578 4676,3566 4677,3558 4678,3554 L 4761,3554 C 4759,3576 4759,3602 4759,3632 L 4759,3879 C 4759,3927 4745,3963 4718,3987 4691,4012 4652,4024 4600,4024 Z M 4673,3717 C 4673,3682 4667,3655 4654,3636 4642,3617 4624,3607 4602,3607 4555,3607 4532,3644 4532,3719 4532,3792 4555,3828 4601,3828 4624,3828 4642,3818 4654,3799 4667,3780 4673,3752 4673,3717 Z"/>
        </g>
       </g>
      </g>
      <g class="Group">
       <g class="com.sun.star.drawing.ClosedBezierShape">
        <g id="id114">
         <rect class="BoundingBox" stroke="none" fill="none" x="5793" y="5819" width="349" height="306"/>
         <path fill="rgb(201,33,30)" stroke="none" d="M 6037,5819 C 6069,5819 6095,5832 6113,5859 6132,5885 6141,5922 6141,5969 6141,6015 6134,6050 6119,6075 6105,6099 6082,6116 6051,6124 L 6040,6047 C 6056,6043 6067,6035 6073,6025 6080,6014 6083,5995 6083,5969 6083,5945 6080,5927 6074,5916 6068,5905 6058,5899 6045,5899 6034,5899 6026,5904 6019,5913 6013,5921 6008,5937 6003,5958 5994,6007 5985,6041 5976,6058 5968,6075 5957,6088 5944,6097 5930,6106 5914,6110 5895,6110 5863,6110 5838,6098 5820,6073 5802,6049 5793,6014 5793,5968 5793,5929 5801,5896 5816,5872 5832,5848 5854,5833 5884,5827 L 5892,5904 C 5878,5906 5868,5913 5861,5922 5854,5932 5851,5947 5851,5968 5851,5989 5854,6005 5859,6015 5864,6025 5873,6030 5885,6030 5895,6030 5903,6026 5908,6018 5914,6010 5919,5997 5923,5978 5928,5952 5933,5929 5939,5908 5945,5888 5952,5872 5959,5859 5967,5847 5977,5837 5990,5830 6002,5823 6018,5819 6037,5819 Z"/>
        </g>
       </g>
       <g class="com.sun.star.drawing.ClosedBezierShape">
        <g id="id115">
         <rect class="BoundingBox" stroke="none" fill="none" x="5721" y="5591" width="421" height="198"/>
         <path fill="rgb(201,33,30)" stroke="none" d="M 6141,5665 C 6141,5691 6134,5710 6120,5724 6106,5738 6085,5745 6057,5745 L 5859,5745 5859,5787 5800,5787 5800,5741 5721,5713 5721,5659 5800,5659 5800,5595 5859,5595 5859,5659 6033,5659 C 6050,5659 6062,5656 6069,5649 6077,5643 6081,5634 6081,5621 6081,5614 6080,5604 6077,5591 L 6130,5591 C 6137,5613 6141,5637 6141,5665 Z"/>
        </g>
       </g>
       <g class="com.sun.star.drawing.ClosedBezierShape">
        <g id="id116">
         <rect class="BoundingBox" stroke="none" fill="none" x="5793" y="5219" width="349" height="341"/>
         <path fill="rgb(201,33,30)" stroke="none" d="M 5967,5220 C 6021,5220 6064,5235 6095,5265 6126,5295 6141,5337 6141,5390 6141,5443 6125,5484 6094,5514 6063,5543 6021,5558 5967,5558 5913,5558 5870,5543 5839,5514 5808,5484 5793,5442 5793,5389 5793,5334 5808,5292 5838,5263 5868,5234 5911,5220 5967,5220 Z M 5967,5311 C 5927,5311 5898,5317 5880,5331 5862,5344 5853,5362 5853,5387 5853,5440 5891,5467 5967,5467 6004,5467 6032,5460 6052,5447 6071,5434 6081,5416 6081,5391 6081,5338 6043,5311 5967,5311 Z"/>
        </g>
       </g>
       <g class="com.sun.star.drawing.ClosedBezierShape">
        <g id="id117">
         <rect class="BoundingBox" stroke="none" fill="none" x="5792" y="4831" width="476" height="322"/>
         <path fill="rgb(201,33,30)" stroke="none" d="M 5965,4831 C 6021,4831 6065,4842 6095,4865 6126,4887 6141,4919 6141,4960 6141,4983 6136,5004 6126,5021 6115,5039 6101,5052 6081,5062 L 6081,5063 C 6088,5062 6107,5062 6138,5062 L 6267,5062 6267,5149 5877,5149 C 5846,5149 5820,5149 5800,5151 L 5800,5066 C 5804,5065 5811,5065 5822,5064 5832,5063 5843,5063 5854,5063 L 5854,5062 C 5813,5042 5792,5006 5792,4954 5792,4915 5807,4885 5837,4863 5867,4842 5910,4831 5965,4831 Z M 5965,4922 C 5890,4922 5852,4945 5852,4991 5852,5014 5862,5032 5882,5044 5903,5057 5931,5063 5967,5063 6004,5063 6032,5057 6051,5044 6071,5032 6081,5014 6081,4992 6081,4945 6042,4922 5965,4922 Z"/>
        </g>
       </g>
      </g>
     </g>
    </g>
   </g>
  </g>
 </g>
</svg>