<?xml version="1.0" encoding="UTF-8"?>
<!DOCTYPE svg PUBLIC "-//W3C//DTD SVG 1.1//EN" "http://www.w3.org/Graphics/SVG/1.1/DTD/svg11.dtd">
<svg version="1.2" width="80mm" height="103mm" viewBox="0 0 8000 10300" preserveAspectRatio="xMidYMid" fill-rule="evenodd" stroke-width="28.222" stroke-linejoin="round" xmlns="http://www.w3.org/2000/svg" xmlns:ooo="http://xml.openoffice.org/svg/export" xmlns:xlink="http://www.w3.org/1999/xlink" xmlns:presentation="http://sun.com/xmlns/staroffice/presentation" xmlns:smil="http://www.w3.org/2001/SMIL20/" xmlns:anim="urn:oasis:names:tc:opendocument:xmlns:animation:1.0" xml:space="preserve">
 <defs class="ClipPathGroup">
  <clipPath id="presentation_clip_path" clipPathUnits="userSpaceOnUse">
   <rect x="0" y="0" width="8000" height="10300"/>
  </clipPath>
  <clipPath id="presentation_clip_path_shrink" clipPathUnits="userSpaceOnUse">
   <rect x="8" y="10" width="7984" height="10280"/>
  </clipPath>
 </defs>
 <defs class="TextShapeIndex">
  <g ooo:slide="id1" ooo:id-list="id3 id4 id5 id6 id7 id8 id9 id10 id11 id12 id13 id14 id15 id16 id17 id18 id19 id20 id21 id22 id23 id24 id25 id26 id27 id28 id29 id30 id31 id32 id33 id34 id35 id36 id37 id38 id39 id40 id41 id42 id43 id44 id45 id46 id47 id48 id49 id50 id51 id52 id53 id54 id55 id56 id57 id58 id59 id60 id61 id62 id63 id64 id65 id66 id67 id68 id69 id70 id71 id72 id73 id74 id75 id76 id77 id78 id79 id80 id81 id82 id83 id84 id85 id86 id87"/>
 </defs>
 <defs class="EmbeddedBulletChars">
  <g id="bullet-char-template-57356" transform="scale(0.00048828125,-0.00048828125)">
   <path d="M 580,1141 L 1163,571 580,0 -4,571 580,1141 Z"/>
  </g>
  <g id="bullet-char-template-57354" transform="scale(0.00048828125,-0.00048828125)">
   <path d="M 8,1128 L 1137,1128 1137,0 8,0 8,1128 Z"/>
  </g>
  <g id="bullet-char-template-10146" transform="scale(0.00048828125,-0.00048828125)">
   <path d="M 174,0 L 602,739 174,1481 1456,739 174,0 Z M 1358,739 L 309,1346 659,739 1358,739 Z"/>
  </g>
  <g id="bullet-char-template-10132" transform="scale(0.00048828125,-0.00048828125)">
   <path d="M 2015,739 L 1276,0 717,0 1260,543 174,543 174,936 1260,936 717,1481 1274,1481 2015,739 Z"/>
  </g>
  <g id="bullet-char-template-10007" transform="scale(0.00048828125,-0.00048828125)">
   <path d="M 0,-2 C -7,14 -16,27 -25,37 L 356,567 C 262,823 215,952 215,954 215,979 228,992 255,992 264,992 276,990 289,987 310,991 331,999 354,1012 L 381,999 492,748 772,1049 836,1024 860,1049 C 881,1039 901,1025 922,1006 886,937 835,863 770,784 769,783 710,716 594,584 L 774,223 C 774,196 753,168 711,139 L 727,119 C 717,90 699,76 672,76 641,76 570,178 457,381 L 164,-76 C 142,-110 111,-127 72,-127 30,-127 9,-110 8,-76 1,-67 -2,-52 -2,-32 -2,-23 -1,-13 0,-2 Z"/>
  </g>
  <g id="bullet-char-template-10004" transform="scale(0.00048828125,-0.00048828125)">
   <path d="M 285,-33 C 182,-33 111,30 74,156 52,228 41,333 41,471 41,549 55,616 82,672 116,743 169,778 240,778 293,778 328,747 346,684 L 369,508 C 377,444 397,411 428,410 L 1163,1116 C 1174,1127 1196,1133 1229,1133 1271,1133 1292,1118 1292,1087 L 1292,965 C 1292,929 1282,901 1262,881 L 442,47 C 390,-6 338,-33 285,-33 Z"/>
  </g>
  <g id="bullet-char-template-9679" transform="scale(0.00048828125,-0.00048828125)">
   <path d="M 813,0 C 632,0 489,54 383,161 276,268 223,411 223,592 223,773 276,916 383,1023 489,1130 632,1184 813,1184 992,1184 1136,1130 1245,1023 1353,916 1407,772 1407,592 1407,412 1353,268 1245,161 1136,54 992,0 813,0 Z"/>
  </g>
  <g id="bullet-char-template-8226" transform="scale(0.00048828125,-0.00048828125)">
   <path d="M 346,457 C 273,457 209,483 155,535 101,586 74,649 74,723 74,796 101,859 155,911 209,963 273,989 346,989 419,989 480,963 531,910 582,859 608,796 608,723 608,648 583,586 532,535 482,483 420,457 346,457 Z"/>
  </g>
  <g id="bullet-char-template-8211" transform="scale(0.00048828125,-0.00048828125)">
   <path d="M -4,459 L 1135,459 1135,606 -4,606 -4,459 Z"/>
  </g>
  <g id="bullet-char-template-61548" transform="scale(0.00048828125,-0.00048828125)">
   <path d="M 173,740 C 173,903 231,1043 346,1159 462,1274 601,1332 765,1332 928,1332 1067,1274 1183,1159 1299,1043 1357,903 1357,740 1357,577 1299,437 1183,322 1067,206 928,148 765,148 601,148 462,206 346,322 231,437 173,577 173,740 Z"/>
  </g>
 </defs>
 <g>
  <g id="id2" class="Master_Slide">
   <g id="bg-id2" class="Background"/>
   <g id="bo-id2" class="BackgroundObjects"/>
  </g>
 </g>
 <g class="SlideGroup">
  <g>
   <g id="container-id1">
    <g id="id1" class="Slide" clip-path="url(#presentation_clip_path)">
     <g class="Page">
      <g class="com.sun.star.drawing.ClosedBezierShape">
       <g id="id3">
        <rect class="BoundingBox" stroke="none" fill="none" x="0" y="1651" width="8001" height="8637"/>
        <path fill="rgb(218,165,32)" stroke="none" d="M 0,10287 C 0,7408 0,4530 0,1651 2667,1651 5333,1651 8000,1651 8000,4530 8000,7408 8000,10287 5333,10287 2667,10287 0,10287 Z"/>
       </g>
      </g>
      <g class="com.sun.star.drawing.ClosedBezierShape">
       <g id="id4">
        <rect class="BoundingBox" stroke="none" fill="none" x="1523" y="3207" width="4948" height="4512"/>
        <path fill="rgb(255,255,255)" stroke="none" d="M 2844,3208 C 3612,3208 4380,3208 5148,3208 5588,3648 6029,4088 6469,4528 6469,5151 6469,5773 6469,6396 6029,6836 5588,7277 5148,7717 4380,7717 3612,7717 2844,7717 2404,7277 1964,6836 1524,6396 1524,5773 1524,5151 1524,4528 1964,4088 2404,3648 2844,3208 Z"/>
        <path fill="none" stroke="rgb(52,101,164)" d="M 2844,3208 L 5148,3208 C 5588,3648 6029,4088 6469,4528 L 6469,6396 5148,7717 2844,7717 C 2404,7277 1964,6836 1524,6396 L 1524,4528 2844,3208 Z"/>
       </g>
      </g>
      <g class="Group">
       <g class="com.sun.star.drawing.ClosedBezierShape">
        <g id="id5">
         <rect class="BoundingBox" stroke="none" fill="none" x="3173" y="2346" width="349" height="336"/>
         <path fill="rgb(255,255,255)" stroke="none" d="M 3397,2681 L 3293,2681 3173,2346 3265,2346 3324,2533 C 3327,2544 3334,2569 3346,2611 3348,2602 3352,2587 3358,2566 3365,2545 3388,2471 3430,2346 L 3521,2346 3397,2681 Z"/>
        </g>
       </g>
       <g class="com.sun.star.drawing.ClosedBezierShape">
        <g id="id6">
         <rect class="BoundingBox" stroke="none" fill="none" x="3566" y="2221" width="88" height="461"/>
         <path fill="rgb(255,255,255)" stroke="none" d="M 3566,2285 C 3566,2264 3566,2242 3566,2221 3595,2221 3624,2221 3653,2221 3653,2242 3653,2264 3653,2285 3624,2285 3595,2285 3566,2285 Z M 3566,2681 C 3566,2569 3566,2458 3566,2346 3595,2346 3624,2346 3653,2346 3653,2458 3653,2569 3653,2681 3624,2681 3595,2681 3566,2681 Z"/>
        </g>
       </g>
       <g class="com.sun.star.drawing.ClosedBezierShape">
        <g id="id7">
         <rect class="BoundingBox" stroke="none" fill="none" x="3726" y="2221" width="321" height="467"/>
         <path fill="rgb(255,255,255)" stroke="none" d="M 3962,2681 C 3961,2678 3960,2670 3959,2658 3958,2645 3957,2635 3957,2626 L 3956,2626 C 3937,2667 3901,2687 3849,2687 3809,2687 3779,2672 3758,2641 3737,2611 3726,2568 3726,2513 3726,2458 3737,2415 3760,2384 3782,2354 3814,2339 3855,2339 3879,2339 3899,2344 3917,2354 3934,2364 3947,2379 3956,2398 L 3957,2398 3956,2343 3956,2221 4044,2221 4044,2608 C 4044,2629 4044,2653 4046,2681 L 3962,2681 Z M 3958,2511 C 3958,2475 3952,2447 3940,2427 3927,2408 3910,2398 3886,2398 3863,2398 3845,2407 3834,2426 3823,2445 3817,2474 3817,2513 3817,2589 3840,2627 3885,2627 3908,2627 3926,2617 3939,2597 3951,2577 3958,2548 3958,2511 Z"/>
        </g>
       </g>
       <g class="com.sun.star.drawing.ClosedBezierShape">
        <g id="id8">
         <rect class="BoundingBox" stroke="none" fill="none" x="4115" y="2339" width="308" height="349"/>
         <path fill="rgb(255,255,255)" stroke="none" d="M 4272,2687 C 4221,2687 4183,2672 4156,2642 4129,2612 4115,2569 4115,2511 4115,2456 4129,2413 4156,2384 4184,2354 4223,2339 4273,2339 4321,2339 4358,2355 4383,2387 4409,2419 4422,2466 4422,2528 L 4422,2530 4206,2530 C 4206,2563 4212,2587 4225,2604 4237,2621 4254,2629 4276,2629 4307,2629 4326,2616 4334,2589 L 4417,2596 C 4393,2657 4345,2687 4272,2687 Z M 4272,2394 C 4251,2394 4236,2401 4225,2415 4214,2430 4208,2449 4207,2475 L 4337,2475 C 4336,2448 4329,2428 4318,2414 4306,2401 4291,2394 4272,2394 Z"/>
        </g>
       </g>
       <g class="com.sun.star.drawing.ClosedBezierShape">
        <g id="id9">
         <rect class="BoundingBox" stroke="none" fill="none" x="4466" y="2339" width="339" height="349"/>
         <path fill="rgb(255,255,255)" stroke="none" d="M 4804,2513 C 4804,2567 4789,2610 4759,2641 4729,2672 4687,2687 4634,2687 4581,2687 4540,2671 4511,2640 4481,2609 4466,2567 4466,2513 4466,2459 4481,2416 4511,2385 4540,2354 4582,2339 4636,2339 4690,2339 4732,2354 4761,2384 4790,2414 4804,2457 4804,2513 Z M 4713,2513 C 4713,2473 4707,2444 4694,2426 4681,2408 4662,2399 4637,2399 4584,2399 4557,2437 4557,2513 4557,2550 4564,2578 4577,2598 4590,2617 4608,2627 4633,2627 4686,2627 4713,2589 4713,2513 Z"/>
        </g>
       </g>
      </g>
      <g class="Group">
       <g class="com.sun.star.drawing.ClosedBezierShape">
        <g id="id10">
         <rect class="BoundingBox" stroke="none" fill="none" x="3257" y="8332" width="306" height="349"/>
         <path fill="rgb(255,255,255)" stroke="none" d="M 3562,8576 C 3562,8608 3548,8634 3522,8652 3495,8671 3459,8680 3412,8680 3366,8680 3330,8673 3306,8658 3281,8644 3265,8621 3257,8590 L 3334,8579 C 3338,8595 3345,8606 3356,8612 3367,8619 3385,8622 3412,8622 3436,8622 3454,8619 3465,8613 3476,8607 3482,8597 3482,8584 3482,8573 3477,8565 3468,8558 3459,8552 3444,8547 3422,8542 3373,8533 3340,8524 3323,8515 3306,8507 3293,8496 3284,8483 3275,8469 3270,8453 3270,8434 3270,8402 3283,8377 3307,8359 3332,8341 3367,8332 3412,8332 3452,8332 3484,8340 3509,8355 3533,8371 3548,8393 3554,8423 L 3477,8431 C 3474,8417 3468,8407 3458,8400 3449,8393 3433,8390 3412,8390 3392,8390 3376,8393 3366,8398 3355,8403 3350,8412 3350,8424 3350,8434 3354,8442 3362,8447 3370,8453 3384,8458 3402,8462 3429,8467 3452,8472 3472,8478 3493,8484 3509,8491 3521,8498 3534,8506 3543,8516 3551,8529 3558,8541 3562,8557 3562,8576 Z"/>
        </g>
       </g>
       <g class="com.sun.star.drawing.ClosedBezierShape">
        <g id="id11">
         <rect class="BoundingBox" stroke="none" fill="none" x="3630" y="8214" width="88" height="461"/>
         <path fill="rgb(255,255,255)" stroke="none" d="M 3630,8278 C 3630,8257 3630,8235 3630,8214 3659,8214 3688,8214 3717,8214 3717,8235 3717,8257 3717,8278 3688,8278 3659,8278 3630,8278 Z M 3630,8674 C 3630,8562 3630,8451 3630,8339 3659,8339 3688,8339 3717,8339 3717,8451 3717,8562 3717,8674 3688,8674 3659,8674 3630,8674 Z"/>
        </g>
       </g>
       <g class="com.sun.star.drawing.ClosedBezierShape">
        <g id="id12">
         <rect class="BoundingBox" stroke="none" fill="none" x="3790" y="8332" width="320" height="478"/>
         <path fill="rgb(255,255,255)" stroke="none" d="M 3949,8809 C 3908,8809 3875,8801 3850,8786 3825,8770 3810,8748 3804,8719 L 3891,8709 C 3894,8722 3901,8733 3911,8740 3921,8748 3935,8752 3951,8752 3975,8752 3993,8744 4004,8729 4015,8714 4021,8692 4021,8663 L 4021,8645 4022,8611 4021,8611 C 4002,8652 3966,8673 3913,8673 3874,8673 3844,8658 3822,8629 3801,8600 3790,8558 3790,8503 3790,8449 3801,8406 3823,8377 3845,8347 3877,8332 3920,8332 3968,8332 4002,8352 4021,8392 L 4023,8392 C 4023,8385 4023,8376 4024,8363 4025,8351 4026,8343 4027,8339 L 4109,8339 C 4108,8361 4108,8387 4108,8417 L 4108,8664 C 4108,8712 4094,8748 4067,8772 4040,8797 4000,8809 3949,8809 Z M 4022,8502 C 4022,8467 4016,8440 4003,8421 3991,8402 3973,8392 3951,8392 3904,8392 3881,8429 3881,8504 3881,8577 3904,8613 3950,8613 3973,8613 3991,8603 4003,8584 4016,8565 4022,8537 4022,8502 Z"/>
        </g>
       </g>
       <g class="com.sun.star.drawing.ClosedBezierShape">
        <g id="id13">
         <rect class="BoundingBox" stroke="none" fill="none" x="4196" y="8331" width="308" height="344"/>
         <path fill="rgb(255,255,255)" stroke="none" d="M 4416,8674 L 4416,8486 C 4416,8427 4396,8397 4356,8397 4335,8397 4318,8406 4305,8424 4292,8442 4286,8466 4286,8494 L 4286,8674 4198,8674 4198,8414 C 4198,8396 4198,8381 4198,8370 4197,8358 4197,8348 4196,8339 L 4279,8339 C 4280,8343 4281,8353 4282,8370 4283,8387 4283,8399 4283,8405 L 4284,8405 C 4296,8380 4311,8361 4329,8349 4347,8338 4368,8332 4392,8332 4428,8332 4455,8343 4474,8365 4493,8387 4503,8419 4503,8461 L 4503,8674 4416,8674 Z"/>
        </g>
       </g>
       <g class="com.sun.star.drawing.ClosedBezierShape">
        <g id="id14">
         <rect class="BoundingBox" stroke="none" fill="none" x="4565" y="8332" width="306" height="349"/>
         <path fill="rgb(255,255,255)" stroke="none" d="M 4870,8576 C 4870,8608 4856,8634 4830,8652 4803,8671 4767,8680 4720,8680 4674,8680 4638,8673 4614,8658 4589,8644 4573,8621 4565,8590 L 4642,8579 C 4646,8595 4653,8606 4664,8612 4675,8619 4693,8622 4720,8622 4744,8622 4762,8619 4773,8613 4784,8607 4790,8597 4790,8584 4790,8573 4785,8565 4776,8558 4767,8552 4752,8547 4730,8542 4681,8533 4648,8524 4631,8515 4614,8507 4601,8496 4592,8483 4583,8469 4578,8453 4578,8434 4578,8402 4591,8377 4615,8359 4640,8341 4675,8332 4720,8332 4760,8332 4792,8340 4817,8355 4841,8371 4856,8393 4862,8423 L 4785,8431 C 4782,8417 4776,8407 4766,8400 4757,8393 4741,8390 4720,8390 4700,8390 4684,8393 4674,8398 4663,8403 4658,8412 4658,8424 4658,8434 4662,8442 4670,8447 4678,8453 4692,8458 4710,8462 4737,8467 4760,8472 4780,8478 4801,8484 4817,8491 4829,8498 4842,8506 4851,8516 4859,8529 4866,8541 4870,8557 4870,8576 Z"/>
        </g>
       </g>
      </g>
      <g class="com.sun.star.drawing.ClosedBezierShape">
       <g id="id15">
        <rect class="BoundingBox" stroke="none" fill="none" x="5915" y="2862" width="331" height="377"/>
        <path fill="rgb(255,255,255)" stroke="none" d="M 5943,3194 C 5925,3175 5916,3156 5916,3136 5916,3117 5926,3097 5946,3078 L 6086,2938 6056,2907 6097,2866 6131,2899 6205,2862 6244,2901 6188,2957 6233,3001 6191,3043 6147,2998 6024,3122 C 6012,3134 6005,3144 6005,3153 6003,3163 6007,3173 6017,3182 6022,3187 6029,3193 6040,3200 L 6003,3237 C 5982,3227 5962,3213 5943,3194 Z"/>
       </g>
      </g>
      <g class="com.sun.star.drawing.ClosedBezierShape">
       <g id="id16">
        <rect class="BoundingBox" stroke="none" fill="none" x="6078" y="3083" width="344" height="349"/>
        <path fill="rgb(255,255,255)" stroke="none" d="M 6128,3379 C 6093,3344 6076,3305 6078,3265 6080,3225 6101,3184 6142,3143 6181,3105 6221,3084 6261,3083 6302,3081 6340,3098 6376,3134 6410,3168 6424,3205 6420,3246 6415,3286 6391,3329 6347,3373 L 6345,3374 6193,3222 C 6170,3245 6157,3266 6154,3287 6150,3307 6157,3325 6173,3341 6194,3363 6217,3368 6242,3354 L 6295,3417 C 6235,3443 6180,3431 6128,3379 Z M 6336,3172 C 6321,3158 6305,3151 6287,3153 6269,3156 6251,3165 6233,3184 L 6325,3276 C 6343,3255 6352,3236 6354,3218 6355,3201 6350,3186 6336,3172 Z"/>
       </g>
      </g>
      <g class="com.sun.star.drawing.ClosedBezierShape">
       <g id="id17">
        <rect class="BoundingBox" stroke="none" fill="none" x="6255" y="3265" width="477" height="477"/>
        <path fill="rgb(255,255,255)" stroke="none" d="M 6432,3674 C 6442,3627 6452,3580 6462,3533 6415,3543 6368,3554 6321,3563 6300,3542 6278,3520 6256,3498 6326,3486 6395,3474 6465,3462 6476,3397 6486,3331 6497,3265 6519,3287 6541,3310 6563,3332 6554,3375 6546,3417 6536,3460 6579,3450 6621,3442 6664,3433 6686,3455 6709,3477 6731,3499 6665,3510 6600,3520 6534,3530 6523,3601 6511,3671 6499,3741 6476,3718 6454,3696 6432,3674 Z"/>
       </g>
      </g>
      <g class="com.sun.star.drawing.ClosedBezierShape">
       <g id="id18">
        <rect class="BoundingBox" stroke="none" fill="none" x="6561" y="3508" width="331" height="377"/>
        <path fill="rgb(255,255,255)" stroke="none" d="M 6589,3840 C 6571,3822 6562,3802 6562,3783 6562,3763 6572,3744 6592,3724 L 6732,3584 6702,3554 6744,3512 6777,3545 6852,3508 6891,3547 6835,3603 6879,3648 6838,3689 6793,3645 6670,3768 C 6658,3780 6652,3790 6651,3800 6650,3810 6654,3819 6663,3829 6668,3834 6675,3839 6686,3846 L 6649,3884 C 6628,3873 6609,3859 6589,3840 Z"/>
       </g>
      </g>
      <g class="Group">
       <g class="com.sun.star.drawing.ClosedBezierShape">
        <g id="id19">
         <rect class="BoundingBox" stroke="none" fill="none" x="568" y="6229" width="350" height="306"/>
         <path fill="rgb(255,255,255)" stroke="none" d="M 813,6229 C 845,6229 871,6243 889,6269 908,6296 917,6332 917,6379 917,6425 910,6461 895,6485 881,6510 858,6526 827,6534 L 816,6457 C 832,6453 843,6446 849,6435 856,6424 859,6406 859,6379 859,6355 856,6337 850,6326 844,6315 834,6309 821,6309 810,6309 802,6314 795,6323 789,6332 784,6347 779,6369 770,6418 761,6451 752,6468 744,6485 733,6498 720,6507 706,6516 690,6521 671,6521 639,6521 614,6508 596,6484 578,6459 569,6424 569,6379 569,6339 577,6307 592,6282 608,6258 630,6243 660,6237 L 668,6314 C 654,6317 644,6323 637,6333 630,6342 627,6358 627,6379 627,6399 630,6415 635,6425 640,6436 649,6441 661,6441 671,6441 679,6437 684,6429 690,6421 695,6407 699,6389 704,6362 709,6339 715,6319 721,6298 728,6282 735,6270 743,6257 753,6248 766,6240 778,6233 794,6229 813,6229 Z"/>
        </g>
       </g>
       <g class="com.sun.star.drawing.ClosedBezierShape">
        <g id="id20">
         <rect class="BoundingBox" stroke="none" fill="none" x="569" y="5873" width="349" height="309"/>
         <path fill="rgb(255,255,255)" stroke="none" d="M 917,6023 C 917,6074 902,6112 872,6139 842,6166 799,6180 741,6180 686,6180 643,6166 614,6139 584,6111 569,6072 569,6022 569,5974 585,5937 617,5912 649,5886 696,5873 758,5873 L 760,5873 760,6089 C 793,6089 817,6083 834,6070 851,6058 859,6041 859,6019 859,5988 846,5969 819,5961 L 826,5878 C 887,5902 917,5950 917,6023 Z M 624,6023 C 624,6044 631,6059 645,6070 660,6081 679,6087 705,6088 L 705,5958 C 678,5959 658,5966 644,5977 631,5989 624,6004 624,6023 Z"/>
        </g>
       </g>
       <g class="com.sun.star.drawing.ClosedBezierShape">
        <g id="id21">
         <rect class="BoundingBox" stroke="none" fill="none" x="569" y="5504" width="344" height="308"/>
         <path fill="rgb(255,255,255)" stroke="none" d="M 911,5591 L 722,5591 C 663,5591 634,5611 634,5651 634,5672 643,5689 661,5702 679,5715 703,5721 731,5721 L 911,5721 911,5809 651,5809 C 633,5809 618,5809 607,5809 595,5810 585,5810 576,5811 L 576,5728 C 580,5727 590,5726 607,5725 624,5724 636,5724 642,5724 L 642,5723 C 617,5711 598,5696 586,5678 575,5660 569,5639 569,5615 569,5579 580,5552 602,5533 624,5514 656,5504 698,5504 L 911,5504 911,5591 Z"/>
        </g>
       </g>
       <g class="com.sun.star.drawing.ClosedBezierShape">
        <g id="id22">
         <rect class="BoundingBox" stroke="none" fill="none" x="569" y="5137" width="349" height="306"/>
         <path fill="rgb(255,255,255)" stroke="none" d="M 813,5137 C 845,5137 871,5151 889,5177 908,5204 917,5240 917,5287 917,5333 910,5369 895,5393 881,5418 858,5434 827,5442 L 816,5365 C 832,5361 843,5354 849,5343 856,5332 859,5314 859,5287 859,5263 856,5245 850,5234 844,5223 834,5217 821,5217 810,5217 802,5222 795,5231 789,5240 784,5255 779,5277 770,5326 761,5359 752,5376 744,5393 733,5406 720,5415 706,5424 690,5429 671,5429 639,5429 614,5416 596,5392 578,5367 569,5332 569,5287 569,5247 577,5215 592,5190 608,5166 630,5151 660,5145 L 668,5222 C 654,5225 644,5231 637,5241 630,5250 627,5266 627,5287 627,5307 630,5323 635,5333 640,5344 649,5349 661,5349 671,5349 679,5345 684,5337 690,5329 695,5315 699,5297 704,5270 709,5247 715,5227 721,5206 728,5190 735,5178 743,5165 753,5156 766,5148 778,5141 794,5137 813,5137 Z"/>
        </g>
       </g>
       <g class="com.sun.star.drawing.ClosedBezierShape">
        <g id="id23">
         <rect class="BoundingBox" stroke="none" fill="none" x="569" y="4780" width="350" height="308"/>
         <path fill="rgb(255,255,255)" stroke="none" d="M 917,4930 C 917,4981 902,5019 872,5046 842,5073 799,5087 741,5087 686,5087 643,5073 614,5046 584,5018 569,4979 569,4929 569,4881 585,4844 617,4819 649,4793 696,4780 758,4780 L 760,4780 760,4996 C 793,4996 817,4990 834,4977 851,4965 859,4948 859,4926 859,4895 846,4876 819,4868 L 826,4785 C 887,4809 917,4857 917,4930 Z M 624,4930 C 624,4951 631,4966 645,4977 660,4988 679,4994 705,4995 L 705,4865 C 678,4866 658,4873 644,4884 631,4896 624,4911 624,4930 Z"/>
        </g>
       </g>
       <g class="com.sun.star.drawing.ClosedBezierShape">
        <g id="id24">
         <rect class="BoundingBox" stroke="none" fill="none" x="569" y="4434" width="350" height="306"/>
         <path fill="rgb(255,255,255)" stroke="none" d="M 813,4434 C 845,4434 871,4448 889,4474 908,4501 917,4537 917,4584 917,4630 910,4666 895,4690 881,4715 858,4731 827,4739 L 816,4662 C 832,4658 843,4651 849,4640 856,4629 859,4611 859,4584 859,4560 856,4542 850,4531 844,4520 834,4514 821,4514 810,4514 802,4519 795,4528 789,4537 784,4552 779,4574 770,4623 761,4656 752,4673 744,4690 733,4703 720,4712 706,4721 690,4726 671,4726 639,4726 614,4713 596,4689 578,4664 569,4629 569,4584 569,4544 577,4512 592,4487 608,4463 630,4448 660,4442 L 668,4519 C 654,4522 644,4528 637,4538 630,4547 627,4563 627,4584 627,4604 630,4620 635,4630 640,4641 649,4646 661,4646 671,4646 679,4642 684,4634 690,4626 695,4612 699,4594 704,4567 709,4544 715,4524 721,4503 728,4487 735,4475 743,4462 753,4453 766,4445 778,4438 794,4434 813,4434 Z"/>
        </g>
       </g>
      </g>
      <g class="com.sun.star.drawing.ClosedBezierShape">
       <g id="id25">
        <rect class="BoundingBox" stroke="none" fill="none" x="5526" y="7834" width="388" height="388"/>
        <path fill="rgb(255,255,255)" stroke="none" d="M 5571,7941 C 5556,7926 5541,7911 5526,7896 5547,7875 5567,7855 5588,7834 5603,7849 5618,7864 5633,7879 5612,7900 5592,7920 5571,7941 Z M 5851,8221 C 5772,8142 5693,8063 5614,7984 5635,7963 5655,7943 5676,7922 5755,8001 5834,8080 5913,8159 5892,8180 5872,8200 5851,8221 Z"/>
       </g>
      </g>
      <g class="com.sun.star.drawing.ClosedBezierShape">
       <g id="id26">
        <rect class="BoundingBox" stroke="none" fill="none" x="5738" y="7682" width="456" height="416"/>
        <path fill="rgb(255,255,255)" stroke="none" d="M 6130,7942 L 5997,7809 C 5955,7767 5920,7760 5892,7788 5877,7803 5872,7822 5875,7844 5879,7866 5891,7887 5911,7907 L 6038,8034 5977,8096 5793,7912 C 5780,7899 5769,7889 5761,7881 5753,7873 5745,7867 5738,7861 L 5797,7802 C 5800,7804 5808,7811 5821,7822 5833,7833 5842,7841 5846,7846 L 5847,7845 C 5837,7818 5835,7795 5839,7774 5844,7753 5854,7734 5872,7717 5897,7692 5924,7680 5953,7682 5982,7684 6011,7700 6041,7730 L 6192,7881 6130,7942 Z"/>
       </g>
      </g>
      <g class="com.sun.star.drawing.ClosedBezierShape">
       <g id="id27">
        <rect class="BoundingBox" stroke="none" fill="none" x="5986" y="7463" width="378" height="330"/>
        <path fill="rgb(255,255,255)" stroke="none" d="M 6317,7764 C 6299,7782 6280,7792 6261,7791 6241,7791 6221,7781 6201,7761 L 6061,7622 6031,7652 5989,7610 6023,7577 5986,7502 6025,7463 6080,7519 6125,7474 6167,7516 6122,7561 6245,7684 C 6257,7695 6268,7702 6277,7703 6287,7704 6297,7700 6306,7691 6311,7686 6317,7678 6324,7667 L 6362,7705 C 6351,7725 6337,7745 6317,7764 Z"/>
       </g>
      </g>
      <g class="com.sun.star.drawing.ClosedBezierShape">
       <g id="id28">
        <rect class="BoundingBox" stroke="none" fill="none" x="6207" y="7285" width="349" height="345"/>
        <path fill="rgb(255,255,255)" stroke="none" d="M 6503,7578 C 6468,7614 6430,7630 6389,7628 6349,7626 6309,7605 6268,7565 6229,7525 6209,7486 6207,7445 6205,7405 6222,7367 6258,7331 6292,7297 6330,7282 6370,7287 6411,7291 6453,7316 6496,7359 L 6498,7361 6346,7513 C 6369,7536 6391,7549 6411,7553 6432,7556 6450,7550 6465,7534 6487,7512 6491,7489 6478,7464 L 6541,7411 C 6567,7471 6555,7526 6503,7578 Z M 6296,7371 C 6282,7385 6276,7401 6278,7419 6280,7437 6290,7455 6308,7474 L 6400,7382 C 6379,7364 6360,7354 6343,7353 6325,7351 6310,7357 6296,7371 Z"/>
       </g>
      </g>
      <g class="com.sun.star.drawing.ClosedBezierShape">
       <g id="id29">
        <rect class="BoundingBox" stroke="none" fill="none" x="6325" y="7035" width="388" height="389"/>
        <path fill="rgb(255,255,255)" stroke="none" d="M 6650,7422 C 6542,7313 6433,7205 6325,7097 6346,7076 6366,7056 6387,7035 6495,7143 6603,7252 6712,7360 6691,7381 6671,7401 6650,7422 Z"/>
       </g>
      </g>
      <g class="com.sun.star.drawing.ClosedBezierShape">
       <g id="id30">
        <rect class="BoundingBox" stroke="none" fill="none" x="6451" y="6910" width="388" height="388"/>
        <path fill="rgb(255,255,255)" stroke="none" d="M 6776,7297 C 6668,7188 6559,7080 6451,6972 6472,6951 6492,6931 6513,6910 6621,7018 6729,7127 6838,7235 6817,7256 6797,7276 6776,7297 Z"/>
       </g>
      </g>
      <g class="com.sun.star.drawing.ClosedBezierShape">
       <g id="id31">
        <rect class="BoundingBox" stroke="none" fill="none" x="6577" y="6784" width="388" height="388"/>
        <path fill="rgb(255,255,255)" stroke="none" d="M 6622,6891 C 6607,6876 6592,6861 6577,6846 6598,6825 6618,6805 6639,6784 6654,6799 6669,6814 6684,6829 6663,6850 6643,6870 6622,6891 Z M 6902,7171 C 6823,7092 6744,7013 6665,6934 6686,6913 6706,6893 6727,6872 6806,6951 6885,7030 6964,7109 6943,7130 6923,7150 6902,7171 Z"/>
       </g>
      </g>
      <g class="com.sun.star.drawing.ClosedBezierShape">
       <g id="id32">
        <rect class="BoundingBox" stroke="none" fill="none" x="5942" y="8169" width="455" height="504"/>
        <path fill="rgb(255,255,255)" stroke="none" d="M 6338,8615 C 6309,8644 6280,8662 6251,8668 6223,8675 6196,8670 6172,8654 L 6226,8585 C 6238,8592 6250,8595 6263,8593 6275,8591 6288,8585 6299,8573 6316,8556 6324,8538 6321,8519 6318,8501 6306,8481 6285,8460 L 6273,8448 6250,8424 6249,8424 C 6265,8467 6254,8507 6216,8544 6189,8572 6157,8583 6121,8577 6085,8572 6048,8550 6009,8511 5971,8472 5949,8435 5943,8398 5938,8361 5950,8328 5980,8298 6014,8264 6053,8254 6094,8269 L 6095,8268 C 6090,8263 6084,8256 6076,8247 6068,8237 6063,8231 6061,8227 L 6119,8169 C 6134,8186 6152,8204 6173,8225 L 6348,8400 C 6381,8434 6397,8469 6395,8506 6394,8542 6374,8578 6338,8615 Z M 6172,8346 C 6148,8322 6124,8307 6102,8302 6080,8297 6060,8303 6044,8319 6011,8352 6021,8394 6074,8447 6125,8499 6167,8508 6200,8475 6216,8459 6222,8440 6217,8417 6212,8395 6197,8371 6172,8346 Z"/>
       </g>
      </g>
      <g class="com.sun.star.drawing.ClosedBezierShape">
       <g id="id33">
        <rect class="BoundingBox" stroke="none" fill="none" x="6223" y="7958" width="349" height="345"/>
        <path fill="rgb(255,255,255)" stroke="none" d="M 6519,8251 C 6484,8287 6446,8303 6405,8301 6365,8299 6325,8278 6284,8238 6245,8198 6225,8159 6223,8118 6221,8078 6238,8040 6274,8004 6308,7970 6346,7955 6386,7960 6427,7964 6469,7989 6512,8032 L 6514,8034 6362,8186 C 6385,8209 6407,8222 6427,8226 6448,8229 6466,8223 6481,8207 6503,8185 6507,8162 6494,8137 L 6557,8084 C 6583,8144 6571,8199 6519,8251 Z M 6312,8044 C 6298,8058 6292,8074 6294,8092 6296,8110 6306,8128 6324,8147 L 6416,8055 C 6395,8037 6376,8027 6359,8026 6341,8024 6326,8030 6312,8044 Z"/>
       </g>
      </g>
      <g class="com.sun.star.drawing.ClosedBezierShape">
       <g id="id34">
        <rect class="BoundingBox" stroke="none" fill="none" x="6428" y="7681" width="456" height="416"/>
        <path fill="rgb(255,255,255)" stroke="none" d="M 6820,7941 L 6687,7808 C 6645,7766 6610,7759 6582,7787 6567,7802 6562,7821 6565,7843 6569,7865 6581,7886 6601,7906 L 6728,8033 6667,8095 6483,7911 C 6470,7898 6459,7888 6451,7880 6443,7872 6435,7866 6428,7860 L 6487,7801 C 6490,7803 6498,7810 6511,7821 6523,7832 6532,7840 6536,7845 L 6537,7844 C 6527,7817 6525,7794 6529,7773 6534,7752 6544,7733 6562,7716 6587,7691 6614,7679 6643,7681 6672,7683 6701,7699 6731,7729 L 6882,7880 6820,7941 Z"/>
       </g>
      </g>
      <g class="com.sun.star.drawing.ClosedBezierShape">
       <g id="id35">
        <rect class="BoundingBox" stroke="none" fill="none" x="6748" y="7428" width="348" height="349"/>
        <path fill="rgb(255,255,255)" stroke="none" d="M 7045,7724 C 7009,7760 6970,7777 6929,7775 6888,7774 6848,7754 6810,7715 6771,7676 6750,7636 6748,7594 6746,7553 6763,7514 6799,7477 6827,7449 6857,7433 6890,7429 6922,7425 6953,7433 6982,7453 L 6923,7518 C 6909,7508 6895,7502 6881,7502 6867,7502 6853,7508 6840,7521 6809,7553 6819,7595 6872,7648 6927,7703 6970,7714 7003,7681 7014,7670 7020,7656 7021,7641 7021,7626 7015,7610 7003,7594 L 7067,7535 C 7081,7553 7090,7573 7093,7596 7097,7618 7094,7640 7086,7662 7077,7684 7064,7705 7045,7724 Z"/>
       </g>
      </g>
      <g class="com.sun.star.drawing.ClosedBezierShape">
       <g id="id36">
        <rect class="BoundingBox" stroke="none" fill="none" x="6995" y="7185" width="349" height="345"/>
        <path fill="rgb(255,255,255)" stroke="none" d="M 7291,7478 C 7256,7514 7218,7530 7177,7528 7137,7526 7097,7505 7056,7465 7017,7425 6997,7386 6995,7345 6993,7305 7010,7267 7046,7231 7080,7197 7118,7182 7158,7187 7199,7191 7241,7216 7284,7259 L 7286,7261 7134,7413 C 7157,7436 7179,7449 7199,7453 7220,7456 7238,7450 7253,7434 7275,7412 7279,7389 7266,7364 L 7329,7311 C 7355,7371 7343,7426 7291,7478 Z M 7084,7271 C 7070,7285 7064,7301 7066,7319 7068,7337 7078,7355 7096,7374 L 7188,7282 C 7167,7264 7148,7254 7131,7253 7113,7251 7098,7257 7084,7271 Z"/>
       </g>
      </g>
      <g class="Group">
       <g class="com.sun.star.drawing.OpenBezierShape">
        <g id="id37">
         <rect class="BoundingBox" stroke="none" fill="none" x="263" y="519" width="151" height="634"/>
         <path fill="none" stroke="rgb(218,165,32)" stroke-width="150" stroke-linejoin="round" d="M 338,594 L 338,1077"/>
        </g>
       </g>
       <g class="com.sun.star.drawing.OpenBezierShape">
        <g id="id38">
         <rect class="BoundingBox" stroke="none" fill="none" x="246" y="218" width="479" height="492"/>
         <path fill="none" stroke="rgb(218,165,32)" stroke-width="150" stroke-linejoin="round" d="M 321,634 C 430,521 540,407 649,293"/>
        </g>
       </g>
       <g class="com.sun.star.drawing.OpenBezierShape">
        <g id="id39">
         <rect class="BoundingBox" stroke="none" fill="none" x="245" y="958" width="479" height="492"/>
         <path fill="none" stroke="rgb(218,165,32)" stroke-width="150" stroke-linejoin="round" d="M 320,1033 C 429,1146 540,1261 648,1374"/>
        </g>
       </g>
       <g class="com.sun.star.drawing.OpenBezierShape">
        <g id="id40">
         <rect class="BoundingBox" stroke="none" fill="none" x="524" y="1275" width="615" height="151"/>
         <path fill="none" stroke="rgb(218,165,32)" stroke-width="150" stroke-linejoin="round" d="M 1063,1350 L 599,1350"/>
        </g>
       </g>
       <g class="com.sun.star.drawing.OpenBezierShape">
        <g id="id41">
         <rect class="BoundingBox" stroke="none" fill="none" x="524" y="239" width="615" height="151"/>
         <path fill="none" stroke="rgb(218,165,32)" stroke-width="150" stroke-linejoin="round" d="M 1063,314 L 599,314"/>
        </g>
       </g>
       <g class="com.sun.star.drawing.OpenBezierShape">
        <g id="id42">
         <rect class="BoundingBox" stroke="none" fill="none" x="573" y="762" width="615" height="151"/>
         <path fill="none" stroke="rgb(218,165,32)" stroke-width="150" stroke-linejoin="round" d="M 1112,837 L 648,837"/>
        </g>
       </g>
       <g class="com.sun.star.drawing.OpenBezierShape">
        <g id="id43">
         <rect class="BoundingBox" stroke="none" fill="none" x="1118" y="720" width="480" height="491"/>
         <path fill="none" stroke="rgb(218,165,32)" stroke-width="150" stroke-linejoin="round" d="M 1193,1135 C 1302,1023 1412,909 1521,795"/>
        </g>
       </g>
       <g class="com.sun.star.drawing.OpenBezierShape">
        <g id="id44">
         <rect class="BoundingBox" stroke="none" fill="none" x="1121" y="459" width="479" height="492"/>
         <path fill="none" stroke="rgb(218,165,32)" stroke-width="150" stroke-linejoin="round" d="M 1196,534 C 1305,647 1416,762 1524,875"/>
        </g>
       </g>
      </g>
      <g class="com.sun.star.drawing.ClosedBezierShape">
       <g id="id45">
        <rect class="BoundingBox" stroke="none" fill="none" x="6978" y="4824" width="467" height="321"/>
        <path fill="rgb(255,255,255)" stroke="none" d="M 6984,5060 C 6987,5058 6995,5057 7008,5056 7020,5055 7030,5055 7039,5055 L 7039,5053 C 6998,5034 6979,4999 6979,4946 6979,4907 6993,4876 7024,4856 7054,4834 7097,4823 7152,4824 7208,4823 7250,4835 7281,4857 7311,4880 7326,4912 7326,4953 7326,4976 7322,4997 7311,5014 7301,5031 7286,5045 7267,5054 L 7267,5055 7322,5054 7444,5054 7444,5142 7057,5141 C 7037,5142 7012,5142 6984,5144 L 6984,5060 Z M 7154,5055 C 7191,5055 7218,5049 7238,5038 7258,5025 7267,5007 7267,4983 7267,4961 7258,4943 7239,4932 7220,4920 7191,4915 7152,4915 7076,4914 7039,4937 7038,4983 7038,5006 7049,5024 7068,5036 7088,5049 7117,5055 7154,5055 Z"/>
       </g>
      </g>
      <g class="com.sun.star.drawing.ClosedBezierShape">
       <g id="id46">
        <rect class="BoundingBox" stroke="none" fill="none" x="6978" y="5205" width="350" height="340"/>
        <path fill="rgb(255,255,255)" stroke="none" d="M 6979,5308 C 6978,5277 6987,5250 7005,5233 7022,5215 7047,5206 7079,5205 7114,5206 7140,5217 7158,5239 7177,5262 7186,5295 7186,5338 L 7188,5410 7205,5410 C 7227,5410 7243,5406 7254,5399 7265,5391 7271,5378 7271,5361 7270,5345 7266,5333 7259,5326 7251,5318 7239,5313 7222,5312 L 7226,5221 C 7259,5226 7285,5241 7301,5266 7318,5290 7326,5323 7326,5365 7326,5407 7316,5439 7295,5463 7274,5485 7244,5497 7206,5497 L 7084,5497 C 7066,5497 7052,5499 7045,5504 7038,5508 7034,5515 7034,5525 7034,5531 7035,5538 7036,5544 L 6989,5544 C 6987,5539 6986,5534 6986,5530 6984,5526 6983,5521 6983,5518 6983,5513 6981,5509 6981,5505 6981,5500 6981,5494 6981,5489 6981,5466 6986,5451 6997,5440 7008,5429 7024,5423 7044,5421 L 7044,5419 C 7000,5395 6979,5358 6979,5308 Z M 7140,5410 L 7139,5366 C 7138,5345 7136,5330 7133,5323 7128,5314 7123,5308 7116,5303 7109,5299 7098,5296 7087,5296 7070,5296 7058,5301 7051,5307 7043,5315 7039,5324 7039,5337 7039,5350 7043,5363 7050,5374 7058,5385 7068,5394 7081,5401 7094,5407 7109,5410 7123,5410 L 7140,5410 Z"/>
       </g>
      </g>
      <g class="com.sun.star.drawing.ClosedBezierShape">
       <g id="id47">
        <rect class="BoundingBox" stroke="none" fill="none" x="6977" y="5545" width="422" height="199"/>
        <path fill="rgb(255,255,255)" stroke="none" d="M 6978,5668 C 6978,5643 6985,5623 6998,5610 7013,5595 7034,5588 7062,5588 L 7260,5588 7260,5546 7319,5546 7319,5593 7398,5620 7397,5675 7319,5675 7319,5738 7260,5738 7260,5675 7086,5675 C 7069,5675 7057,5678 7050,5684 7042,5690 7038,5700 7038,5713 7038,5720 7039,5730 7042,5743 L 6988,5742 C 6981,5720 6978,5697 6978,5668 Z"/>
       </g>
      </g>
      <g class="com.sun.star.drawing.ClosedBezierShape">
       <g id="id48">
        <rect class="BoundingBox" stroke="none" fill="none" x="6977" y="5768" width="350" height="341"/>
        <path fill="rgb(255,255,255)" stroke="none" d="M 6978,5872 C 6977,5840 6986,5814 7004,5796 7022,5779 7046,5769 7078,5769 7113,5769 7140,5781 7157,5803 7176,5825 7185,5859 7186,5902 L 7187,5974 7204,5974 C 7226,5973 7242,5970 7254,5963 7264,5955 7270,5942 7270,5925 7269,5909 7266,5897 7259,5890 7251,5882 7239,5877 7222,5876 L 7225,5784 C 7259,5789 7284,5805 7300,5830 7317,5854 7326,5886 7326,5929 7326,5971 7315,6003 7295,6026 7273,6049 7244,6060 7205,6061 L 7083,6061 C 7065,6061 7051,6063 7044,6067 7037,6071 7033,6078 7033,6088 7034,6095 7034,6101 7035,6107 L 6988,6107 C 6986,6103 6986,6098 6985,6094 6983,6090 6983,6085 6982,6081 6982,6077 6981,6073 6981,6069 6980,6064 6980,6058 6980,6052 6980,6030 6986,6014 6996,6004 7007,5993 7023,5987 7044,5984 L 7044,5983 C 6999,5958 6978,5921 6978,5872 Z M 7139,5974 L 7138,5929 C 7138,5909 7136,5894 7132,5886 7128,5878 7123,5871 7115,5866 7108,5862 7097,5860 7086,5860 7069,5860 7058,5864 7050,5871 7042,5878 7039,5888 7039,5900 7038,5914 7042,5926 7049,5938 7057,5948 7068,5958 7080,5965 7093,5970 7108,5974 7122,5974 L 7139,5974 Z"/>
       </g>
      </g>
      <g class="com.sun.star.drawing.ClosedBezierShape">
       <g id="id49">
        <rect class="BoundingBox" stroke="none" fill="none" x="1013" y="6992" width="542" height="580"/>
        <path fill="rgb(255,255,255)" stroke="none" d="M 1153,7370 L 1286,7237 C 1328,7195 1337,7163 1313,7139 1300,7126 1284,7122 1263,7127 1243,7132 1222,7145 1202,7165 L 1075,7292 1013,7231 1197,7047 C 1210,7034 1220,7023 1228,7015 1235,7007 1242,6999 1248,6992 L 1307,7051 C 1305,7054 1298,7062 1287,7075 1275,7087 1267,7096 1263,7100 L 1264,7101 C 1290,7091 1312,7087 1332,7090 1351,7093 1369,7103 1385,7119 1421,7155 1426,7194 1399,7236 L 1400,7238 C 1427,7227 1450,7224 1469,7227 1488,7230 1507,7241 1524,7258 1547,7281 1557,7307 1553,7334 1550,7362 1533,7391 1504,7420 L 1353,7571 1292,7510 1425,7376 C 1467,7335 1476,7302 1452,7278 1440,7266 1424,7262 1405,7266 1386,7270 1365,7282 1344,7301 L 1214,7432 1153,7370 Z"/>
       </g>
      </g>
      <g class="com.sun.star.drawing.ClosedBezierShape">
       <g id="id50">
        <rect class="BoundingBox" stroke="none" fill="none" x="1445" y="7389" width="416" height="455"/>
        <path fill="rgb(255,255,255)" stroke="none" d="M 1706,7451 L 1573,7583 C 1531,7625 1525,7660 1553,7688 1568,7703 1586,7708 1608,7705 1630,7701 1651,7689 1671,7669 L 1798,7543 1859,7604 1675,7788 C 1655,7808 1638,7826 1624,7843 L 1565,7784 C 1585,7761 1600,7745 1610,7734 L 1609,7733 C 1583,7743 1559,7745 1538,7741 1518,7737 1498,7726 1481,7708 1456,7683 1444,7656 1446,7627 1448,7598 1464,7569 1494,7539 L 1644,7389 1706,7451 Z"/>
       </g>
      </g>
      <g class="com.sun.star.drawing.ClosedBezierShape">
       <g id="id51">
        <rect class="BoundingBox" stroke="none" fill="none" x="1686" y="7580" width="388" height="389"/>
        <path fill="rgb(255,255,255)" stroke="none" d="M 1686,7905 C 1794,7797 1903,7688 2011,7580 2032,7601 2052,7621 2073,7642 1964,7750 1856,7858 1748,7967 1727,7946 1707,7926 1686,7905 Z"/>
       </g>
      </g>
      <g class="com.sun.star.drawing.ClosedBezierShape">
       <g id="id52">
        <rect class="BoundingBox" stroke="none" fill="none" x="1841" y="7764" width="329" height="377"/>
        <path fill="rgb(255,255,255)" stroke="none" d="M 1868,8095 C 1850,8077 1841,8058 1841,8039 1841,8019 1851,7999 1871,7979 L 2011,7839 1981,7809 2023,7767 2056,7801 2131,7764 2169,7803 2114,7858 2159,7903 2117,7945 2072,7900 1949,8023 C 1937,8035 1931,8046 1930,8055 1929,8065 1933,8075 1942,8084 1947,8089 1955,8095 1966,8102 L 1927,8140 C 1907,8129 1888,8115 1868,8095 Z"/>
       </g>
      </g>
      <g class="com.sun.star.drawing.ClosedBezierShape">
       <g id="id53">
        <rect class="BoundingBox" stroke="none" fill="none" x="1962" y="7855" width="388" height="388"/>
        <path fill="rgb(255,255,255)" stroke="none" d="M 2242,7900 C 2257,7885 2272,7870 2287,7855 2308,7876 2328,7896 2349,7917 2334,7932 2319,7947 2304,7962 2283,7941 2263,7921 2242,7900 Z M 1962,8180 C 2041,8101 2120,8022 2199,7943 2219,7964 2240,7984 2260,8005 2182,8084 2103,8163 2024,8242 2003,8221 1983,8201 1962,8180 Z"/>
       </g>
      </g>
      <g class="com.sun.star.drawing.ClosedBezierShape">
       <g id="id54">
        <rect class="BoundingBox" stroke="none" fill="none" x="698" y="7292" width="399" height="396"/>
        <path fill="rgb(255,255,255)" stroke="none" d="M 772,7687 L 698,7614 850,7292 915,7357 824,7531 C 819,7540 806,7564 785,7601 792,7597 806,7589 826,7579 845,7568 914,7533 1032,7473 L 1096,7538 772,7687 Z"/>
       </g>
      </g>
      <g class="com.sun.star.drawing.ClosedBezierShape">
       <g id="id55">
        <rect class="BoundingBox" stroke="none" fill="none" x="932" y="7612" width="345" height="349"/>
        <path fill="rgb(255,255,255)" stroke="none" d="M 984,7908 C 948,7873 931,7835 933,7794 935,7754 956,7714 997,7673 1036,7634 1076,7614 1116,7612 1157,7610 1195,7627 1231,7663 1265,7697 1279,7735 1275,7775 1270,7816 1246,7858 1202,7901 L 1201,7903 1048,7751 C 1025,7774 1012,7796 1009,7816 1006,7837 1012,7855 1028,7870 1049,7892 1073,7896 1097,7883 L 1150,7946 C 1091,7972 1035,7960 984,7908 Z M 1191,7701 C 1176,7687 1160,7681 1142,7683 1124,7685 1106,7695 1088,7713 L 1180,7805 C 1198,7784 1207,7765 1209,7748 1210,7730 1204,7715 1191,7701 Z"/>
       </g>
      </g>
      <g class="com.sun.star.drawing.ClosedBezierShape">
       <g id="id56">
        <rect class="BoundingBox" stroke="none" fill="none" x="1139" y="7817" width="377" height="302"/>
        <path fill="rgb(255,255,255)" stroke="none" d="M 1140,8056 L 1321,7874 C 1334,7861 1345,7850 1353,7841 1362,7832 1369,7824 1375,7817 L 1434,7876 C 1432,7879 1424,7887 1412,7901 1399,7915 1391,7925 1386,7929 L 1387,7930 C 1410,7919 1427,7913 1438,7911 1450,7908 1461,7909 1470,7912 1480,7915 1490,7922 1499,7931 1507,7939 1512,7947 1515,7954 L 1463,8005 C 1456,7993 1448,7983 1440,7976 1425,7960 1407,7955 1386,7958 1365,7962 1342,7976 1318,8001 L 1202,8117 1140,8056 Z"/>
       </g>
      </g>
      <g class="com.sun.star.drawing.ClosedBezierShape">
       <g id="id57">
        <rect class="BoundingBox" stroke="none" fill="none" x="1340" y="8024" width="365" height="365"/>
        <path fill="rgb(255,255,255)" stroke="none" d="M 1582,8360 C 1559,8383 1532,8391 1500,8385 1468,8380 1436,8360 1403,8327 1370,8295 1350,8264 1343,8237 1336,8209 1341,8182 1357,8154 L 1419,8201 C 1411,8215 1408,8228 1411,8240 1414,8252 1425,8267 1444,8286 1461,8303 1476,8314 1488,8317 1500,8321 1511,8318 1520,8309 1528,8301 1531,8292 1529,8281 1527,8270 1520,8256 1508,8237 1480,8196 1463,8166 1456,8148 1450,8130 1449,8113 1452,8097 1455,8081 1463,8067 1477,8053 1500,8030 1526,8021 1556,8026 1586,8031 1617,8050 1649,8081 1677,8110 1695,8138 1701,8166 1707,8194 1702,8221 1685,8246 L 1625,8197 C 1633,8186 1636,8174 1634,8162 1632,8151 1623,8137 1608,8123 1594,8108 1581,8099 1570,8095 1559,8092 1549,8094 1540,8103 1533,8110 1531,8118 1532,8128 1534,8137 1540,8150 1551,8166 1565,8188 1578,8209 1588,8227 1599,8246 1605,8262 1609,8276 1612,8290 1612,8305 1608,8318 1604,8332 1596,8346 1582,8360 Z"/>
       </g>
      </g>
      <g class="com.sun.star.drawing.ClosedBezierShape">
       <g id="id58">
        <rect class="BoundingBox" stroke="none" fill="none" x="1604" y="8283" width="344" height="349"/>
        <path fill="rgb(255,255,255)" stroke="none" d="M 1655,8579 C 1619,8544 1602,8506 1604,8465 1606,8425 1627,8385 1668,8344 1707,8305 1747,8285 1787,8283 1828,8281 1866,8298 1902,8334 1936,8368 1950,8406 1946,8446 1941,8487 1917,8529 1873,8572 L 1872,8574 1719,8422 C 1696,8445 1683,8467 1680,8487 1677,8508 1683,8526 1699,8541 1720,8563 1744,8567 1768,8554 L 1821,8617 C 1762,8643 1706,8631 1655,8579 Z M 1862,8372 C 1847,8358 1831,8352 1813,8354 1795,8356 1777,8366 1759,8384 L 1851,8476 C 1869,8455 1878,8436 1880,8419 1881,8401 1875,8386 1862,8372 Z"/>
       </g>
      </g>
      <g class="Group">
       <g class="com.sun.star.drawing.ClosedBezierShape">
        <g id="id59">
         <rect class="BoundingBox" stroke="none" fill="none" x="1023" y="3585" width="421" height="370"/>
         <path fill="rgb(255,255,255)" stroke="none" d="M 1283,3918 C 1261,3941 1236,3953 1211,3953 1186,3953 1162,3942 1139,3920 1115,3895 1104,3868 1107,3840 1110,3811 1127,3781 1157,3750 L 1207,3698 1195,3686 C 1179,3671 1165,3662 1152,3659 1139,3657 1126,3662 1114,3674 1103,3686 1097,3697 1097,3707 1097,3718 1102,3730 1113,3743 L 1046,3805 C 1026,3777 1019,3749 1025,3720 1030,3691 1047,3662 1077,3632 1107,3602 1137,3587 1168,3585 1199,3584 1228,3597 1256,3624 L 1342,3710 C 1355,3723 1366,3731 1374,3733 1382,3735 1390,3733 1397,3726 1401,3721 1405,3716 1409,3711 L 1442,3744 C 1440,3749 1437,3753 1435,3756 1433,3760 1430,3764 1428,3767 1425,3770 1423,3774 1420,3777 1417,3781 1413,3785 1409,3789 1393,3805 1378,3812 1363,3812 1348,3812 1332,3805 1316,3792 L 1315,3793 C 1329,3842 1318,3883 1283,3918 Z M 1241,3732 L 1210,3764 C 1196,3779 1187,3791 1184,3799 1181,3808 1180,3816 1182,3825 1184,3833 1190,3842 1198,3850 1210,3862 1221,3867 1231,3868 1242,3868 1251,3864 1260,3855 1270,3845 1276,3834 1279,3821 1281,3808 1280,3794 1276,3780 1271,3767 1263,3754 1253,3744 L 1241,3732 Z"/>
        </g>
       </g>
       <g class="com.sun.star.drawing.ClosedBezierShape">
        <g id="id60">
         <rect class="BoundingBox" stroke="none" fill="none" x="1232" y="3272" width="455" height="415"/>
         <path fill="rgb(255,255,255)" stroke="none" d="M 1294,3426 L 1426,3558 C 1468,3600 1503,3607 1531,3579 1546,3564 1551,3545 1548,3523 1544,3501 1532,3480 1512,3461 L 1386,3334 1447,3272 1631,3456 C 1651,3476 1669,3493 1686,3507 L 1627,3566 C 1604,3547 1588,3532 1577,3521 L 1576,3522 C 1586,3549 1588,3572 1584,3593 1580,3614 1569,3633 1551,3650 1526,3675 1499,3687 1470,3685 1441,3683 1412,3667 1382,3637 L 1232,3487 1294,3426 Z"/>
        </g>
       </g>
       <g class="com.sun.star.drawing.ClosedBezierShape">
        <g id="id61">
         <rect class="BoundingBox" stroke="none" fill="none" x="1548" y="2907" width="416" height="503"/>
         <path fill="rgb(255,255,255)" stroke="none" d="M 1902,3290 C 1899,3289 1893,3284 1883,3276 1874,3268 1866,3261 1860,3255 L 1859,3256 C 1874,3298 1863,3337 1826,3374 1798,3402 1766,3413 1730,3406 1693,3400 1655,3377 1617,3338 1577,3299 1555,3261 1549,3223 1544,3186 1556,3153 1585,3124 1601,3107 1619,3096 1639,3091 1658,3086 1678,3087 1698,3094 L 1699,3093 1659,3055 1573,2969 1635,2907 1908,3181 C 1923,3195 1941,3212 1962,3231 L 1902,3290 Z M 1779,3173 C 1753,3147 1729,3132 1707,3126 1684,3121 1665,3127 1648,3144 1632,3160 1626,3179 1631,3200 1637,3222 1653,3246 1681,3274 1734,3328 1777,3338 1810,3306 1826,3290 1831,3270 1826,3247 1821,3224 1805,3199 1779,3173 Z"/>
        </g>
       </g>
       <g class="com.sun.star.drawing.ClosedBezierShape">
        <g id="id62">
         <rect class="BoundingBox" stroke="none" fill="none" x="1698" y="2782" width="388" height="388"/>
         <path fill="rgb(255,255,255)" stroke="none" d="M 1743,2889 C 1728,2874 1713,2859 1698,2844 1719,2823 1739,2803 1760,2782 1775,2797 1790,2812 1805,2827 1784,2848 1764,2868 1743,2889 Z M 2023,3169 C 1944,3090 1865,3011 1786,2932 1807,2911 1827,2891 1848,2870 1927,2949 2006,3028 2085,3107 2064,3128 2044,3148 2023,3169 Z"/>
        </g>
       </g>
       <g class="com.sun.star.drawing.ClosedBezierShape">
        <g id="id63">
         <rect class="BoundingBox" stroke="none" fill="none" x="1957" y="2638" width="359" height="361"/>
         <path fill="rgb(255,255,255)" stroke="none" d="M 2256,2699 C 2294,2737 2314,2778 2314,2821 2315,2864 2296,2905 2258,2942 2221,2979 2181,2997 2138,2997 2095,2996 2055,2976 2016,2938 1978,2900 1959,2859 1958,2816 1957,2773 1976,2733 2014,2695 2052,2656 2092,2637 2134,2638 2176,2639 2216,2659 2256,2699 Z M 2191,2763 C 2163,2735 2138,2719 2116,2715 2094,2712 2074,2719 2057,2737 2019,2774 2028,2820 2081,2873 2107,2899 2132,2915 2155,2920 2178,2924 2198,2918 2215,2901 2253,2863 2245,2817 2191,2763 Z"/>
        </g>
       </g>
      </g>
      <g class="com.sun.star.drawing.ClosedBezierShape">
       <g id="id64">
        <rect class="BoundingBox" stroke="none" fill="none" x="3985" y="551" width="675" height="610"/>
        <path fill="rgb(218,165,32)" stroke="none" d="M 4659,853 C 4659,915 4645,969 4618,1016 4591,1062 4551,1098 4500,1123 4449,1147 4390,1160 4321,1160 4217,1160 4134,1133 4075,1078 4016,1023 3986,948 3986,853 3986,759 4016,685 4075,632 4134,579 4217,552 4322,552 4428,552 4511,579 4570,632 4629,686 4659,760 4659,853 Z M 4517,853 C 4517,790 4500,740 4466,703 4432,667 4384,649 4322,649 4260,649 4212,667 4178,703 4144,739 4126,789 4126,853 4126,918 4144,969 4179,1007 4214,1044 4261,1063 4321,1063 4384,1063 4432,1044 4466,1008 4500,972 4517,920 4517,853 Z"/>
       </g>
      </g>
      <g class="com.sun.star.drawing.ClosedBezierShape">
       <g id="id65">
        <rect class="BoundingBox" stroke="none" fill="none" x="4731" y="651" width="635" height="610"/>
        <path fill="rgb(218,165,32)" stroke="none" d="M 5067,1163 C 5152,1163 5210,1125 5243,1050 5284,1064 5324,1077 5365,1091 5338,1148 5300,1190 5249,1218 5199,1246 5138,1260 5067,1260 4960,1260 4877,1233 4819,1179 4760,1125 4731,1050 4731,953 4731,857 4759,782 4816,730 4872,678 4954,652 5061,652 5139,652 5203,666 5252,694 5302,722 5336,762 5356,816 5315,826 5274,836 5233,846 5223,816 5202,793 5172,775 5141,758 5105,749 5064,749 5001,749 4953,767 4921,801 4888,836 4871,887 4871,953 4871,1021 4888,1073 4922,1109 4955,1145 5004,1163 5067,1163 Z"/>
       </g>
      </g>
      <g class="com.sun.star.drawing.ClosedBezierShape">
       <g id="id66">
        <rect class="BoundingBox" stroke="none" fill="none" x="5365" y="561" width="572" height="592"/>
        <path fill="rgb(218,165,32)" stroke="none" d="M 5720,657 C 5720,822 5720,987 5720,1152 5673,1152 5627,1152 5580,1152 5580,987 5580,822 5580,657 5508,657 5437,657 5365,657 5365,625 5365,593 5365,561 5555,561 5745,561 5936,561 5936,593 5936,625 5936,657 5864,657 5792,657 5720,657 Z"/>
       </g>
      </g>
      <g class="com.sun.star.drawing.ClosedBezierShape">
       <g id="id67">
        <rect class="BoundingBox" stroke="none" fill="none" x="5871" y="561" width="651" height="592"/>
        <path fill="rgb(218,165,32)" stroke="none" d="M 6383,1152 C 6363,1102 6344,1051 6324,1001 6239,1001 6155,1001 6070,1001 6050,1051 6031,1102 6011,1152 5964,1152 5918,1152 5871,1152 5952,955 6033,758 6114,561 6169,561 6224,561 6279,561 6360,758 6440,955 6521,1152 6475,1152 6429,1152 6383,1152 Z M 6197,652 C 6196,655 6195,658 6194,661 6190,671 6187,683 6182,696 6178,708 6151,779 6101,908 6165,908 6229,908 6293,908 6271,851 6249,795 6227,738 6220,719 6213,700 6206,681 6203,671 6200,662 6197,652 Z"/>
       </g>
      </g>
      <g class="com.sun.star.drawing.ClosedBezierShape">
       <g id="id68">
        <rect class="BoundingBox" stroke="none" fill="none" x="6626" y="561" width="141" height="592"/>
        <path fill="rgb(218,165,32)" stroke="none" d="M 6626,1152 C 6626,955 6626,758 6626,561 6673,561 6719,561 6766,561 6766,758 6766,955 6766,1152 6719,1152 6673,1152 6626,1152 Z"/>
       </g>
      </g>
      <g class="com.sun.star.drawing.ClosedBezierShape">
       <g id="id69">
        <rect class="BoundingBox" stroke="none" fill="none" x="6857" y="561" width="651" height="592"/>
        <path fill="rgb(218,165,32)" stroke="none" d="M 7369,1152 C 7349,1102 7330,1051 7310,1001 7225,1001 7141,1001 7056,1001 7036,1051 7017,1102 6997,1152 6950,1152 6904,1152 6857,1152 6938,955 7019,758 7100,561 7155,561 7210,561 7265,561 7346,758 7426,955 7507,1152 7461,1152 7415,1152 7369,1152 Z M 7183,652 C 7182,655 7181,658 7180,661 7176,671 7173,683 7168,696 7164,708 7137,779 7087,908 7151,908 7215,908 7279,908 7257,851 7235,795 7213,738 7206,719 7199,700 7192,681 7189,671 7186,662 7183,652 Z"/>
       </g>
      </g>
      <g class="Group">
       <g class="com.sun.star.drawing.ClosedBezierShape">
        <g id="id70">
         <rect class="BoundingBox" stroke="none" fill="none" x="335" y="9662" width="339" height="349"/>
         <path fill="rgb(255,255,255)" stroke="none" d="M 673,9836 C 673,9890 657,9933 627,9964 597,9995 556,10010 502,10010 450,10010 409,9995 380,9964 350,9933 335,9890 335,9836 335,9782 350,9740 380,9709 409,9678 451,9663 504,9663 559,9663 601,9678 629,9708 658,9737 673,9780 673,9836 Z M 582,9837 C 582,9797 575,9768 562,9750 549,9732 530,9723 505,9723 453,9723 426,9761 426,9837 426,9874 433,9902 446,9922 459,9941 477,9951 501,9951 555,9951 582,9913 582,9837 Z"/>
        </g>
       </g>
       <g class="com.sun.star.drawing.ClosedBezierShape">
        <g id="id71">
         <rect class="BoundingBox" stroke="none" fill="none" x="776" y="9662" width="320" height="475"/>
         <path fill="rgb(255,255,255)" stroke="none" d="M 1095,9835 C 1095,9891 1084,9934 1062,9964 1039,9995 1008,10010 967,10010 943,10010 923,10005 906,9995 888,9984 875,9970 865,9951 L 864,9951 C 865,9957 865,9976 865,10007 L 865,10136 778,10136 778,9746 C 778,9715 778,9689 776,9669 L 861,9669 C 862,9673 862,9680 863,9691 864,9702 864,9713 864,9724 L 865,9724 C 885,9683 921,9662 972,9662 1011,9662 1042,9677 1063,9707 1085,9737 1095,9780 1095,9835 Z M 1005,9835 C 1005,9760 982,9722 936,9722 913,9722 895,9732 883,9752 870,9773 864,9801 864,9837 864,9874 870,9902 883,9921 895,9941 912,9951 935,9951 981,9951 1005,9912 1005,9835 Z"/>
        </g>
       </g>
       <g class="com.sun.star.drawing.ClosedBezierShape">
        <g id="id72">
         <rect class="BoundingBox" stroke="none" fill="none" x="1184" y="9662" width="308" height="349"/>
         <path fill="rgb(255,255,255)" stroke="none" d="M 1341,10010 C 1290,10010 1252,9995 1225,9965 1198,9936 1184,9892 1184,9835 1184,9780 1198,9737 1225,9708 1253,9678 1292,9663 1342,9663 1390,9663 1427,9679 1452,9711 1478,9743 1491,9789 1491,9851 L 1491,9853 1275,9853 C 1275,9886 1281,9910 1293,9927 1306,9944 1323,9952 1345,9952 1376,9952 1395,9939 1404,9912 L 1486,9919 C 1462,9980 1414,10010 1341,10010 Z M 1341,9718 C 1320,9718 1305,9725 1293,9739 1282,9754 1277,9773 1276,9799 L 1406,9799 C 1405,9772 1398,9752 1387,9738 1375,9725 1360,9718 1341,9718 Z"/>
        </g>
       </g>
       <g class="com.sun.star.drawing.ClosedBezierShape">
        <g id="id73">
         <rect class="BoundingBox" stroke="none" fill="none" x="1587" y="9663" width="307" height="342"/>
         <path fill="rgb(255,255,255)" stroke="none" d="M 1806,10004 L 1806,9816 C 1806,9757 1786,9728 1747,9728 1726,9728 1709,9737 1696,9755 1683,9773 1676,9796 1676,9825 L 1676,10004 1589,10004 1589,9744 C 1589,9726 1589,9711 1589,9700 1588,9688 1588,9678 1587,9669 L 1670,9669 C 1671,9673 1671,9684 1672,9701 1673,9718 1674,9730 1674,9736 L 1675,9736 C 1687,9710 1702,9692 1719,9680 1737,9669 1758,9663 1783,9663 1818,9663 1846,9674 1865,9696 1883,9718 1893,9750 1893,9792 L 1893,10004 1806,10004 Z"/>
        </g>
       </g>
       <g class="com.sun.star.drawing.ClosedBezierShape">
        <g id="id74">
         <rect class="BoundingBox" stroke="none" fill="none" x="2208" y="9662" width="311" height="349"/>
         <path fill="rgb(255,255,255)" stroke="none" d="M 2367,10010 C 2316,10010 2277,9995 2250,9965 2222,9934 2208,9892 2208,9838 2208,9783 2222,9740 2250,9709 2278,9678 2317,9663 2369,9663 2408,9663 2441,9673 2466,9693 2492,9712 2509,9740 2515,9775 L 2428,9779 C 2425,9762 2419,9748 2409,9738 2399,9728 2385,9723 2367,9723 2322,9723 2299,9760 2299,9835 2299,9912 2322,9951 2368,9951 2384,9951 2398,9946 2410,9935 2421,9925 2428,9909 2430,9888 L 2518,9892 C 2515,9915 2506,9936 2493,9954 2480,9972 2462,9985 2440,9995 2419,10005 2394,10010 2367,10010 Z"/>
        </g>
       </g>
       <g class="com.sun.star.drawing.ClosedBezierShape">
        <g id="id75">
         <rect class="BoundingBox" stroke="none" fill="none" x="2593" y="9662" width="340" height="349"/>
         <path fill="rgb(255,255,255)" stroke="none" d="M 2932,9836 C 2932,9890 2916,9933 2886,9964 2856,9995 2815,10010 2761,10010 2709,10010 2668,9995 2639,9964 2609,9933 2594,9890 2594,9836 2594,9782 2609,9740 2639,9709 2668,9678 2710,9663 2763,9663 2818,9663 2860,9678 2888,9708 2917,9737 2932,9780 2932,9836 Z M 2841,9837 C 2841,9797 2834,9768 2821,9750 2808,9732 2789,9723 2764,9723 2712,9723 2685,9761 2685,9837 2685,9874 2692,9902 2705,9922 2718,9941 2736,9951 2760,9951 2814,9951 2841,9913 2841,9837 Z"/>
        </g>
       </g>
       <g class="com.sun.star.drawing.ClosedBezierShape">
        <g id="id76">
         <rect class="BoundingBox" stroke="none" fill="none" x="3035" y="9663" width="485" height="342"/>
         <path fill="rgb(255,255,255)" stroke="none" d="M 3235,10004 L 3235,9816 C 3235,9757 3218,9728 3184,9728 3166,9728 3152,9737 3141,9755 3130,9773 3124,9796 3124,9825 L 3124,10004 3037,10004 3037,9744 C 3037,9726 3037,9711 3037,9700 3036,9688 3036,9678 3035,9669 L 3118,9669 C 3119,9673 3119,9684 3120,9701 3121,9718 3122,9730 3122,9736 L 3123,9736 C 3134,9710 3147,9692 3163,9680 3179,9669 3198,9663 3221,9663 3272,9663 3303,9687 3314,9736 L 3316,9736 C 3327,9710 3341,9691 3357,9680 3373,9669 3393,9663 3417,9663 3450,9663 3475,9674 3492,9696 3509,9718 3518,9750 3518,9792 L 3518,10004 3431,10004 3431,9816 C 3431,9757 3415,9728 3381,9728 3364,9728 3350,9736 3339,9753 3328,9769 3322,9792 3321,9821 L 3321,10004 3235,10004 Z"/>
        </g>
       </g>
       <g class="com.sun.star.drawing.ClosedBezierShape">
        <g id="id77">
         <rect class="BoundingBox" stroke="none" fill="none" x="3633" y="9663" width="484" height="342"/>
         <path fill="rgb(255,255,255)" stroke="none" d="M 3833,10004 L 3833,9816 C 3833,9757 3816,9728 3782,9728 3764,9728 3750,9737 3739,9755 3728,9773 3722,9796 3722,9825 L 3722,10004 3635,10004 3635,9744 C 3635,9726 3635,9711 3635,9700 3634,9688 3634,9678 3633,9669 L 3716,9669 C 3717,9673 3717,9684 3718,9701 3719,9718 3720,9730 3720,9736 L 3721,9736 C 3732,9710 3745,9692 3761,9680 3777,9669 3796,9663 3819,9663 3870,9663 3901,9687 3912,9736 L 3914,9736 C 3925,9710 3939,9691 3955,9680 3971,9669 3991,9663 4015,9663 4048,9663 4073,9674 4090,9696 4107,9718 4116,9750 4116,9792 L 4116,10004 4029,10004 4029,9816 C 4029,9757 4013,9728 3979,9728 3962,9728 3948,9736 3937,9753 3926,9769 3920,9792 3919,9821 L 3919,10004 3833,10004 Z"/>
        </g>
       </g>
       <g class="com.sun.star.drawing.ClosedBezierShape">
        <g id="id78">
         <rect class="BoundingBox" stroke="none" fill="none" x="4228" y="9669" width="307" height="342"/>
         <path fill="rgb(255,255,255)" stroke="none" d="M 4315,9669 L 4315,9857 C 4315,9916 4335,9945 4374,9945 4395,9945 4412,9936 4425,9918 4438,9900 4445,9877 4445,9848 L 4445,9669 4531,9669 4531,9929 C 4531,9958 4532,9983 4534,10004 L 4451,10004 C 4449,9974 4447,9952 4447,9937 L 4446,9937 C 4434,9963 4420,9981 4402,9993 4384,10004 4363,10010 4338,10010 4303,10010 4275,9999 4256,9977 4237,9956 4228,9924 4228,9882 L 4228,9669 4315,9669 Z"/>
        </g>
       </g>
       <g class="com.sun.star.drawing.ClosedBezierShape">
        <g id="id79">
         <rect class="BoundingBox" stroke="none" fill="none" x="4656" y="9663" width="307" height="342"/>
         <path fill="rgb(255,255,255)" stroke="none" d="M 4875,10004 L 4875,9816 C 4875,9757 4855,9728 4816,9728 4795,9728 4778,9737 4765,9755 4752,9773 4745,9796 4745,9825 L 4745,10004 4658,10004 4658,9744 C 4658,9726 4658,9711 4658,9700 4657,9688 4657,9678 4656,9669 L 4739,9669 C 4740,9673 4740,9684 4741,9701 4742,9718 4743,9730 4743,9736 L 4744,9736 C 4756,9710 4771,9692 4788,9680 4806,9669 4827,9663 4852,9663 4887,9663 4915,9674 4934,9696 4952,9718 4962,9750 4962,9792 L 4962,10004 4875,10004 Z"/>
        </g>
       </g>
       <g class="com.sun.star.drawing.ClosedBezierShape">
        <g id="id80">
         <rect class="BoundingBox" stroke="none" fill="none" x="5082" y="9545" width="88" height="461"/>
         <path fill="rgb(255,255,255)" stroke="none" d="M 5082,9609 C 5082,9588 5082,9566 5082,9545 5111,9545 5140,9545 5169,9545 5169,9566 5169,9588 5169,9609 5140,9609 5111,9609 5082,9609 Z M 5082,10004 C 5082,9892 5082,9781 5082,9669 5111,9669 5140,9669 5169,9669 5169,9781 5169,9892 5169,10004 5140,10004 5111,10004 5082,10004 Z"/>
        </g>
       </g>
       <g class="com.sun.star.drawing.ClosedBezierShape">
        <g id="id81">
         <rect class="BoundingBox" stroke="none" fill="none" x="5276" y="9662" width="311" height="349"/>
         <path fill="rgb(255,255,255)" stroke="none" d="M 5435,10010 C 5384,10010 5345,9995 5318,9965 5290,9934 5276,9892 5276,9838 5276,9783 5290,9740 5318,9709 5346,9678 5385,9663 5437,9663 5476,9663 5509,9673 5534,9693 5560,9712 5577,9740 5583,9775 L 5496,9779 C 5493,9762 5487,9748 5477,9738 5467,9728 5453,9723 5435,9723 5390,9723 5367,9760 5367,9835 5367,9912 5390,9951 5436,9951 5452,9951 5466,9946 5478,9935 5489,9925 5496,9909 5498,9888 L 5586,9892 C 5583,9915 5574,9936 5561,9954 5548,9972 5530,9985 5508,9995 5487,10005 5462,10010 5435,10010 Z"/>
        </g>
       </g>
       <g class="com.sun.star.drawing.ClosedBezierShape">
        <g id="id82">
         <rect class="BoundingBox" stroke="none" fill="none" x="5657" y="9662" width="339" height="349"/>
         <path fill="rgb(255,255,255)" stroke="none" d="M 5760,10010 C 5728,10010 5702,10001 5684,9984 5666,9966 5657,9941 5657,9909 5657,9874 5668,9848 5691,9830 5714,9812 5746,9802 5789,9802 L 5862,9801 5862,9784 C 5862,9762 5858,9746 5850,9735 5843,9724 5830,9719 5813,9719 5796,9719 5785,9723 5777,9730 5769,9737 5765,9750 5763,9767 L 5672,9762 C 5678,9730 5693,9705 5717,9688 5741,9671 5774,9663 5816,9663 5859,9663 5891,9673 5914,9694 5937,9715 5949,9745 5949,9783 L 5949,9905 C 5949,9923 5951,9936 5955,9943 5959,9950 5966,9954 5976,9954 5983,9954 5989,9953 5995,9952 L 5995,9999 C 5990,10001 5986,10002 5981,10003 5977,10004 5973,10005 5969,10005 5965,10006 5961,10006 5956,10007 5951,10007 5946,10008 5940,10008 5918,10008 5902,10002 5891,9991 5881,9981 5875,9965 5872,9944 L 5871,9944 C 5846,9988 5809,10010 5760,10010 Z M 5862,9848 L 5817,9849 C 5797,9850 5782,9852 5774,9856 5765,9859 5759,9865 5754,9872 5750,9880 5748,9890 5748,9902 5748,9918 5751,9930 5759,9937 5766,9945 5776,9949 5788,9949 5802,9949 5814,9945 5825,9938 5837,9930 5846,9920 5852,9907 5858,9894 5862,9880 5862,9865 L 5862,9848 Z"/>
        </g>
       </g>
       <g class="com.sun.star.drawing.ClosedBezierShape">
        <g id="id83">
         <rect class="BoundingBox" stroke="none" fill="none" x="6031" y="9590" width="198" height="422"/>
         <path fill="rgb(255,255,255)" stroke="none" d="M 6154,10010 C 6129,10010 6109,10003 6095,9989 6081,9975 6074,9954 6074,9926 L 6074,9728 6032,9728 6032,9669 6079,9669 6106,9590 6160,9590 6160,9669 6224,9669 6224,9728 6160,9728 6160,9902 C 6160,9919 6164,9931 6170,9938 6176,9946 6186,9950 6199,9950 6205,9950 6215,9949 6228,9946 L 6228,9999 C 6206,10006 6182,10010 6154,10010 Z"/>
        </g>
       </g>
       <g class="com.sun.star.drawing.ClosedBezierShape">
        <g id="id84">
         <rect class="BoundingBox" stroke="none" fill="none" x="6315" y="9545" width="88" height="461"/>
         <path fill="rgb(255,255,255)" stroke="none" d="M 6315,9609 C 6315,9588 6315,9566 6315,9545 6344,9545 6373,9545 6402,9545 6402,9566 6402,9588 6402,9609 6373,9609 6344,9609 6315,9609 Z M 6315,10004 C 6315,9892 6315,9781 6315,9669 6344,9669 6373,9669 6402,9669 6402,9781 6402,9892 6402,10004 6373,10004 6344,10004 6315,10004 Z"/>
        </g>
       </g>
       <g class="com.sun.star.drawing.ClosedBezierShape">
        <g id="id85">
         <rect class="BoundingBox" stroke="none" fill="none" x="6508" y="9662" width="339" height="349"/>
         <path fill="rgb(255,255,255)" stroke="none" d="M 6846,9836 C 6846,9890 6830,9933 6800,9964 6770,9995 6729,10010 6675,10010 6623,10010 6582,9995 6553,9964 6523,9933 6508,9890 6508,9836 6508,9782 6523,9740 6553,9709 6582,9678 6624,9663 6677,9663 6732,9663 6774,9678 6802,9708 6831,9737 6846,9780 6846,9836 Z M 6755,9837 C 6755,9797 6748,9768 6735,9750 6722,9732 6703,9723 6678,9723 6626,9723 6599,9761 6599,9837 6599,9874 6606,9902 6619,9922 6632,9941 6650,9951 6674,9951 6728,9951 6755,9913 6755,9837 Z"/>
        </g>
       </g>
       <g class="com.sun.star.drawing.ClosedBezierShape">
        <g id="id86">
         <rect class="BoundingBox" stroke="none" fill="none" x="6950" y="9663" width="307" height="342"/>
         <path fill="rgb(255,255,255)" stroke="none" d="M 7169,10004 L 7169,9816 C 7169,9757 7149,9728 7110,9728 7089,9728 7072,9737 7059,9755 7046,9773 7039,9796 7039,9825 L 7039,10004 6952,10004 6952,9744 C 6952,9726 6952,9711 6952,9700 6951,9688 6951,9678 6950,9669 L 7033,9669 C 7034,9673 7034,9684 7035,9701 7036,9718 7037,9730 7037,9736 L 7038,9736 C 7050,9710 7065,9692 7082,9680 7100,9669 7121,9663 7146,9663 7181,9663 7209,9674 7228,9696 7246,9718 7256,9750 7256,9792 L 7256,10004 7169,10004 Z"/>
        </g>
       </g>
       <g class="com.sun.star.drawing.ClosedBezierShape">
        <g id="id87">
         <rect class="BoundingBox" stroke="none" fill="none" x="7354" y="9662" width="306" height="349"/>
         <path fill="rgb(255,255,255)" stroke="none" d="M 7659,9906 C 7659,9939 7645,9964 7619,9982 7592,10001 7556,10010 7509,10010 7463,10010 7427,10003 7403,9988 7378,9974 7362,9951 7354,9920 L 7430,9909 C 7435,9925 7442,9936 7453,9942 7464,9949 7482,9952 7509,9952 7533,9952 7551,9949 7562,9943 7573,9937 7579,9927 7579,9914 7579,9904 7574,9895 7565,9889 7556,9882 7541,9877 7520,9873 7470,9863 7437,9854 7420,9846 7403,9837 7390,9827 7381,9813 7372,9800 7367,9784 7367,9764 7367,9732 7380,9708 7404,9690 7429,9672 7464,9663 7509,9663 7549,9663 7581,9671 7606,9686 7630,9702 7645,9724 7651,9753 L 7574,9761 C 7571,9748 7565,9738 7556,9731 7546,9724 7530,9721 7509,9721 7489,9721 7473,9724 7463,9729 7452,9734 7447,9743 7447,9755 7447,9765 7451,9772 7459,9778 7467,9784 7480,9788 7499,9792 7526,9798 7549,9803 7569,9809 7590,9814 7606,9821 7618,9829 7630,9837 7640,9847 7648,9859 7655,9871 7659,9887 7659,9906 Z"/>
        </g>
       </g>
      </g>
     </g>
    </g>
   </g>
  </g>
 </g>
</svg>